<svg xmlns="http://www.w3.org/2000/svg" width="36" height="27" viewBox="0 0 36 27">
  <path id="Icon_awesome-concierge-bell" data-name="Icon awesome-concierge-bell" d="M20.25,9.179v-1.3h1.125A1.125,1.125,0,0,0,22.5,6.75V5.625A1.125,1.125,0,0,0,21.375,4.5h-6.75A1.125,1.125,0,0,0,13.5,5.625V6.75a1.125,1.125,0,0,0,1.125,1.125H15.75v1.3A15.74,15.74,0,0,0,2.25,24.75h31.5A15.74,15.74,0,0,0,20.25,9.179ZM34.875,27H1.125A1.125,1.125,0,0,0,0,28.125v2.25A1.125,1.125,0,0,0,1.125,31.5h33.75A1.125,1.125,0,0,0,36,30.375v-2.25A1.125,1.125,0,0,0,34.875,27Z" transform="translate(0 -4.5)" fill="#1d2335"/>
</svg>
