<svg xmlns="http://www.w3.org/2000/svg" width="30" height="22.5" viewBox="0 0 30 22.5">
  <path id="Icon_awesome-envelope" data-name="Icon awesome-envelope" d="M29.432,11.93a.353.353,0,0,1,.568.275V24.188A2.813,2.813,0,0,1,27.188,27H2.813A2.813,2.813,0,0,1,0,24.188V12.211a.35.35,0,0,1,.568-.275c1.313,1.02,3.053,2.314,9.029,6.656,1.236.9,3.322,2.8,5.4,2.789,2.092.018,4.219-1.922,5.408-2.789C26.385,14.25,28.119,12.949,29.432,11.93ZM15,19.5c1.359.023,3.316-1.711,4.3-2.426,7.775-5.643,8.367-6.135,10.16-7.541A1.4,1.4,0,0,0,30,8.426V7.312A2.813,2.813,0,0,0,27.188,4.5H2.813A2.813,2.813,0,0,0,0,7.312V8.426A1.411,1.411,0,0,0,.539,9.533c1.793,1.4,2.385,1.9,10.16,7.541C11.684,17.789,13.641,19.523,15,19.5Z" transform="translate(0 -4.5)" fill="#1d2335"/>
</svg>
