<?xml version="1.0" encoding="utf-8" ?>
<svg baseProfile="tiny" height="100%" version="1.2" viewBox="0 0 1320 800" width="100%" xmlns="http://www.w3.org/2000/svg" xmlns:ev="http://www.w3.org/2001/xml-events" xmlns:xlink="http://www.w3.org/1999/xlink"><defs /><path d="M 124,83 L 123,84 L 71,84 L 70,85 L 60,85 L 59,86 L 44,86 L 43,87 L 28,87 L 27,88 L 20,88 L 19,89 L 5,89 L 4,90 L 0,90 L 0,863 L 1183,863 L 1183,663 L 1179,663 L 1178,662 L 1177,663 L 1173,663 L 1172,662 L 1158,662 L 1157,661 L 1153,661 L 1152,660 L 1147,660 L 1146,659 L 1143,659 L 1142,658 L 1137,658 L 1136,657 L 1133,657 L 1132,656 L 1129,656 L 1128,655 L 1127,655 L 1126,654 L 1124,654 L 1123,653 L 1121,653 L 1120,652 L 1117,652 L 1116,651 L 1115,651 L 1114,650 L 1112,650 L 1111,649 L 1109,649 L 1108,648 L 1107,648 L 1106,647 L 1105,647 L 1104,646 L 1103,646 L 1102,645 L 1100,645 L 1099,644 L 1098,644 L 1097,643 L 1096,643 L 1095,642 L 1093,642 L 1092,641 L 1091,641 L 1090,640 L 1089,640 L 1088,639 L 1087,639 L 1086,638 L 1085,638 L 1083,636 L 1082,636 L 1081,635 L 1080,635 L 1079,634 L 1078,634 L 1077,633 L 1076,633 L 1075,632 L 1074,632 L 1072,630 L 1071,630 L 1070,629 L 1069,629 L 1068,628 L 1066,628 L 1064,626 L 1063,626 L 1062,625 L 1061,625 L 1058,622 L 1057,622 L 1055,620 L 1054,620 L 1052,618 L 1051,618 L 1050,617 L 1049,617 L 1046,614 L 1045,614 L 1043,612 L 1042,612 L 1040,610 L 1039,610 L 1038,609 L 1037,609 L 1035,607 L 1034,607 L 1031,604 L 1030,604 L 1025,599 L 1024,599 L 1022,597 L 1021,597 L 1015,591 L 1014,591 L 1011,588 L 1010,588 L 1005,583 L 1004,583 L 999,578 L 998,578 L 993,573 L 992,573 L 991,572 L 991,571 L 990,571 L 975,556 L 974,556 L 973,555 L 973,554 L 972,553 L 971,553 L 967,549 L 967,548 L 966,548 L 965,547 L 965,546 L 964,546 L 962,544 L 962,543 L 959,540 L 958,540 L 957,539 L 957,538 L 951,532 L 950,532 L 949,531 L 949,530 L 937,518 L 937,517 L 932,512 L 932,511 L 925,504 L 925,503 L 924,503 L 923,502 L 923,501 L 916,494 L 916,493 L 912,489 L 912,488 L 906,482 L 906,481 L 903,478 L 903,477 L 897,471 L 897,470 L 895,468 L 895,467 L 892,464 L 892,463 L 889,460 L 889,459 L 885,455 L 885,454 L 883,452 L 883,451 L 880,448 L 880,447 L 877,444 L 877,443 L 875,441 L 875,440 L 872,437 L 872,436 L 870,434 L 870,433 L 866,429 L 866,428 L 864,426 L 864,425 L 861,422 L 861,421 L 858,418 L 858,417 L 856,415 L 856,414 L 853,411 L 853,410 L 852,409 L 852,408 L 850,406 L 850,405 L 847,402 L 847,401 L 845,399 L 845,398 L 844,397 L 844,396 L 841,393 L 841,392 L 839,390 L 839,389 L 837,387 L 837,386 L 836,385 L 836,384 L 834,382 L 834,381 L 832,379 L 832,378 L 830,376 L 830,375 L 828,373 L 828,372 L 826,370 L 826,369 L 824,367 L 824,366 L 822,364 L 822,363 L 820,361 L 820,360 L 819,359 L 819,358 L 817,356 L 817,355 L 815,353 L 815,352 L 813,350 L 813,349 L 810,346 L 810,345 L 808,343 L 808,342 L 805,339 L 805,338 L 804,337 L 804,336 L 802,334 L 802,333 L 799,330 L 799,329 L 797,327 L 797,326 L 793,322 L 793,321 L 788,316 L 788,315 L 784,311 L 784,310 L 781,307 L 781,306 L 777,302 L 777,301 L 774,298 L 774,297 L 773,297 L 772,296 L 772,295 L 753,276 L 753,275 L 743,265 L 742,265 L 735,258 L 734,258 L 729,253 L 728,253 L 727,252 L 727,251 L 726,251 L 723,248 L 722,248 L 721,247 L 721,246 L 720,246 L 716,242 L 715,242 L 712,239 L 711,239 L 707,235 L 706,235 L 703,232 L 702,232 L 699,229 L 698,229 L 694,225 L 693,225 L 692,224 L 691,224 L 687,220 L 686,220 L 684,218 L 683,218 L 682,217 L 681,217 L 679,215 L 678,215 L 675,212 L 674,212 L 672,210 L 671,210 L 670,209 L 669,209 L 667,207 L 666,207 L 663,204 L 662,204 L 661,203 L 660,203 L 658,201 L 657,201 L 656,200 L 655,200 L 653,198 L 652,198 L 651,197 L 650,197 L 649,196 L 648,196 L 647,195 L 646,195 L 645,194 L 644,194 L 642,192 L 641,192 L 640,191 L 639,191 L 638,190 L 637,190 L 635,188 L 634,188 L 632,186 L 631,186 L 630,185 L 629,185 L 628,184 L 626,184 L 624,182 L 623,182 L 622,181 L 621,181 L 620,180 L 618,180 L 616,178 L 615,178 L 614,177 L 613,177 L 612,176 L 610,176 L 608,174 L 607,174 L 606,173 L 605,173 L 604,172 L 602,172 L 600,170 L 599,170 L 598,169 L 596,169 L 595,168 L 594,168 L 593,167 L 592,167 L 591,166 L 590,166 L 589,165 L 588,165 L 587,164 L 585,164 L 584,163 L 583,163 L 582,162 L 580,162 L 579,161 L 578,161 L 577,160 L 575,160 L 574,159 L 573,159 L 572,158 L 571,158 L 570,157 L 569,157 L 568,156 L 566,156 L 565,155 L 563,155 L 562,154 L 561,154 L 560,153 L 558,153 L 557,152 L 556,152 L 555,151 L 554,151 L 553,150 L 551,150 L 550,149 L 549,149 L 548,148 L 546,148 L 545,147 L 544,147 L 543,146 L 541,146 L 540,145 L 539,145 L 538,144 L 535,144 L 534,143 L 533,143 L 532,142 L 530,142 L 529,141 L 527,141 L 526,140 L 524,140 L 523,139 L 521,139 L 520,138 L 519,138 L 518,137 L 515,137 L 514,136 L 512,136 L 511,135 L 509,135 L 508,134 L 506,134 L 505,133 L 503,133 L 502,132 L 499,132 L 498,131 L 497,131 L 496,130 L 494,130 L 493,129 L 490,129 L 489,128 L 487,128 L 486,127 L 483,127 L 482,126 L 480,126 L 479,125 L 476,125 L 475,124 L 473,124 L 472,123 L 469,123 L 468,122 L 465,122 L 464,121 L 461,121 L 460,120 L 458,120 L 457,119 L 454,119 L 453,118 L 451,118 L 450,117 L 446,117 L 445,116 L 442,116 L 441,115 L 438,115 L 437,114 L 434,114 L 433,113 L 428,113 L 427,112 L 425,112 L 424,111 L 419,111 L 418,110 L 415,110 L 414,109 L 408,109 L 407,108 L 405,108 L 404,107 L 399,107 L 398,106 L 394,106 L 393,105 L 390,105 L 389,104 L 383,104 L 382,103 L 379,103 L 378,102 L 371,102 L 370,101 L 367,101 L 366,100 L 360,100 L 359,99 L 355,99 L 354,98 L 347,98 L 346,97 L 342,97 L 341,96 L 334,96 L 333,95 L 327,95 L 326,94 L 320,94 L 319,93 L 308,93 L 307,92 L 303,92 L 302,91 L 288,91 L 287,90 L 281,90 L 280,89 L 266,89 L 265,88 L 257,88 L 256,87 L 240,87 L 239,86 L 222,86 L 221,85 L 212,85 L 211,84 L 150,84 L 149,83 Z" fill="white" stroke="none" /></svg>