<svg xmlns="http://www.w3.org/2000/svg" width="21.665" height="21.665" viewBox="0 0 21.665 21.665">
  <path id="Icon_simple-instagram" data-name="Icon simple-instagram" d="M10.832,0C7.89,0,7.522.014,6.367.065a7.988,7.988,0,0,0-2.63.5A5.3,5.3,0,0,0,1.818,1.818,5.285,5.285,0,0,0,.569,3.737a7.964,7.964,0,0,0-.5,2.63C.011,7.522,0,7.89,0,10.832s.014,3.31.065,4.466a7.993,7.993,0,0,0,.5,2.63,5.312,5.312,0,0,0,1.249,1.919A5.3,5.3,0,0,0,3.737,21.1a8,8,0,0,0,2.63.5c1.155.054,1.523.065,4.466.065s3.31-.014,4.466-.065a8.016,8.016,0,0,0,2.63-.5A5.536,5.536,0,0,0,21.1,17.928a7.993,7.993,0,0,0,.5-2.63c.054-1.155.065-1.523.065-4.466s-.014-3.31-.065-4.466a8.011,8.011,0,0,0-.5-2.63,5.317,5.317,0,0,0-1.249-1.919A5.278,5.278,0,0,0,17.928.569a7.969,7.969,0,0,0-2.63-.5C14.143.011,13.775,0,10.832,0Zm0,1.95c2.891,0,3.236.014,4.378.064a5.968,5.968,0,0,1,2.01.375,3.565,3.565,0,0,1,2.056,2.055,5.981,5.981,0,0,1,.373,2.01c.051,1.143.063,1.486.063,4.378s-.014,3.236-.067,4.378a6.1,6.1,0,0,1-.38,2.01,3.439,3.439,0,0,1-.812,1.248,3.379,3.379,0,0,1-1.246.809,6.025,6.025,0,0,1-2.018.373c-1.15.051-1.489.063-4.386.063s-3.237-.014-4.386-.067a6.142,6.142,0,0,1-2.018-.38,3.355,3.355,0,0,1-1.245-.812,3.289,3.289,0,0,1-.812-1.246,6.148,6.148,0,0,1-.379-2.018c-.041-1.137-.055-1.489-.055-4.373s.014-3.237.055-4.388a6.141,6.141,0,0,1,.379-2.017,3.211,3.211,0,0,1,.812-1.247A3.2,3.2,0,0,1,4.4,2.357a6,6,0,0,1,2-.38c1.151-.041,1.489-.054,4.386-.054l.041.027Zm0,3.32a5.562,5.562,0,1,0,5.562,5.562A5.562,5.562,0,0,0,10.832,5.27Zm0,9.173a3.611,3.611,0,1,1,3.611-3.611A3.61,3.61,0,0,1,10.832,14.443Zm7.083-9.393a1.3,1.3,0,1,1-1.3-1.3A1.3,1.3,0,0,1,17.915,5.051Z" fill="#aacace"/>
</svg>
