<svg xmlns="http://www.w3.org/2000/svg" width="33.631" height="19.939" viewBox="0 0 33.631 19.939">
  <path id="Icon_awesome-tripadvisor" data-name="Icon awesome-tripadvisor" d="M9.716,17.4a1.4,1.4,0,1,1-1.4-1.4A1.4,1.4,0,0,1,9.716,17.4ZM25.186,16a1.4,1.4,0,1,0,1.4,1.4A1.4,1.4,0,0,0,25.186,16Zm5.219,8.144a8.417,8.417,0,0,1-11.816-1.434l-1.809,2.7L14.988,22.73A8.409,8.409,0,0,1,1.648,12.493,10.9,10.9,0,0,0,0,9.157l5.272,0A20.931,20.931,0,0,1,16.778,6,20.458,20.458,0,0,1,28,9.114l5.618,0a10.843,10.843,0,0,0-1.655,3.366A8.417,8.417,0,0,1,30.405,24.141ZM15.144,17.468a6.719,6.719,0,1,0-6.718,6.72,6.719,6.719,0,0,0,6.718-6.72v0Zm1.669-.61a8.389,8.389,0,0,1,8.123-7.767,19.8,19.8,0,0,0-8.158-1.624A20.8,20.8,0,0,0,8.594,9.058a8.421,8.421,0,0,1,8.219,7.8Zm14.7-1.68A6.719,6.719,0,1,0,18.9,19.828v0a6.72,6.72,0,0,0,12.609-4.652ZM12.473,17.4V17.4a4.16,4.16,0,1,1,0-.007Zm-1.431,0v0a2.726,2.726,0,1,0-2.721,2.731,2.726,2.726,0,0,0,2.721-2.731Zm18.3,0v0a4.158,4.158,0,1,1-4.156-4.16,4.158,4.158,0,0,1,4.156,4.16Zm-1.431,0a2.726,2.726,0,1,0-2.725,2.727,2.726,2.726,0,0,0,2.725-2.727h0Z" transform="translate(0 -5.994)" fill="#aacace"/>
</svg>
