<svg xmlns="http://www.w3.org/2000/svg" width="29.25" height="31.5" viewBox="0 0 29.25 31.5">
  <g id="Icon_ionic-ios-gift" data-name="Icon ionic-ios-gift" transform="translate(-3.375 -2.25)">
    <path id="Path_149" data-name="Path 149" d="M30.375,9.563H24.448a4.131,4.131,0,0,0,1.427-3.094A4.336,4.336,0,0,0,21.438,2.25,3.923,3.923,0,0,0,18,4.177,3.923,3.923,0,0,0,14.562,2.25a4.336,4.336,0,0,0-4.437,4.219,4.107,4.107,0,0,0,1.427,3.094H5.625a2.248,2.248,0,0,0-2.25,2.25v1.406a.282.282,0,0,0,.281.281H32.344a.282.282,0,0,0,.281-.281V11.813A2.248,2.248,0,0,0,30.375,9.563ZM21.438,4.219a2.311,2.311,0,0,1,2.37,2.25,2.311,2.311,0,0,1-2.37,2.25h-2.37C19.069,5.344,20.13,4.219,21.438,4.219Zm-6.877,0c1.308,0,2.37,1.125,2.37,4.5h-2.37a2.311,2.311,0,0,1-2.37-2.25A2.311,2.311,0,0,1,14.562,4.219Z" fill="#1d2335"/>
    <path id="Path_150" data-name="Path 150" d="M4.5,15.891V31.5a2.257,2.257,0,0,0,2.25,2.25H17.016V15.328H5.063A.564.564,0,0,0,4.5,15.891Z" fill="#1d2335"/>
    <path id="Path_151" data-name="Path 151" d="M30.938,15.328H18.984V33.75H29.25A2.257,2.257,0,0,0,31.5,31.5V15.891A.564.564,0,0,0,30.938,15.328Z" fill="#1d2335"/>
  </g>
</svg>
