<svg xmlns="http://www.w3.org/2000/svg" width="28.688" height="29.243" viewBox="0 0 28.688 29.243">
  <path id="Icon_ionic-logo-google" data-name="Icon ionic-logo-google" d="M32.175,15.75l-.148-.626H18.422v5.759H26.55C25.706,24.891,21.79,27,18.591,27a9.519,9.519,0,0,1-6.405-2.552,9.145,9.145,0,0,1-2.728-6.455,9.432,9.432,0,0,1,2.679-6.448A9.112,9.112,0,0,1,18.5,9.056a8.3,8.3,0,0,1,5.414,2.109l4.092-4.071a14.479,14.479,0,0,0-9.64-3.713h0A14.9,14.9,0,0,0,7.819,7.671,14.842,14.842,0,0,0,3.656,18a14.693,14.693,0,0,0,4,10.16,15.263,15.263,0,0,0,11,4.465,13.574,13.574,0,0,0,9.886-4.155,14.6,14.6,0,0,0,3.8-10.111A16.836,16.836,0,0,0,32.175,15.75Z" transform="translate(-3.656 -3.382)" fill="#fff"/>
</svg>
