<svg xmlns="http://www.w3.org/2000/svg" width="23.822" height="24.283" viewBox="0 0 23.822 24.283">
  <path id="Icon_ionic-logo-google" data-name="Icon ionic-logo-google" d="M27.338,13.652l-.123-.52h-11.3v4.782h6.75a6.756,6.756,0,0,1-6.609,5.08,7.9,7.9,0,0,1-5.319-2.119,7.594,7.594,0,0,1-2.265-5.36A7.832,7.832,0,0,1,10.7,10.161a7.567,7.567,0,0,1,5.284-2.067,6.892,6.892,0,0,1,4.5,1.752l3.4-3.381a12.023,12.023,0,0,0-8-3.083h0A12.375,12.375,0,0,0,7.113,6.944a12.325,12.325,0,0,0-3.457,8.577,12.2,12.2,0,0,0,3.322,8.437,12.674,12.674,0,0,0,9.138,3.708,11.271,11.271,0,0,0,8.209-3.451,12.121,12.121,0,0,0,3.153-8.4A13.981,13.981,0,0,0,27.338,13.652Z" transform="translate(-3.656 -3.382)" fill="#aacace"/>
</svg>
