<svg xmlns="http://www.w3.org/2000/svg" width="26.09" height="26.09" viewBox="0 0 26.09 26.09">
  <path id="Icon_simple-instagram" data-name="Icon simple-instagram" d="M13.045,0C9.5,0,9.059.016,7.667.078A9.619,9.619,0,0,0,4.5.685a6.388,6.388,0,0,0-2.311,1.5A6.365,6.365,0,0,0,.685,4.5,9.591,9.591,0,0,0,.078,7.667C.013,9.059,0,9.5,0,13.045s.016,3.986.078,5.378a9.625,9.625,0,0,0,.607,3.167,6.4,6.4,0,0,0,1.5,2.311A6.379,6.379,0,0,0,4.5,25.4a9.631,9.631,0,0,0,3.167.607c1.391.065,1.834.078,5.378.078s3.986-.016,5.378-.078a9.653,9.653,0,0,0,3.167-.607A6.667,6.667,0,0,0,25.4,21.589a9.625,9.625,0,0,0,.607-3.167c.065-1.391.078-1.834.078-5.378s-.016-3.986-.078-5.378A9.647,9.647,0,0,0,25.4,4.5a6.4,6.4,0,0,0-1.5-2.311,6.356,6.356,0,0,0-2.311-1.5A9.6,9.6,0,0,0,18.423.078C17.031.013,16.589,0,13.045,0Zm0,2.348c3.482,0,3.9.017,5.272.077a7.187,7.187,0,0,1,2.421.451,4.293,4.293,0,0,1,2.476,2.475,7.2,7.2,0,0,1,.449,2.421c.062,1.376.076,1.789.076,5.272s-.016,3.9-.08,5.272a7.341,7.341,0,0,1-.458,2.421,4.142,4.142,0,0,1-.977,1.5,4.07,4.07,0,0,1-1.5.974,7.255,7.255,0,0,1-2.43.449c-1.385.062-1.793.076-5.282.076s-3.9-.016-5.282-.08A7.4,7.4,0,0,1,5.3,23.2a4.04,4.04,0,0,1-1.5-.977,3.961,3.961,0,0,1-.978-1.5,7.4,7.4,0,0,1-.457-2.43C2.317,16.925,2.3,16.5,2.3,13.029s.017-3.9.066-5.284a7.4,7.4,0,0,1,.457-2.429,3.867,3.867,0,0,1,.978-1.5,3.858,3.858,0,0,1,1.5-.976,7.22,7.22,0,0,1,2.414-.458C9.1,2.332,9.508,2.315,13,2.315l.049.033Zm0,4a6.7,6.7,0,1,0,6.7,6.7A6.7,6.7,0,0,0,13.045,6.346Zm0,11.047a4.348,4.348,0,1,1,4.348-4.348A4.347,4.347,0,0,1,13.045,17.393ZM21.574,6.082a1.565,1.565,0,1,1-1.565-1.564A1.566,1.566,0,0,1,21.574,6.082Z" fill="#1d2335"/>
</svg>
