<svg id="Group_749" data-name="Group 749" xmlns="http://www.w3.org/2000/svg" xmlns:xlink="http://www.w3.org/1999/xlink" width="806" height="642.321" viewBox="0 0 806 642.321">
  <defs>
    <clipPath id="clip-path">
      <rect id="Rectangle_333" data-name="Rectangle 333" width="806" height="642.321" fill="none"/>
    </clipPath>
  </defs>
  <g id="Group_748" data-name="Group 748" clip-path="url(#clip-path)">
    <path id="Path_1170" data-name="Path 1170" d="M488.933,12.305c5.04,4.023,12.405,12.681,18.172,15.053,10.177,4.191,24.959,2.392,34.888,4.422,3.029.619,6.278,3.885,9.628,4.411,4.785.749,15.295.5,19.459-1.954,3.2-1.885,4.35-6.224,8.958-4.978.547.147,2.737,1.475,2.891,2.04,1.541,5.693-1.541,17.9.19,23.934.139.49,5.588,8.062,6.081,8.186,8.727,2.162,14.352-8.062,19.493-8.42,1.82-.127,16.992,2.262,19.548,2.845,4.556,1.041,9.462,4.372,14.917,5.673,2.609.622,12.994,1.5,13.576,1.863.763.468,2,15.089,8.422,10.984.851-.545.833-7.3,4.747-5.977,7.225,2.435.465,11.524,5.214,12.654,2.813.671,3.959-9.246,9.3-9.4,9.95-.293,23.278,11.733,26.205,20.695.729,2.233-.554,15.155-1.806,16.811-1.457,1.929-6.5.415-7.034.923-.318.306.633,2.965.583,4.041-.179,3.93-2.6,10.7-2.2,14.1.3,2.473,6.035,8.3,7.418,12.076,1.237,3.376,5.407,13.995,5.943,16.52,1.491,7.025-.9,15.6,1.044,22.352,2.378,8.232,18.016,13.3,2.6,19.772l-30.691,1.132c-2.029.654-2.117,4.189-3.4,5.961-1.407,1.945-5.278,3.236-6.106,5.124-1.051,2.4.367,5.936-1.784,7.576-2.11,1.611-8.237.928-10.852,2.242,1.06,1.55,2.555,1.346,4.154,1.461,9.825.7,19.7.672,29.524,1.362a87.392,87.392,0,0,1,6.081,7.022c.9,2.046-.139,4.152,1.418,6.07.59.73,14.167,10.859,15.027,11.236,2.521,1.1,4.227-.708,6.732-.324,9.244,1.423,11.765,10.068,15.835,16.072,4.6,6.787,10.161,3.184,11.6,5.242,1.77,2.534-1.078,7.511-.34,10.574.622,2.584,4.808,5.291,5.291,7.009.624,2.224-.831,4.239-.431,6.832.713,4.622,6.655,11.633,7.113,16.446.3,3.2-1.949,7.68-1.654,10.934.336,3.707,3.866,9.235,4.388,13.39.583,4.636-1.008,8.01-.88,12.037.111,3.521,2.695,9.167,2.425,12.26-.166,1.908-2.362,3.311-2.906,5.062-.864,2.78.6,16.269,1.927,18.751,1.382,2.58,8.173,2.121,7.739,6.889-.336,3.678-6.719,5.407-7.145,7.771-.216,1.21,1.3,2.539,1.52,3.823.5,2.868,1.62,10.98.02,13.154-.451.611-11.551,4.252-13.8,6.326-3.513,3.233-6.544,13.585-9.319,16.691-.983,1.1-2.643.379-2.9.588-.177.145,1.572,2.891,1.5,4.214-.068,1.266-1.507,2.577-1.531,4.64-.016,1.239.73,7.066,1,8.422.6,2.993,4.3,4.107,5.561,7.544.876,2.38,2.282,14.424,1.411,16.332-3.113,6.827-13.058,4.542-15.763,6.487-1.075.774-2.056,7.451-5.693,9.5-2.922,1.643-5.407.22-7.994,1.366-.665.3-9.99,8.894-10.714,9.877-8.18,11.1-4.7,22.071-8.475,32.7-.688,1.94-2.635,3.272-3.091,5.33-1.373,6.219,2.342,8.1-6.5,10.353-3.174.808-12.089.54-13.832,2.076a34.428,34.428,0,0,0-2.918,6.1c0,4.18,6.285,7.638,2.832,15.347-1.793,4-16.884,22.311-20.473,25.383-3.978,3.406-5.893.828-8.522,1.193-.874.123-1.06,1.949-2.017,2.559-12.952,8.241-23.661,11.254-37.414,16.62-4.608,1.8-13.3,8.472-18.027,6.285-1.734-.8-2.519-3.8-5.221-4.23-3.066-.483-8.6,1.4-13.06.958-2.394-.236-4.829-1.813-6.558-1.784-3.521.061-9.827,5.187-13.18,5.52-4.091.4-5.391-3.07-9.51-2.2-6.571,1.393-9.391,8.193-11.168,8.649-2.979.763-6.694-4.76-15.263-1.3-7.022,2.839-8.472,4.359-17.338,3.3-6.111-.731-12.87-9.359-17.8-10.278-10.292-1.915-27.539,3.206-36.259.694-2.43-.7-6.367-5.7-8.756-7.156-2.008-1.223-10.417-3.71-11.161-4.77-1.6-2.282,1.348-5.618,1.352-8,.005-2.45-2.711-5.434-1.665-8.309.485-1.329,2.348-1.3,2.571-1.634.181-.27-1.815-3.4,1.028-6.029,1.822-1.688,3.978-.842,5.58-2.834,1.025-1.275,7.5-14.451,8.059-16.276.983-3.249.647-8.465,1.881-11.222.966-2.156,5.788-4.282,6.074-7.07.215-2.1-9.321-27.156-11.062-30.108-2.367-4.007-14.642-16.883-15.039-19.688-.563-3.984,9.178-12.275,9.988-14.951.663-2.189-.483-9.178-1.2-11.522-5.993-19.543-22.84-38.28-37.425-52.423-6.768-6.562-19.032-9.128-26.643-14.538-3.553-2.526-6.9-7.268-10.34-10.249-1.854-1.607-12.913-11.241-13.775-11.5-2.183-.645-4.922.011-7.218-.2-2.294,3.258,1.693,2.952,3.673,4.683,1.393,1.219,8.507,8.135,8.76,9.094.671,2.56-2.185,3.993-2.453,5.573-.358,2.1,2.342,5.162,2.571,7.424,1,9.952-6.932,2.616-8.869,2.571-6.185-.147-1.092,12.564-4.812,13.659-5.173,1.525-5.854-10.582-13.471-6.033-.6.358-6.081,11.172-6.331,12.395-.908,4.44,1.55,8.863.731,13.358l-12.167-1.879c1.044,10.81-1.2,6.562-6.537,8.908-.742.327-6.156,5.938-6.4,6.743-.519,1.743.32,7.215,1.01,8.91.887,2.181,3.281,3,3.952,4.474.735,1.616.9,8.012.333,9.657-.928,2.7-5.663,1.275-4.552,4.829.849,2.721,9-1.3,7.286,10.079-1.044,6.954-4.892,6.092-11.492,5.369-4.6-.5-10.029-8.354-13.01-12.244-1.389-1.813-1.15-4.1-3.821-4.617-2.72-.522-5.044.7-7.374.688-1.286-.007-2.119-1.894-4.27-1.173a24.922,24.922,0,0,0-5.7,4.676c-1.961,3.054-2.7,6.753-6.017,9.895-8.96,8.484-26.649-3.959-36.778-5.407-4.35-.62-11.983.635-15.461-1.164-1.734-.9-1.059-6.48-2.5-8.958-3.444-5.911-15.05-16.139-20.18-21.93-4.533-5.117-8.47-10.862-13.094-15.919-1.246,2.006.563,5.153-1.371,7.039-1.845,1.8-7.209,2.737-9.364.885-1.146-.985-4.023-10.58-3.363-11.678,2.56-4.261,10.322-1.05,12.235,2.807.694.148.638-.976.456-1.386-.229-.515-6.31-7.2-7.44-8.477-1.059-1.191-3.615-1.9-4.261-3.226-1.2-2.473.4-9.863-3.462-11.971-1.355-.74-6.735.556-7.245-2.659-.257-1.627,10.751-11.2,2.99-10.982-4.824.136-9.035,1.184-5.929-5.843,2.2-4.98,8.441-2.02,12.307-4.7,2.941-13.889-13.051-22.486-8.488-35.925-7.123,7.962-6.242-4.089-10.744-2.8-1.625.465-1.048,3.429-1.661,4.427-.354.578-2.14.926-3.02,2.11-1.4,1.876-3.267,11.921-6.571,5.675l-3.719-7.529c-4.216,4.54.014,11.329-1.911,15.885-.969,2.3-6.256,6.217-6.989,1.416-.989-11.52-.411-23.144-.9-34.663-.275-6.458-.005-20.037-1-25.211-.468-2.457-5.275-6.465-5.359-7.5-.132-1.659,5.339-6.5,6.085-8.665,1.806-5.257,1.423-14.458,3.757-19.643,2.308-5.128,11.116-7.218,3.49-13.349-3.077-2.475-7.393-2.648-7.107-7.951.311-5.795,6.015-3.58,8.279-5.391.342-.274,2.351-4.5,3.2-5.74.69-1.016,2.432-1.332,2.662-2.183,1.346-4.96-.665-16.764-.933-22.268-.56-11.465,2.664-17.245-6.519-26.239-6.31-6.181-9.521-3.381-16.012-5.516-2.466-.81-3.26-3.04-7.372-3.859-5.291-1.053-18.442-1.069-22.484-3.723-2.83-1.858-1.448-6.634-1.931-9.3-.919-5.092-6.315-2.519-9.62-3.483-1.432-.418-2.546-2.548-4.077-3.41-4.345-2.444-12.575-8.2-16.212-3.426,6.548,5.516,15.908,7.556,13.922,18.159-2.78.465-5.532,1.826-8.305.544-1.053-.486-15.915-15.33-16.4-16.382-2.221-4.779,3-6.358,7.03-5.6-1.944-1.856,1.518-4.719.928-5.593-.182-.27-5.024-1.548-5.516-3.435-.324-1.234.944-2.8.663-4.323-.316-1.722-4.627-5.929-5.815-8.262-1.507-2.961-2.369-9.1-3.882-11.095-2.115-2.789-9.768-2.174-5.92-7.923.69-1.032,2.453-1.255,2.7-2.147,1.021-3.7-1.066-8.479-.98-11.923.073-2.914.66-8.92.935-12.162.581-6.8,2.546-14.154,2.854-21.111,3.517-2.673,11.084,12.189,11.154,13.541.113,2.176-2.131,4.751-2.519,6.8-.622,3.283.055,6.646-.342,9.954-.3,2.482-2.854,8.743-2.764,9.394.077.556,2.5,1.384,3.4,2.358,1.438,1.552,2.349,3.358,3.657,4.785s4.7,2.75,5.1,4.348c.62,2.435-4.334,5.951-3.533,8.987.279,1.057,2.151,2.362,2.87,3.755,5.146,9.974,7.978,21.129,21.8,21.326,9.015.127,6.482-6.158,8.588-6.666,2.718-.654,18.735-.206,21.887.449,4.456.924,9.578,4.919,13.989,6.6,3.93,1.5,12.913,2.323,16.253,5.058,1.239,1.016.014,4.044,2.1,4.717,1.427.46,5.716-1.974,7.7-.726.565.358,1.593,5.5,3.422,6.4,4.869-7.935,9.087-3.345,8.039,4.586,2.5,1.852,4.556-1.261,6.739-.724,1.307.322,4.35,4.259,5.807,5.5,1.531,1.305,4.833,2.112,5.623,3.737,1.355,2.795-.206,7.329,1.495,11.61,2.616,6.589,6.934,3.328,8.239,4.4.334.274,2.3,7.306,2.473,8.286,1.237,6.811-1.116,14.131.4,20.918.283,1.261,6.521,2.695,6.558,5.773.011.817-5.28,14.646-5.838,15.241-1.693,1.811-12.852,3.812-12.849,5.377,2.01,1.863,1.79,4.277,4.987,4.182,1.513-.046,17.807-3.252,18.644-3.7,2-1.069,1.765-7.6,4.438-8.963,4.989-2.544,8.87,3.578,8.23,8.28-.426,3.12-10.53,18.02-9.169,19.386,2.521,2.534,12.825-14.975,18.753-7.8-.283,2.707.61,6.238-.519,8.724-.939,2.071-12.232,7.948-9.811,10.3,2.451,2.383,15.209-7.177,18.712-7.5.51-2.056-2.09-2.61-2.63-4.395-1.72-5.668,3.133-11.182,9.235-9.21,7.17,2.317,3.247,9.423,3.7,9.868,1.786,1.781,4.325-5.382,5.335-5.625,5.207,1.28,13.015-1.445,17.5-.907,2.292.277,6.968,3.717,7.587,3.708,1.209-.02,1.3-1.05.465-2.317-2-3.045-7.383-5.334-7.54-9.31-.236-6.031,7.243-9.65,12.609-8.9,3.369.47,7.429,3.685,11.293,3.714,3.762.029,8.835-3.308,12.132-2.845,1.189.166,13.895,11.021,9.369.064-4.216-10.21-12.985-10.648-11.644-26.7.772-9.242,4.273-6.87,12.146-7.969.712-6.573-3.327-11.731-2.709-18.143.279-2.9,3.134-13.684,4.379-16.221,1.2-2.446,4.912-4.838,5.593-7.51a20.022,20.022,0,0,0-4.018-17.045c-4.5-5.505-14.415,4.919-20.069,2.292-.765-.356-6.156-5.934-6.385-6.732a108.776,108.776,0,0,1-1.1-10.936c.265-3.862,4.66-17.415,6.06-22.1,3.537-11.831,7.233-24.424,16.334-33.271,2.484-2.412,8.055-4.906,9.43-6.734,2.83-3.758,1.765-10.825,4.806-15.531,1.6-2.476,14.315-11.136,12.008-13.721-5.6,1.9-6.415,5.686-12.516,1.03-1.613-1.232-.082-9.367,1.3-10.855,1.5-1.62,7.935-2.873,8.295-3.4.474-.7-.138-4.234.628-6.4,1.264-3.578,9.886-10.859,8.495-15.027-.46-1.377-2.373-2.43-2.28-4.03.138-2.414,6.92-14.546,10.419-13.646,3.134.8,4.928,11.39,8.457,8.37,2.621-2.242,2.528-16.908,9.5-16.97,5.845-.052,1.758,5.949,2.341,9.446,5.25.531,10.206-2.282,15.42-1.9,4.068.3,9.9,4.608,13.891,3.835.678-.131,2.566-4.472,3.905-5.695,10.426-9.537,21.467-6.081,32.574-8.606,2.723-.619,3.326-3.154,6.694-3.6,2.248-.3,10.891-.272,12.67.538,2.63,1.194,7.688,9.416,9.029,9.682,2.632.524,4-3.615,6.331-4.652,8.7-3.862,11.824,2.339,17.871,2.938,4.409.436,12.709-2.3,15.817-1.688.563.111,3.844,3.109,4.862,3.921m91.176,45c-1.03-3.978,0-18.1,0-23.4,0-4.452-8.27,4.731-9.078,4.96-2.956.844-15.375,1.543-18.554,1.146-4.325-.54-7.51-4.07-11.266-4.645-10.433-1.593-23.931-.876-34.344-4.028-2.848-.862-8.785-6.077-11.436-8.218-1.988-1.606-11.567-10.877-12.375-11.062-2.555-.592-11.229,2.017-14.773,1.79-4.955-.318-7.218-4.774-14.1-3.86-3.8.5-3.86,3.049-6.727,4.508-8.059,4.1-9.137-8.323-15.645-9.181-1.992-.265-8.382-.27-10.147.243-1.786.519-2.639,2.977-5.865,3.494-10.333,1.654-19.988-1.123-29.678,6.575-2.214,1.758-3.152,7.052-6.82,7.538-4.318.572-9.9-3.39-13.975-3.8-7.258-.728-22.368,7.578-19.21-5.575-1.348-.136-1.518,2.206-1.877,3.251-1.953,5.691-.806,11.86-7.951,11.806-6.154-.048-5.986-9.571-8.863-7.569a71.475,71.475,0,0,0-4.343,8.883c0,1.852,2.686,4.009,2.042,7.036-1.008,4.751-6.846,9.1-8.243,12.389-1.182,2.784-.093,6.662-1.132,8.228-1.736,2.618-12.809,1.514-9.863,10.254,1.738,1.734,12.285-7.883,13.174.454.751,7.036-10.71,11.971-13.576,17.4-2.124,4.025-.974,10.067-4.259,14.46-2.126,2.841-7.24,4.547-9.847,7-8.84,8.313-19.742,40.815-20.961,52.977-.427,4.273.193,11.953,4.611,13.95,5.518,2.491,15.232-8.633,21.379-1.77,4.425,4.939,6.85,13.732,5.516,20.262-.8,3.934-4.91,6.492-6.524,10.324-.946,2.248-3.8,12.391-3.989,14.569-.32,3.816,4.35,15.4,3.168,19.177-1.4,4.493-12.243-3.215-12.79,6.925-.683,12.688,10.1,17.512,12.436,25.46,2.221,7.563-2.53,9.316-9.215,7.338-1.874-.554-2.519-3.32-4.881-3.56-3.086-.315-8.565,2.907-12.083,2.754-6.054-.266-11.919-7.6-17.9-1.867-6.2,5.951,10.126,9.121,7.066,15.259-3.372,6.761-8.5.46-12.688-.172-2.139-.324-15,.021-16.1,1.11-2.4,2.38-1.9,6.85-8.965,5.434-2.737-.679,2.04-12.38-4.7-11.132-6.491,1.2,2.049,9.721.873,12.012-.74,1.443-16.979,9.534-19.107,9.791-7.177.867-10.789-3.084-5.332-8.886,3.646-3.878,9.829-4.527,7.989-11.191-5.793-.216-9.646,11.769-15.879,8.9-.663-.306-3.506-3.249-3.63-3.891-.56-2.873,14.27-19.9,9.208-23.723-2.33-1.763-4.064,7.567-6.566,8.861-1.11.576-19.554,4.2-21.177,4.2-2.605.005-6.587-4.334-7.345-6.564-2.419-7.113,10.519-6.528,13.335-9.541.692-.738,4.134-10.286,4.019-11.47-.25-2.594-4.654-3.049-5.462-5.806-1.543-5.278,2.058-24.027-3-26.951-2.326-1.346-3.657.685-6.406-2.952-4.13-5.464-1.82-12.108-3.826-14.894a98.373,98.373,0,0,0-8.223-5.843c-1.166-.291-2.611.631-4.055.356-5.014-.957-6.288-2.922-5.579-8.014-2.046.692-1.949,5.012-3.719,6.09-8.175,4.981-3.739-8.359-5.723-9.759-13.265,3.319-7.756-2.071-10.8-4.844-3.4-3.09-10.674-2.923-14.419-4.08-3.689-1.141-8.836-5.933-13.745-6.846-2.675-.5-17.024-.8-19.28-.259-1.128.272-1.336,4.216-3.424,5.2-1.94.91-10.657,1.439-12.858.681-14.419-4.964-13.026-14.04-19.876-23.87-.881-1.264-3.254-1.495-3.7-3.193-.624-2.383,4.422-6.156,3.59-9.072-2.945-1.59-3.873-4.756-5.875-6.8-1.1-1.119-5.092-3-5.3-3.808-1.1-4.322,2.239-5.929,2.78-9.21.608-3.7-.415-7.964.268-11.9.37-2.128,2.256-4.586,2.378-6,.207-2.4-3.665-5.008-3.547-7.787L18.671,106.1c.669,4.577-.994,9.818-1.075,13.954-.107,5.527,3.488,12.017-1.838,15.876,7.123,2.695,6.319,9.269,9.173,15.145,1.484,3.054,6.188,7.735,6.977,9.916.608,1.681-.645,3.412-.143,4.255.358.6,4.935,1.843,5.45,3.571.64,2.149-2.2,2.973-1.809,5.017,7.122-5.378,14.907,4.794,21.564,6.975,2.73.894,4.933.145,7.79,1.568,6.9,3.433,2.9,10.76,5.248,12.534,2.829,2.137,18.939,2.138,23.681,3.463,2.585.722,3.837,3.059,6.437,3.857,3.17.973,6.16.123,9.171,1.125,4.384,1.457,13.553,13.133,14.1,17.719,1.441,12.039-.529,27.611.758,40.116-.506,1.479-3.36,2.239-4.556,3.867-3.376,4.59-.826,6.09-9.341,7.519-.919,2.973,4.992,4.295,6.952,6.16,8.379,7.976-.862,10.6-3.678,16.757-2.51,5.491-2.049,13.137-3.88,18.581-.871,2.585-4.667,5.938-4.878,7.345s2.217,2.739,2.891,4.3a25.511,25.511,0,0,1,1.656,6.766c1.359,13.535-.4,29.645.957,43.5,1.94-.889,1.134-4.348,2.739-6.138,3.935-4.382,7.966-.152,8.945,4.266,1.012-1.5,4.055-3.277,4.672-4.692.687-1.572.322-4.491.481-4.665.44-.477,12.13-1.321,10.308,3.744,13.886-6.866,6.21,3.381,7.68,10.549.917,4.483,6.231,9.809,7.488,14.048.76,2.56,1.473,15.032.324,16.648-.862,1.212-9.621,1.457-11.765,1.813-3.517,2.645,7.891,1.6,8.329,1.97s1.2,5.716,1.033,6.843c-.42,2.818-3.794,4.379-3.741,7.09,2.906-1.309,7.621,4.1,8.228,6.281.613,2.206-.32,4.561.674,6.812.737,1.668,18.579,21.9,21.5,25.3,4.25,4.938,24.313,25,25.542,28.742.517,1.572-.358,4.393,1.1,5.45,2.562,1.858,12.01.9,15.429,1.418,7.038,1.055,23.791,11.021,30.471,6.957.313-.19,4.13-5.021,4.572-5.723.976-1.554.719-3.649,1.568-4.983a87.515,87.515,0,0,1,7.967-6.147c2.678-1.01,3.653.987,6.126,1.389s5.97-1.354,8.271-.935c2.176.4,6.637,9.128,8.965,11.7.982,1.083,3.7,4.25,4.668,4.69,1.6.724,7.216.962,8.466.077,1.1-.778,1.327-5.108.744-6.017-.678-1.053-6.648-.594-7.361-4.343-1.395-7.327,3.739-5.893,4.54-7.156.56-.88.347-6.269-.331-7.34-.756-1.194-2.518-.846-3.6-3.889-2.9-8.195-1.711-15.193,5.977-19.945,1.944-1.2,5.264-1.361,5.468-1.557,2.335-2.257-2.523-12.477,12.273-6.437.551-3.669-1.443-6.877-.74-10.535.213-1.107,6.914-13.972,7.542-14.494,1.405-1.168,7.511-1.536,9.391-.978,2.605.772,2.451,3.707,4.4,4.475-1.475-8.327,4.527-15.361,12.168-9.355.692-.86-2.841-6.954-2.732-8.917.091-1.638,2.273-2.809,1.842-5.439-.077-.463-5.877-6.138-6.626-6.662-1.772-1.243-5.918-1.7-6.339-3.9-.195-1.028,1.693-5.9,2.616-6.451,1.323-.8,8.928-.753,10.59-.259.8.236,11.2,9.106,12.84,10.558,3.978,3.522,8.107,9.2,12.212,12.121,6.569,4.67,16.993,7.359,23.654,11.914,5.645,3.862,30.625,31.544,33.549,37.581,1.647,3.4,7.826,16.705,8.552,19.527.658,2.555,1.879,10.839,1.346,13.156-.59,2.577-10.329,11.279-9.679,13.873,3.6,6.694,11.772,13.09,15.114,19.538,2.1,4.055,9.546,23.917,10.29,28.1,1.305,7.347-4.477,6.678-6.358,12.452-1.039,3.188-.631,6.179-1.6,9.628-.431,1.529-8.561,17.524-9.353,18.477-2.13,2.566-7.24-.413-7.6,7.688-.131,2.911,1.806,5.829,1.652,8.286-.088,1.382-2.074,4.554-1.575,5.232.461.628,8.434,2.664,10.05,3.573,2.314,1.3,5.09,6.14,8.2,6.75,9.875,1.936,25.009-1.373,35.355-.717,10.07,5.664,15.164,12.834,28.077,9.9,3.519-.8,7.086-4.52,12.371-4.493,2.8.013,6.512,2.621,7.49,2.548,1.523-.115,3.206-4.157,4.778-5.237,1.177-.808,8.729-3.789,9.949-3.683,2.467.215,5.021,2.795,7.649,2.628,3.369-.211,8.906-5.368,12.3-5.584,2.307-.147,4.761,1.652,7.42,1.854,4.563.349,10.846-.774,14.962.014,2.923.56,3.1,3.832,6.46,3.714,3.04-.109,9.823-4.937,13.421-6.335,12.872-5,23.8-7.5,35.821-15.674,1.305-.889,1.643-3.063,2.53-3.276,2.669-.638,5.114.957,8.289-.862,2.519-1.441,19.91-22.69,20.627-25.309,1.355-4.955-4.331-10.658-4.089-13.43a54.276,54.276,0,0,1,4.42-8.625c2.695-2.5,17.276-1.135,18.647-3.351.572-.924-.163-4.642.347-6.673.517-2.054,3.64-5.114,4.248-7.916,2.171-10,1.041-23.017,8.2-32.048.7-.878,11.855-10.449,12.611-10.787,2.569-1.148,5.573.388,8.017-1.343,2.6-1.843,1.972-7.384,3.819-8.575,2.516-1.622,12.759-.443,14.839-4.583.992-1.978-.023-10.968-.688-13.38-.955-3.469-4.549-4.794-5.21-6.957-.265-.865-2.526-10.826-2.569-11.415-.123-1.709,1.316-2.768,1.409-4.34.156-2.625-1.824-6.623-.9-9.788,1.327-.422,3.905.987,4.727.5,1.983-1.173,6.154-12.929,8.652-15.187,2.115-1.91,12.961-5.024,13.6-6.051,2.813-4.493-3.151-12.024-2.684-15.246.51-3.512,6.6-4,6.582-7.994-8.223,1.788-10.242-20.5-9.13-24.585.5-1.813,2.925-3.533,3.083-5.813.229-3.335-2.355-8.609-2.364-12.2-.007-2.759,1.743-6.464,1.55-9.241-.293-4.189-4.7-11.02-5-15.211-.256-3.637,2.16-7.722,1.377-11.819-.758-3.957-6.451-11.6-7.14-15.443-.452-2.523,1-4.624.637-6.133-.408-1.693-4.983-4.49-5.475-7.746-.409-2.711,1.193-5.187.939-7.874-11.574,1.625-11.431-11.552-17.453-16.718-6.372-5.468-10.006-2.133-14.07-3.631-3.9-1.436-9.053-7.381-12.711-9.831-1.616-1.084-6-2.425-6.194-2.7-.957-1.352,1.591-8.667-4.815-11.563-1.076-.488-9.623-1.284-11.692-1.413-6.149-.379-24.111,2.189-26.286-5.593-1.581-5.657,5.822-3.42,9.439-3.789,8.772-.889,3.989-4.1,6.324-8.184.363-.637,5.255-3.231,6.044-4.236,3.966-5.057-.885-7.136,10.12-8.141,8.039-.735,18.17.506,26.168-.974,7.812-1.447-3.714-10.623-5.182-15.363-2.3-7.411.642-16.668-1.1-23.232-.408-1.529-5.655-14.832-6.58-16.818-1.486-3.188-5.686-6.657-6.251-9.655-1.377-7.3,3.158-15.28.912-22.862,1.389-.626,7.578-.211,7.964-.894a91.6,91.6,0,0,0,1.456-9.9c.005-7.721-14.9-22.854-22.84-20.914-2.616.64-3.98,6.982-5.579,8.026-7.224,4.72-11.52-4.856-9.112-10.966-2.017.327-1.228,4.164-2.761,5.178-1.234.815-5.364.685-6.868.234-4.556-1.362-5.9-11.227-7.8-11.844-1.527-.5-3.7.125-5.393-.224-7.163-1.464-12.282-4.62-18.086-6.249-2.319-.651-17.485-3.125-19.505-3.063-3.558.109-7.426,5.745-10.757,7.02-3.108,1.189-9.555,2.253-12.194.122a98.98,98.98,0,0,1-6.474-8.495M45.687,193.48c.5-.492-.129-4.05-1.328-4.745-1.792-1.092-14.81-10.834-15.507-10.22-1.332,1.171,4.3,4.189,4.195,5.627,2.065,1.538,10.059,11.89,12.641,9.339M155.2,454.615c-1.085,4.027,3.167,10.771,6.136,5.631.858-1.484-3.794-6.787-6.136-5.631" transform="translate(8.709 1.098)" fill="#fff"/>
    <path id="Path_1171" data-name="Path 1171" d="M76.429,145.764c.392.61,3.109.583,3.49,1.187.365.576.356,5.65-.03,6.28-.334.549-7.933,3.676-9.115,2.87-1.777-1.21-.443-9.949-1.193-12.382-.556-1.792-2.594-1.954-3.6-3.218-2.793-3.535-1.725-7.256-1.851-11.459-6.771.942-10.181,2.038-9.369-6.55-2.788.746-2.13,5.675-4.332,6.444-1.624.565-11.828-1.193-13.66-2.012-2.307-1.028-6.111-5.656-4.967-8.15.465-1.008,4.37-4.59,5.67-4.711,1.445-.136,3.127.912,4.676.94,11.853.213,32.553.045,42.918,5.74,1.028.563,10.056,9.428,10.4,10.19,2.4,5.3-.438,18.383-8.271,15.794-2.952-.974-.585-6.417-1.947-8.377-2.5-3.6-12.033,2.41-8.822,7.415M51.965,118.758c-3.011.785-16.536-3.206-16.675,1.384-.113,3.733,10.719,5.8,13.246,5.225.907-.206,2.43-5.452,3.429-6.609m37.448,24.324c3.538-1.153,3.46-7.638,2.6-10.571-.306-1.048-7.467-7.406-8.683-8.162-3.394-2.113-24.431-7.218-26.688-5.591,2.387,11.472,1.806,5.777,7.937,6.482,5.446.626.454,12.8,7.511,15.967,2.31-3.737,5.225-7.621,10.14-7.417,7.368.308,7.839,2.223,7.181,9.292" transform="translate(24.896 89.874)" fill="#fff"/>
    <path id="Path_1172" data-name="Path 1172" d="M153.187,111.055c.231.216,3.71,0,5.364.744,1.513.679,1.8,2.526,2.755,3.084,2.172,1.268,4.885,1.5,6.859,3.192,5.366,4.6,6.344,17.666,5.33,24.172-.325,2.094-3.354,11.2-5.069,11.771-8.416,2.82-6.9-2.494-8.954-7.594a48.7,48.7,0,0,0-6.8-11.919c-4-4.98-21.606-18.386-17.126-26.012.254-.431,7.694-4.749,8.77-4.858,9.966-1.007,7.882,6.487,8.872,7.42m12.82,9.652c-.417-.39-9.271-5.457-9.811-5.638-1.511-.5-3.692.177-4.981-.635-2.544-1.6.472-9.536-8.332-6.539-5.7,1.944-3.7,7.2-.994,11.184,6.2,9.114,14.111,12.13,20.349,24.576.753,1.5,2.239,10.033,5.015,6.215a65.131,65.131,0,0,0,2.3-6.886c1.223-6.333,1.556-17.5-3.546-22.279" transform="translate(106.241 81.593)" fill="#fff"/>
    <path id="Path_1173" data-name="Path 1173" d="M59.941,226.826c-.969.56-4.978-.343-5.316-.9-.252-.415-1.014-8.2-1.1-9.657-.343-5.8-.755-13.823,3.315-18.293,1.191-1.307,8.441,1.089,10.133,2.033,4.447,2.484-2.471,7.932-2.973,10.826-.483,2.784,1.395,4.81.361,8.693a53,53,0,0,1-4.418,7.3m-2.634-22.761c-.871,5.346.638,12.654,0,18.25,6.566-1.738,2.323-7.928,2.8-11.629.291-2.265,3.8-5.135,3.766-7.545l-5.6-1.418c.209.958-.878,1.842-.96,2.342" transform="translate(42.017 155.71)" fill="#fff"/>
    <path id="Path_1174" data-name="Path 1174" d="M62.622,157.794a44.236,44.236,0,0,1-.542-8.473c1.178-1.59,5.175-.7,7.1-.9-1.218-3.714-5.466-4.445-2.31-8.379,3.3-4.107,10.61-1.144,9.772,5.03a107.177,107.177,0,0,1-4.184,11.783c-1.1,1.318-9.487,1.305-9.832.939" transform="translate(48.866 108.861)" fill="#fff"/>
    <path id="Path_1175" data-name="Path 1175" d="M43.948,137.886l-7.962,3.69c-2.526-.622-.822-8.926-.409-9.267,2.117-1.758,5.774,2.684,7.436,3.7.045-1.631-2.65-6.335-.824-7.388.667-.384,10.556-1.64,11.654-.127.885,1.2-4.5,13.712-6.111,14.571-2.72,1.454-3.825-3.34-3.783-5.183" transform="translate(27.29 100.686)" fill="#fff"/>
    <path id="Path_1176" data-name="Path 1176" d="M28.288,74.313c1.4-.408,12.373,5.067,13.02,6.464.6,1.291-4.6,11.96-5.647,12.209-2.5.592-9.087-14.451-8.928-16.368a2.511,2.511,0,0,1,1.554-2.3m5.993,12.119c5.031-3.581,2.262-6.092-2.818-6.541Z" transform="translate(21.065 58.543)" fill="#fff"/>
    <path id="Path_1177" data-name="Path 1177" d="M193.979,285.084c-2.2,2.2-8.171,1.529-9.584-1.67-1.071-2.43-1.409-14.36,1.961-14.9,2.759-.447,12.75,11.452,7.622,16.575M189.5,275.02c-2.607-2.233-2.174,7.177-1.849,7.485,1.375,1.307,4.847-.279,4.291-3.311-.045-.238-2.258-4.016-2.442-4.173" transform="translate(144.722 211.581)" fill="#fff"/>
    <path id="Path_1178" data-name="Path 1178" d="M133.894,157.947c-1.6,1.112-15.94-7.631-12.012-13.889,3.9-6.21,16.963,10.449,12.012,13.889" transform="translate(95.511 112.438)" fill="#fff"/>
    <path id="Path_1179" data-name="Path 1179" d="M104.01,264.585c1.441,2.521-.724,5.035-3.549,4.517,3.279,2.33,1.362,13.212-3.091,12.051-.928-.241-5.248-4.438-4.967-5.557.635-2.526,5.162-5,5.677-6.453.556-1.565-1.6-3.522.928-5.747,1.421-1.252,4.563.42,5,1.189" transform="translate(72.804 207.206)" fill="#fff"/>
    <path id="Path_1180" data-name="Path 1180" d="M27.162,47.171c1.468,2.5-1.922,7.667-4.154,8.1-.683.131-8.733-3.71-8.833-4.189-.429-2.035,2.389-8.148,4.461-8.679.937-.24,8.279,4.35,8.525,4.772" transform="translate(11.136 33.404)" fill="#fff"/>
    <path id="Path_1181" data-name="Path 1181" d="M450.56,214.771c-.806.951,1.62,8.581-3.224,7.283-2.14-.574-5.5-7.964-4.286-9.2.234-.238,1.965.281,2.519-.2,1.069-.937.027-5.952,4.213-5.323.962.147,7.072,3.394,7.24,4.091.679,2.839-6.06,2.873-6.462,3.349" transform="translate(348.93 163.338)" fill="#fff"/>
    <path id="Path_1182" data-name="Path 1182" d="M1.063,69.35c-3.59-3.451,2.807-15.588,5.97-14.926,1.237.259,4.6,5.253,4.214,6.782-.35,1.37-8.361,9.38-10.185,8.144" transform="translate(0 42.866)" fill="#fff"/>
    <path id="Path_1183" data-name="Path 1183" d="M6.4,45.05c2.206-.6,4.994,3.492,4.992,5.062,0,1.545-2,2.459-2.587,3.964-.6,1.547-.917,7.367-3.5,6.775-.96-.218-4.152-7.753-4.159-8.89C1.135,50.074,4.747,45.5,6.4,45.05" transform="translate(0.905 35.454)" fill="#fff"/>
    <path id="Path_1184" data-name="Path 1184" d="M218.988,10.074c-1.375.878-8.763-.359-11.091.134-.206-3.193-.139-12.11,4.685-9.843,1.774.835,9.725,7.587,6.406,9.709" transform="translate(163.78 0)" fill="#fff"/>
    <path id="Path_1185" data-name="Path 1185" d="M240.341,297.823l-1.06-7.359c10.782-.295,15.152,8.3,1.06,7.359" transform="translate(188.558 228.885)" fill="#fff"/>
    <path id="Path_1186" data-name="Path 1186" d="M10.978,30.9c1.314,7.486-3.283,10.927-9.33,5.11-.574-2.391,7.081-5.963,9.33-5.11" transform="translate(1.275 24.25)" fill="#fff"/>
    <path id="Path_1187" data-name="Path 1187" d="M148.028,143.9c-7.941,7.878-11.064-11.742.769-2.591a2.866,2.866,0,0,1-.769,2.591" transform="translate(111.088 109.397)" fill="#fff"/>
    <path id="Path_1188" data-name="Path 1188" d="M25.393,49.98c.515.3,2.584,4.656,2.038,5.421-11.878,4.331-7.247-8.4-2.038-5.421" transform="translate(15.735 39.026)" fill="#fff"/>
  </g>
</svg>
