<svg xmlns="http://www.w3.org/2000/svg" width="34.997" height="20.998" viewBox="0 0 34.997 20.998">
  <path id="Icon_awesome-money-bill" data-name="Icon awesome-money-bill" d="M33.247,4.5H1.75A1.75,1.75,0,0,0,0,6.25v17.5A1.75,1.75,0,0,0,1.75,25.5h31.5A1.75,1.75,0,0,0,35,23.748V6.25A1.75,1.75,0,0,0,33.247,4.5ZM2.625,22.873v-3.5a3.5,3.5,0,0,1,3.5,3.5Zm0-12.249v-3.5h3.5A3.5,3.5,0,0,1,2.625,10.624ZM17.5,20.249c-2.416,0-4.375-2.351-4.375-5.25S15.083,9.75,17.5,9.75,21.873,12.1,21.873,15,19.914,20.249,17.5,20.249Zm14.874,2.625h-3.5a3.5,3.5,0,0,1,3.5-3.5Zm0-12.249a3.5,3.5,0,0,1-3.5-3.5h3.5Z" transform="translate(0 -4.5)"/>
</svg>
