<svg xmlns="http://www.w3.org/2000/svg" xmlns:xlink="http://www.w3.org/1999/xlink" width="41.426" height="34.133" viewBox="0 0 41.426 34.133">
  <defs>
    <clipPath id="clip-path">
      <rect id="Rectangle_46" data-name="Rectangle 46" width="41.426" height="34.133" fill="#fff"/>
    </clipPath>
  </defs>
  <g id="Group_52" data-name="Group 52" clip-path="url(#clip-path)">
    <path id="Path_92" data-name="Path 92" d="M2.578,19.985c-.005-.022-.121-.16-.164-.083-.43.682-1.345,1.611-2.134.8-.752-.771.207-1.471.619-1.991,2.4-3.024,4.812-6.907,5.574-10.755.4-2-.127-4.386.118-6.368A1,1,0,0,1,7.762.666a3.394,3.394,0,0,1,.531.251c.084.085.242.609.469.553.071-.017.789-.954.954-1.1,1.17-1.033,1.765.36,2.553,1.019.06.05.1.324.229.115.176-.282.2-.653.654-.81a1.043,1.043,0,0,1,1.308.817V6.437a.822.822,0,0,0,.123.123h12.21a.823.823,0,0,0,.123-.123V1.511c0-1.05,1.844-1.175,2.007.041C29.579,1.157,29.988.023,30.818,0s1.23,1.017,1.8,1.467c.157.035.364-.476.53-.609a1,1,0,0,1,1.6.61c.264,2.078-.272,4.65.157,6.657a27.04,27.04,0,0,0,5.292,10.3c.329.412,1.105,1,1.142,1.567a1.077,1.077,0,0,1-.714,1c-.762.2-1.327-.543-1.661-1.129-.219.09-.23.326-.248.53a34.676,34.676,0,0,0,0,4.771c.076.77,1.13.358,1.761.452a.992.992,0,0,1,.166,1.962c-1.137.214-2.9-.159-4.1,0-.241.032-.36.1-.369.369l.015,4.016c.118.362,1.342-.02,1.627-.154.838-.395,1.431-1.651,2.421-1.192a1.028,1.028,0,0,1,.286,1.522c-1.372,2.1-4.745,2.358-6.822,1.25-.2-.107-.552-.476-.761-.47-.065,0-.9.59-1.113.688a5.7,5.7,0,0,1-5.689-.688,5.574,5.574,0,0,1-6.8,0,5.644,5.644,0,0,1-6.951.014A6.237,6.237,0,0,1,9.42,34.066a5.565,5.565,0,0,1-3.146-.706c-.533-.307-1.611-1.179-1.642-1.81-.038-.778.538-1.128,1.26-1.01.406.066.746.648,1.07.9a3.363,3.363,0,0,0,3.836.148c.644-.4.915-1.146,1.739-1.054.557.063,1.243.926,1.813,1.222a3.51,3.51,0,0,0,3.676-.234c.425-.323.776-.993,1.393-.993.6,0,.936.681,1.395.991a3.457,3.457,0,0,0,4.235-.246c.247-.2.469-.6.8-.7.891-.269,1.126.543,1.7.944a3.574,3.574,0,0,0,3.571.236c.717-.376,1.253-1.451,2.108-1.182.176.056.706.615.814.538l.066-3.308c-.061-.179-.181-.2-.348-.226a30.94,30.94,0,0,0-4.35,0c-.184.013-.349.074-.529.086v1.355c0,.4-.557.843-.95.857-.356.013-1.017-.415-1.017-.775V27.662H14.461V29.1c0,.374-.643.791-1.018.774-.326-.015-.948-.432-.948-.774V27.662L7.47,27.6c-.383.113-.171,1.057-.227,1.415a.989.989,0,0,1-1.595.623c-.689-.551-.122-1.815-.53-2.014-1.309-.195-2.86.12-4.141-.039a1,1,0,0,1-.924-1.173,3.4,3.4,0,0,1,.251-.531,5.048,5.048,0,0,1,.511-.268H2.455a.829.829,0,0,0,.123-.123ZM8.642,6.56h3.729a.829.829,0,0,0,.123-.123V4.631c-.323-.223-1.761-2.114-1.971-2.062a1.708,1.708,0,0,0-.447.377A21.2,21.2,0,0,0,8.622,4.611a5.966,5.966,0,0,0,.02,1.95m24.093,0a4.553,4.553,0,0,0-.019-1.993,14.93,14.93,0,0,0-1.168-1.375,3.236,3.236,0,0,0-.693-.624c-.109-.027-.3.214-.374.3-.5.539-1.008,1.117-1.464,1.7-.033.042-.132.022-.132.029V6.437a.822.822,0,0,0,.123.123ZM12.494,25.527V8.654a.829.829,0,0,0-.123-.123H8.642L8.577,25.388a.3.3,0,0,0,.147.181,29.466,29.466,0,0,0,3.241.044c.184-.013.349-.074.529-.086m2.09-17c-.027.042-.123.1-.123.123v1.724a.822.822,0,0,0,.123.123h12.21a.823.823,0,0,0,.123-.123V8.654a.823.823,0,0,0-.123-.123Zm18.152,0H29.007a.822.822,0,0,0-.123.123V25.527c.181.012.346.072.529.086a29.466,29.466,0,0,0,3.241-.044.305.305,0,0,0,.147-.181Zm-5.818,17V12.6a.823.823,0,0,0-.123-.123H14.583a.822.822,0,0,0-.123.123V25.527Zm-22.29-8.5V25.4c0,.276,1.274.235,1.521.21.121-.012.446-.063.446-.21V14.073c0-.133-.137-.308-.281-.118-.206.271-.438.985-.635,1.334a14.549,14.549,0,0,0-1.05,1.739m30.157-2.874V25.4c0,.276,1.274.235,1.521.21.121-.012.446-.063.446-.21V17.029c0-.275-1.7-2.567-1.722-3.161-.047-.035-.233.23-.245.287" transform="translate(0 0)" fill="#fff"/>
    <path id="Path_93" data-name="Path 93" d="M1.942,196.238a1.23,1.23,0,0,1,.229.965.977.977,0,0,1-1.89-.5,1.02,1.02,0,0,1,1.661-.469" transform="translate(-0.206 -163.792)" fill="#fff"/>
    <path id="Path_94" data-name="Path 94" d="M183.455,74.2c.459.648.245,2.315-.836,2.281-1.492-.047-1.212-3.1.374-2.6a3.72,3.72,0,0,1,.462.316" transform="translate(-151.81 -61.707)" fill="#fff"/>
    <path id="Path_95" data-name="Path 95" d="M183.471,116.117a1.165,1.165,0,0,1-1,.349c-1.256-.233-1.057-3.085.533-2.587.734.23.827,1.723.462,2.238" transform="translate(-151.826 -95.13)" fill="#fff"/>
    <path id="Path_96" data-name="Path 96" d="M58.267,76.12a2.633,2.633,0,0,1-.182-1.323.985.985,0,0,1,1.366-.889c1.063.435.774,3-.722,2.529a3.715,3.715,0,0,1-.462-.316" transform="translate(-48.535 -61.702)" fill="#fff"/>
    <path id="Path_97" data-name="Path 97" d="M58.267,116.12a2.633,2.633,0,0,1-.182-1.323.985.985,0,0,1,1.366-.889c1.063.435.774,3-.722,2.529a3.716,3.716,0,0,1-.462-.316" transform="translate(-48.535 -95.133)" fill="#fff"/>
  </g>
</svg>
