<svg id="Group_454" data-name="Group 454" xmlns="http://www.w3.org/2000/svg" xmlns:xlink="http://www.w3.org/1999/xlink" width="542.93" height="614.259" viewBox="0 0 542.93 614.259">
  <defs>
    <clipPath id="clip-path">
      <rect id="Rectangle_224" data-name="Rectangle 224" width="542.93" height="614.259" fill="#fff"/>
    </clipPath>
  </defs>
  <g id="Group_453" data-name="Group 453" clip-path="url(#clip-path)">
    <path id="Path_842" data-name="Path 842" d="M292.523,614.259c-2.206,0-4.631-1.343-8.569-4.687a5.044,5.044,0,0,1-.848-.92l-.04.081-4.99-2.261c1.392-3.418.336-5.139-1.584-8.263a34.656,34.656,0,0,1-2.535-4.684l-1.655-3.891,4.228.077c1.431.04,1.832-.275,1.836-.28.718-1.538-3.377-8.4-4.722-10.662a46.463,46.463,0,0,1-2.676-4.857c-4.088-9.532-5.66-11.928-9.106-17.174-1.131-1.721-2.448-3.726-4.1-6.355-6.738-10.736-8.455-28.531-9.834-42.829-.258-2.668-.5-5.2-.763-7.508L225.846,461.62l.249-1.037c.885-3.685,1.524-7.71,2.2-11.969,1.609-10.12,3.272-20.585,8.529-28.681a12.007,12.007,0,0,1,3.1-3.055,6.548,6.548,0,0,0,1.758-1.647c3.675-6.1,1.81-9.206-.77-13.5-1.531-2.549-3.267-5.44-3.541-9.049a6.558,6.558,0,0,1,1.176-3.939,4.016,4.016,0,0,0,.77-3.129c-2.024-13.078-11.755-24.64-20.339-34.843-3-3.564-5.832-6.931-8.328-10.3-.06-.082-6.327-9.965-6.592-11.655-.4-2.512,1.274-4.2,2.494-5.431a6.415,6.415,0,0,0,1.272-1.535,18.148,18.148,0,0,0,.7-6.979,23.359,23.359,0,0,1,.26-5.436,9.132,9.132,0,0,1,1.757-3.437,8.679,8.679,0,0,0,1.523-2.8c.877-3.452.851-8.953-.233-11.718a4.792,4.792,0,0,1-3.589-1.013,7.987,7.987,0,0,1-2.094-3.081,7.049,7.049,0,0,0-.451-.9c-1.237-1.057-6.038-.088-9.545.619-5.054,1.021-10.283,2.076-14.1.148-2.411-1.214-3.579-4.158-4.932-7.565-1.163-2.931-2.612-6.579-4.548-7.452-3.349-1.507-15.022-.16-21.589,1.429-2.853.691-8.077,2.99-13.131,5.213-8.421,3.7-13.755,5.96-16.817,6.042a31.172,31.172,0,0,1-7.237-1.344c-3.061-.788-6.53-1.68-9.039-1.68h-.011c-4.254,0-9.52,1.588-14.615,3.122-6.313,1.9-11.766,3.541-15.8,2.489-6.371-1.662-13.146-7.292-19.7-12.738a109.806,109.806,0,0,0-9.41-7.3c-.809-.525-3.464-1.684-5.4-2.53-3.932-1.716-4.64-2.024-5.227-2.979a26.684,26.684,0,0,1-1.853-4.992,39.328,39.328,0,0,0-2.369-6.4,31.15,31.15,0,0,0-6.779-6.936,31.037,31.037,0,0,1-6.457-6.522,35.4,35.4,0,0,1-2.8-6.705c-.149-.425-.315-.9-.462-1.3-2.565-.544-7.481-1.7-9.447-5.8-1.328-2.77-.714-5.606-.221-7.885a10.819,10.819,0,0,0,.41-3.582,8.787,8.787,0,0,0-2.411-4,7.9,7.9,0,0,1-2.161-3.544c-.347-1.792,1.91-10.216,2.717-11.387a4.6,4.6,0,0,1,3.024-1.927,7.118,7.118,0,0,1,.036-1.849A44.7,44.7,0,0,1,7.643,182.1C8.754,178.656,9.713,175.68,9,171.866a7.4,7.4,0,0,0-.815-1.723,11.061,11.061,0,0,1-1.658-4.436,13.277,13.277,0,0,1,.6-4.8,6.459,6.459,0,0,0,.325-3.507c-.362-1.258-1.059-1.786-2.364-2.683-3.86-2.659-5.45-5.686-2.15-13.289,1.618-3.727,5.384-8.78,9.024-13.664,2.676-3.589,5.442-7.3,6.413-9.339a23.334,23.334,0,0,0,1.206-4.692c.628-3.237,1.339-6.907,3.373-9.428a9.351,9.351,0,0,1,4.768-2.945,6.246,6.246,0,0,0,1.21-.478A13.877,13.877,0,0,0,30.413,97.2a18.111,18.111,0,0,1,2.717-6.046c2.354-2.887,5.58-3.66,8.427-4.343a16.745,16.745,0,0,0,3.918-1.259c4.085-2.2,13.937-12.31,14.364-15.259.074-.513-.121-.846-.693-1.665a5.533,5.533,0,0,1-1.233-2.944c-.389-7.84,6.672-21.659,13.493-26.406a26.783,26.783,0,0,1,5.287-2.554c2.094-.835,4.467-1.78,5.483-2.909,1.262-1.4,2.865-6.205,3.926-9.384,1.614-4.835,2.324-6.835,3.721-7.825,4.517-3.2,8.061.639,9.764,2.483a9.191,9.191,0,0,0,1.872,1.735c2.808.843,5.32.286,7.977-.3a27.513,27.513,0,0,1,4.624-.748,2.9,2.9,0,0,1,2.912,2.071c.09.214.215.507.314.545.31.122,1.343.1,3.257-.744a84.654,84.654,0,0,0,9.412-5.664c5.662-3.69,11.517-7.507,15.4-8.329,4.488-.948,19.2-3.157,23.525-3.212a22.02,22.02,0,0,1,8.155,1.808c.4.152.914.347,1.254.456.328-.162.814-.43,1.2-.643a19.975,19.975,0,0,1,7.03-2.72,35.353,35.353,0,0,1,8.651.621,32.683,32.683,0,0,0,6.257.588,16.565,16.565,0,0,0,4.078-1.734c3.637-1.872,8.165-4.2,11.977-1.782.994.632,1.528,1.651,2.087,3.874l8.407-3.353-.866,4.854c-.4,2.231-1.951,4.048-3.322,5.653-1.531,1.791-2.073,2.6-2.01,3.087l.11.033c3.334,1.052,4.522,3.493,3.973,8.162-.537,4.569-3.093,6.871-5.349,8.9a24.521,24.521,0,0,0-2.4,2.371,2.615,2.615,0,0,0,.877,1.364c.984.7,2.8.378,3.885.182,1.011-.181,2.707-.482,3.782,1.068a4.193,4.193,0,0,1,.465,3.083c-.014.119-.033.277-.048.439,2.123.939,6.87,2.831,7.662,3.075a6.4,6.4,0,0,0,2.952-.248,9.058,9.058,0,0,1,4.091-.269c.13.029,13.975,3.548,15.814,4.924,2.028,1.52,2.416,4.082,2.728,6.141a8.057,8.057,0,0,0,.711,2.786c.841.528,3.333.84,5.335,1.091a34.494,34.494,0,0,1,6.257,1.169,32.022,32.022,0,0,1,6.793,3.614c4.289,2.733,7.047,4.292,9.146,2.9,3.272-2.168,3.008-3.366,2.368-6.263-.532-2.409-1.261-5.709.937-9.354,3.107-5.154,17.424-9.535,23.875-6.1a10.487,10.487,0,0,1,3.7,3.492,5.252,5.252,0,0,0,2.561,2.26c3.555,1.384,8.522,1.813,12.9,2.19a62.8,62.8,0,0,1,8.04,1.014,103,103,0,0,1,11.011,3.66c4.322,1.6,9.223,3.415,11.4,3.607.82-.1,3.919-1.886,5.969-3.068,3.706-2.135,7.207-4.151,9.846-4.315,3.61-.226,7.162,1.8,10.013,3.437a17.6,17.6,0,0,0,3.044,1.535c2.152.443,6.416-.423,8.964-.943,2.863-.584,3.932-.8,5.1.084,2.12,1.607,5.284,16.4,5.29,16.526.073,2.153-1.376,15.683-6.274,18.766a4.575,4.575,0,0,1-2.791.726c.26.92.514,1.879.773,2.856a43.747,43.747,0,0,0,2.2,6.926c1.026,2.109,3.346,5.643,5.59,9.061,2.989,4.551,5.569,8.481,6.37,10.777a8.433,8.433,0,0,1-.078,4.665c-.337,1.606-.655,3.124.079,4.743.333.735,2,1.832,3.336,2.715,2.108,1.392,4.5,2.968,5.963,5.32,3.634,5.831,3.685,11.251,3.734,16.493.016,1.891.036,3.847.228,5.8.489,5.013,2.071,6.019,4.691,7.685a18.133,18.133,0,0,1,6.836,6.749c1.243,2.186,2.25,5.947,3.316,9.93a77.233,77.233,0,0,0,2.653,8.606,3.119,3.119,0,0,1,2.941.247,14.7,14.7,0,0,1,2.15,1.872c1.606,1.583,3.266,3.219,5.856,3.344l1.613.077.714,1.447c1.25,2.532,4.409,5.218,7.463,7.817,4.659,3.963,9.476,8.061,9.109,13.113a7.83,7.83,0,0,1-1.332,3.8,7.993,7.993,0,0,1,1.057,2.856,7.477,7.477,0,0,0,1.54,3.6c3.386,3.843,5.321,2.846,8.838,1.041a17.485,17.485,0,0,1,4.94-1.928c3.891-.682,7.941-1.153,12.231-1.651,7.4-.859,15.056-1.747,21.88-3.8a9.443,9.443,0,0,0,2.2-1.274c2.08-1.427,4.931-3.384,8.988-2.13l2.522.778-.682,2.549a64.818,64.818,0,0,0-1.476,8.531,55.62,55.62,0,0,1-2.415,11.826c-4.842,13.534-25.629,45.4-35.875,54.987-3.419,3.2-7.73,5.83-11.9,8.373C486.3,313.6,481.87,316.3,478.4,319.6a69.7,69.7,0,0,0-7.81,9.848,85.517,85.517,0,0,1-6.174,8.1,27.73,27.73,0,0,1-5.161,3.9,22.621,22.621,0,0,0-4.352,3.259,61.328,61.328,0,0,0-3.643,6.489,102.152,102.152,0,0,1-5.324,9.443c-3.519,5.306-2.435,6.29-.469,8.08a9.174,9.174,0,0,1,3.238,4.692,26.384,26.384,0,0,1,.245,8c-.277,3.944-.563,8.022,1.681,12.847a8.791,8.791,0,0,0,3.669,3.43c1.336.832,2.6,1.617,3.008,3.148.895,3.345.6,9.09.284,15.173-.195,3.764-.38,7.321-.23,9.763a14.449,14.449,0,0,0,1.157,4.835c1.276,3.329,1.906,5.967-.845,12.068-4.72,10.462-11.517,12.828-17.515,14.915a31.316,31.316,0,0,0-9.04,4.3,20.328,20.328,0,0,0-3.278,3.721,33.057,33.057,0,0,1-4.266,4.88c-1.028.9-2.831,2.226-4.92,3.756-2.372,1.738-6.342,4.648-7.011,5.547-1.024,1.621,1.126,6.672,2.7,10.36,1.462,3.438,2.845,6.686,3.177,9.6.217,1.9-.067,14.743-.566,16.675-1.372,5.328-7.344,7.558-13.12,9.712-4.848,1.809-8.477,3.319-9.361,5.4,1.606,1.268,3.988,3.967,3.518,9.563-.8,9.537-4.585,13.467-8.246,17.27a40.593,40.593,0,0,0-4.7,5.536c-.989,1.459-2.013,3-3.072,4.6-9,13.581-20.209,30.483-35.718,35.8-1.369.47-3.24,1.236-4.743,1.851-2.83,1.161-3.386,1.379-4.141,1.379-10.952,0-22.278,0-36.648,3.582a14.046,14.046,0,0,0-4.006,1.718,8.352,8.352,0,0,1-4.2,1.409m-8.48-12.4c1.655.214,2.77,1.272,3.379,3.188a3.535,3.535,0,0,0,.152.428c4.454,3.759,4.75,3.589,6.392,2.632a19.222,19.222,0,0,1,5.435-2.3c14.854-3.7,26.943-3.745,37.612-3.745.492-.177,1.55-.61,2.424-.969,1.651-.676,3.523-1.442,5.044-1.964,13.746-4.718,24.382-20.759,32.926-33.648,1.07-1.614,2.1-3.172,3.1-4.648a45.785,45.785,0,0,1,5.287-6.264c3.537-3.675,6.093-6.33,6.731-13.924.31-3.686-1.147-4.631-2.019-5.2a3.2,3.2,0,0,1-1.72-2.6c-.254-6.853,6.855-9.505,13.127-11.846,4.251-1.587,9.071-3.386,9.728-5.943.3-1.549.587-13.3.429-14.688-.241-2.12-1.529-5.146-2.775-8.07-2.383-5.6-4.847-11.387-2.261-15.474.914-1.446,3.373-3.333,8.379-7,1.9-1.391,3.7-2.707,4.54-3.451a28.5,28.5,0,0,0,3.526-4.085,24.168,24.168,0,0,1,4.35-4.785,36.123,36.123,0,0,1,10.527-5.087c5.906-2.056,10.57-3.68,14.321-11.994,2.019-4.474,1.558-5.672.724-7.85a19.768,19.768,0,0,1-1.509-6.464,103.244,103.244,0,0,1,.226-10.381c.248-4.791.528-10.179.019-12.917-.217-.145-.5-.322-.733-.467a13.726,13.726,0,0,1-5.742-5.772c-2.841-6.108-2.474-11.339-2.179-15.543a22.124,22.124,0,0,0-.118-6.379,5.045,5.045,0,0,0-1.587-1.873c-3.159-2.875-6.056-6.655-.41-15.165a97.674,97.674,0,0,0,5.021-8.931,63.089,63.089,0,0,1,4.054-7.159c1.181-1.654,3.437-3.118,5.826-4.669a26.161,26.161,0,0,0,4.092-2.992,81.971,81.971,0,0,0,5.749-7.571,73.38,73.38,0,0,1,8.506-10.656c3.893-3.714,8.577-6.572,13.108-9.335,4.115-2.511,8-4.881,11.01-7.7,9.62-9.006,29.909-40.111,34.458-52.831a50.622,50.622,0,0,0,2.141-10.678c.233-1.821.471-3.679.8-5.54-.466.254-.988.6-1.616,1.029a13.6,13.6,0,0,1-3.729,2c-7.289,2.194-15.188,3.112-22.828,4-4.207.489-8.183.95-11.916,1.6a13.452,13.452,0,0,0-3.382,1.4c-3.684,1.891-9.249,4.748-15.455-2.291a12.532,12.532,0,0,1-2.76-5.949c-.21.093-.459.211-.752.362l-2.7-4.766c1.58-.989,3.486-2.474,3.59-3.922.166-2.28-3.744-5.6-7.193-8.539-3.03-2.578-6.15-5.232-8.062-8.22-3.775-.689-6.206-3.086-7.88-4.737l-.311-.306a3.059,3.059,0,0,1-3.478-.021c-2.323-1.738-3.566-6.028-5.4-12.884-.929-3.473-1.891-7.063-2.786-8.639a12.916,12.916,0,0,0-5.013-4.832c-3.026-1.925-6.455-4.107-7.206-11.777-.214-2.2-.234-4.276-.252-6.285-.045-4.9-.085-9.123-2.9-13.646-.832-1.335-2.611-2.508-4.33-3.642-2.124-1.4-4.321-2.85-5.309-5.025a12.372,12.372,0,0,1-.452-8.133,8.023,8.023,0,0,0,.259-1.764c-.569-1.627-3.331-5.834-5.768-9.545a106.225,106.225,0,0,1-5.937-9.671A46.8,46.8,0,0,1,400,97.443a41.224,41.224,0,0,0-2.145-6.725,25.341,25.341,0,0,0-2.728-3.792c-3.131-3.889-7.422-9.214-5.479-15.983l1.314-4.578,3.3,3.437c2.2,2.293,3.78,5.784,5.306,9.161,1.517,3.356,3.222,7.126,5.165,8.54,1.721-2.082,3.479-10.748,3.382-13.624a118.013,118.013,0,0,0-3.194-11.55l-.624.126c-4.171.85-8.166,1.562-11.17.94a17.43,17.43,0,0,1-4.654-2.145c-2.216-1.268-4.977-2.838-6.952-2.723-1.357.084-5.024,2.2-7.449,3.593-4.41,2.541-7.009,3.965-9.186,3.778-2.912-.255-7.726-2.038-12.824-3.926a100.185,100.185,0,0,0-10.33-3.456,59.425,59.425,0,0,0-7.289-.9c-4.75-.408-10.134-.873-14.422-2.542a10.555,10.555,0,0,1-5.01-4.152,5.361,5.361,0,0,0-1.836-1.869c-3.3-1.755-14.786,1.074-16.6,4.092-1.018,1.688-.784,3.061-.28,5.343.724,3.278,1.714,7.769-4.694,12.014-5.224,3.46-10.71-.037-15.118-2.845a27.822,27.822,0,0,0-5.566-3.031,30.84,30.84,0,0,0-5.221-.936c-2.93-.367-5.7-.714-7.571-1.891-2.445-1.532-2.87-4.344-3.212-6.6a10.53,10.53,0,0,0-.57-2.52c-1.892-.795-11.337-3.49-13.718-4.008a6.015,6.015,0,0,0-1.691.252,11.4,11.4,0,0,1-5.583.207c-.084-.022-9.6-3.39-10.764-4.74a4.3,4.3,0,0,1-.994-2.526,8.764,8.764,0,0,1-5.773-1.417,8.7,8.7,0,0,1-3.357-6.042l-.167-1.07.61-.9a23.482,23.482,0,0,1,3.951-4.262c1.973-1.777,3.278-2.952,3.574-5.471a7.715,7.715,0,0,0,.036-2.23c-.071-.023-.144-.042-.215-.064a5.049,5.049,0,0,1-2.9-1.938,6.006,6.006,0,0,1-.1-6.733l-1.676.669L214.8,8.716c-.3-1.51-.554-2.587-.745-3.218-1.422-.193-4.151,1.224-6.037,2.193-2.142,1.1-4.165,2.142-6.083,2.319a35.008,35.008,0,0,1-7.569-.625,32.845,32.845,0,0,0-7.168-.6,15.524,15.524,0,0,0-5.047,2.073,8.406,8.406,0,0,1-3.551,1.4,8.951,8.951,0,0,1-3.5-.878,16.525,16.525,0,0,0-6.141-1.45c-3.881.049-18.359,2.227-22.459,3.093-2.887.61-8.8,4.463-13.545,7.559a86.39,86.39,0,0,1-10.189,6.085c-3.044,1.348-5.491,1.617-7.488.83a5.6,5.6,0,0,1-2.567-2.046c-.669.118-1.366.271-2.087.43-2.923.648-6.563,1.453-10.736.2a10.317,10.317,0,0,1-4.325-3.267c-.606-.656-1.735-1.88-2.186-1.935a.829.829,0,0,0-.141.059A50.067,50.067,0,0,0,91.3,26.165c-1.773,5.309-3.172,9.23-5.051,11.317s-4.748,3.226-7.529,4.335a22.866,22.866,0,0,0-4.185,1.961c-5.1,3.552-11.236,15.346-11.158,21.338.075.118.167.24.259.371a7.389,7.389,0,0,1,1.627,5.591C64.4,77.061,51.9,88.312,48.077,90.376a21.013,21.013,0,0,1-5.243,1.766c-2.291.55-4.272,1.024-5.456,2.475a15.31,15.31,0,0,0-1.734,4.222c-.735,2.343-1.428,4.557-2.905,5.986a8.057,8.057,0,0,1-3.29,1.735,4.416,4.416,0,0,0-2.223,1.18c-1.179,1.462-1.753,4.422-2.258,7.031a25.908,25.908,0,0,1-1.639,6.006c-1.2,2.527-3.874,6.109-6.966,10.259-3.294,4.418-7.026,9.426-8.392,12.571-2.149,4.951-1.5,5.4.232,6.592a9.88,9.88,0,0,1,4.522,5.682,11.42,11.42,0,0,1-.292,6.415,8.691,8.691,0,0,0-.447,2.9,6.732,6.732,0,0,0,.974,2.257,11.1,11.1,0,0,1,1.432,3.412c.965,5.179-.306,9.116-1.533,12.923a40.453,40.453,0,0,0-1.632,6.2,5.533,5.533,0,0,0,.459,2.078c.626,1.728.34,3.022-.85,3.844a3.989,3.989,0,0,1-2.9.488c-.192-.021-.486-.052-.732-.06a64.187,64.187,0,0,0-1.7,6.915c.207.273.554.67.825.981a13.458,13.458,0,0,1,3.692,6.72,15.022,15.022,0,0,1-.462,5.621c-.381,1.761-.71,3.282-.195,4.358.863,1.8,4.376,2.541,5.875,2.857a5.171,5.171,0,0,1,2.279.821c.8.615,1.032,1.262,1.986,3.984a39.678,39.678,0,0,0,2.2,5.494,26.631,26.631,0,0,0,5.377,5.321,35.971,35.971,0,0,1,7.895,8.192c1.087,1.686,2.054,4.751,2.99,7.715.343,1.088.785,2.487,1.087,3.278.719.344,1.976.892,2.957,1.32a53.975,53.975,0,0,1,6.2,2.956,112.934,112.934,0,0,1,9.93,7.686c5.806,4.825,12.387,10.294,17.578,11.65,2.548.663,7.78-.911,12.838-2.434,5.473-1.647,11.133-3.351,16.19-3.355h.016c3.2,0,7.029.984,10.405,1.853a31.109,31.109,0,0,0,5.724,1.173c2.209-.059,9.167-3.12,14.756-5.58,5.514-2.426,10.723-4.717,14.048-5.521.18-.045,18.239-4.206,25.132-1.1,3.96,1.784,5.783,6.375,7.392,10.427.673,1.7,1.691,4.262,2.338,4.711,2.094,1.054,6.571.152,10.52-.644,5.627-1.137,10.943-2.208,14.3.691a7.335,7.335,0,0,1,1.772,2.693c.119.263.28.615.418.863.112-.025.23-.055.319-.077a3.2,3.2,0,0,1,3.41.787c3.847,4.387,3.046,14.1,2.091,17.859a13.744,13.744,0,0,1-2.365,4.621,7.587,7.587,0,0,0-.858,1.368A18.812,18.812,0,0,0,214,314.7a23.076,23.076,0,0,1-1.015,9,9.9,9.9,0,0,1-2.537,3.541c-.247.248-.578.584-.8.846,1.158,2.165,4.833,8.348,5.406,9.121,2.393,3.234,5.173,6.537,8.117,10.035,9.047,10.753,19.3,22.94,21.563,37.535a9.326,9.326,0,0,1-1.459,6.741,5.733,5.733,0,0,0-.444.84c.181,2.223,1.443,4.324,2.779,6.549,2.737,4.559,6.143,10.23.767,19.157a11.327,11.327,0,0,1-3.163,3.2,7.277,7.277,0,0,0-1.791,1.657c-4.625,7.121-6.194,17-7.713,26.555-.633,3.98-1.233,7.758-2.042,11.343l20.819,37.524.063.539c.289,2.487.555,5.238.836,8.151,1.324,13.723,2.972,30.8,9.021,40.443,1.625,2.59,2.92,4.565,4.034,6.258,3.519,5.357,5.286,8.046,9.563,18.023a45.577,45.577,0,0,0,2.347,4.21c3.363,5.641,7.175,12.033,4.726,16.254a5.427,5.427,0,0,1-2.461,2.23c.181.3.365.6.545.892a18.286,18.286,0,0,1,2.881,6.523m120.3-541.047h0M93.336,20.757h0" transform="translate(0 0)" fill="#fff"/>
  </g>
</svg>
