<svg xmlns="http://www.w3.org/2000/svg" width="29.266" height="25.607" viewBox="0 0 29.266 25.607">
  <path id="Icon_awesome-suitcase" data-name="Icon awesome-suitcase" d="M7.316,27.857H21.949V4.994A2.744,2.744,0,0,0,19.206,2.25H10.06A2.744,2.744,0,0,0,7.316,4.994ZM10.975,5.908h7.316V7.737H10.975Zm18.291,4.573V25.114a2.744,2.744,0,0,1-2.744,2.744H23.778V7.737h2.744A2.744,2.744,0,0,1,29.266,10.481ZM5.487,27.857H2.744A2.744,2.744,0,0,1,0,25.114V10.481A2.744,2.744,0,0,1,2.744,7.737H5.487Z" transform="translate(0 -2.25)"/>
</svg>
