<svg xmlns="http://www.w3.org/2000/svg" width="27.875" height="31.857" viewBox="0 0 27.875 31.857">
  <path id="Icon_awesome-calendar-alt" data-name="Icon awesome-calendar-alt" d="M0,28.871a2.987,2.987,0,0,0,2.987,2.987h21.9a2.987,2.987,0,0,0,2.987-2.987V11.947H0Zm19.911-12.2a.749.749,0,0,1,.747-.747h2.489a.749.749,0,0,1,.747.747v2.489a.749.749,0,0,1-.747.747H20.658a.749.749,0,0,1-.747-.747Zm0,7.964a.749.749,0,0,1,.747-.747h2.489a.749.749,0,0,1,.747.747v2.489a.749.749,0,0,1-.747.747H20.658a.749.749,0,0,1-.747-.747Zm-7.964-7.964a.749.749,0,0,1,.747-.747h2.489a.749.749,0,0,1,.747.747v2.489a.749.749,0,0,1-.747.747H12.693a.749.749,0,0,1-.747-.747Zm0,7.964a.749.749,0,0,1,.747-.747h2.489a.749.749,0,0,1,.747.747v2.489a.749.749,0,0,1-.747.747H12.693a.749.749,0,0,1-.747-.747ZM3.982,16.675a.749.749,0,0,1,.747-.747H7.218a.749.749,0,0,1,.747.747v2.489a.749.749,0,0,1-.747.747H4.729a.749.749,0,0,1-.747-.747Zm0,7.964a.749.749,0,0,1,.747-.747H7.218a.749.749,0,0,1,.747.747v2.489a.749.749,0,0,1-.747.747H4.729a.749.749,0,0,1-.747-.747ZM24.889,3.982H21.9V1a1,1,0,0,0-1-1H18.915a1,1,0,0,0-1,1V3.982H9.955V1a1,1,0,0,0-1-1H6.969a1,1,0,0,0-1,1V3.982H2.987A2.987,2.987,0,0,0,0,6.969V9.955H27.875V6.969A2.987,2.987,0,0,0,24.889,3.982Z" fill="#1d2335"/>
</svg>
