<svg xmlns="http://www.w3.org/2000/svg" width="22.23" height="19.451" viewBox="0 0 22.23 19.451">
  <path id="Icon_awesome-list-alt" data-name="Icon awesome-list-alt" d="M20.146,21.7H2.084A2.084,2.084,0,0,1,0,19.617V4.334A2.084,2.084,0,0,1,2.084,2.25H20.146A2.084,2.084,0,0,1,22.23,4.334V19.617A2.084,2.084,0,0,1,20.146,21.7ZM5.557,6.071A1.737,1.737,0,1,0,7.294,7.807,1.737,1.737,0,0,0,5.557,6.071Zm0,4.168a1.737,1.737,0,1,0,1.737,1.737A1.737,1.737,0,0,0,5.557,10.239Zm0,4.168a1.737,1.737,0,1,0,1.737,1.737A1.737,1.737,0,0,0,5.557,14.407Zm12.5-5.9V7.113a.521.521,0,0,0-.521-.521H8.857a.521.521,0,0,0-.521.521V8.5a.521.521,0,0,0,.521.521h8.684A.521.521,0,0,0,18.062,8.5Zm0,4.168V11.281a.521.521,0,0,0-.521-.521H8.857a.521.521,0,0,0-.521.521V12.67a.521.521,0,0,0,.521.521h8.684A.521.521,0,0,0,18.062,12.67Zm0,4.168V15.449a.521.521,0,0,0-.521-.521H8.857a.521.521,0,0,0-.521.521v1.389a.521.521,0,0,0,.521.521h8.684A.521.521,0,0,0,18.062,16.838Z" transform="translate(0 -2.25)" fill="#fff"/>
</svg>
