<svg xmlns="http://www.w3.org/2000/svg" width="18" height="15.75" viewBox="0 0 18 15.75">
  <path id="Icon_awesome-wallet" data-name="Icon awesome-wallet" d="M16.214,5.625H2.813a.563.563,0,0,1,0-1.125h13.5a.562.562,0,0,0,.563-.562A1.687,1.687,0,0,0,15.188,2.25H2.25A2.25,2.25,0,0,0,0,4.5V15.75A2.25,2.25,0,0,0,2.25,18H16.214A1.741,1.741,0,0,0,18,16.313v-9A1.741,1.741,0,0,0,16.214,5.625Zm-1.589,7.313a1.125,1.125,0,1,1,1.125-1.125A1.125,1.125,0,0,1,14.625,12.938Z" transform="translate(0 -2.25)" fill="#1d2335"/>
</svg>
