<svg xmlns="http://www.w3.org/2000/svg" xmlns:xlink="http://www.w3.org/1999/xlink" width="37.898" height="37.952" viewBox="0 0 37.898 37.952">
  <defs>
    <clipPath id="clip-path">
      <rect id="Rectangle_45" data-name="Rectangle 45" width="37.898" height="37.952" fill="#fff"/>
    </clipPath>
  </defs>
  <g id="Group_50" data-name="Group 50" clip-path="url(#clip-path)">
    <path id="Path_88" data-name="Path 88" d="M27.067,4.561H29.86a5.39,5.39,0,0,1,.949.377,3.336,3.336,0,0,1,1.559,3.417,16.409,16.409,0,0,1,3.143.122,3.177,3.177,0,0,1,2.157,2.581c.173,1.719-.137,3.693.013,5.44.124.192,3.813.806,4.438,1.1a1.539,1.539,0,0,1,.678,2.1c-.9,2.14-2.712,4.361-3.632,6.509a31.29,31.29,0,0,0-.929,3.385,14.863,14.863,0,0,0-2.793-.666c-.137-.023-.153.067-.142-.14.381-1.165.553-2.6,1.024-3.718.655-1.548,2-3.184,2.658-4.734a.706.706,0,0,0,.105-.416c-4.553-.932-9.026-2.225-13.582-3.138L12.018,19.925a.7.7,0,0,0,.105.416c.665,1.568,2.038,3.232,2.688,4.8.452,1.09.618,2.513.995,3.652.011.207-.006.117-.142.14a12.173,12.173,0,0,0-2.74.669c-.412-1.057-.515-2.28-.952-3.323-.906-2.161-2.754-4.418-3.661-6.575a1.531,1.531,0,0,1,.678-2.1l4.438-1.1c.148-.228-.065-4.661.013-5.44a3.107,3.107,0,0,1,2.788-2.707c.8-.069,1.7.058,2.512,0A3.29,3.29,0,0,1,20.358,4.9a5.811,5.811,0,0,1,.888-.343h2.792V1.194c0-.578.906-1.18,1.467-1.193.6-.014,1.562.569,1.562,1.193ZM29.339,7.6H21.767V10.2a1.849,1.849,0,0,1-1.183,1.185H16.466v4.363l9.04-2.094,9.133,2.094V11.389H30.522A1.849,1.849,0,0,1,29.339,10.2Z" transform="translate(-6.595 -0.001)" fill="#fff"/>
    <path id="Path_89" data-name="Path 89" d="M9.474,163.985c3.471-.323,4.359,1.01,6.788,2.815,4.091,3.04,5.793-1.392,8.987-2.467a7.682,7.682,0,0,1,5.7.365c1.541.781,2.67,2.544,4.364,2.929.988.225,2.4-.034,2.567,1.413.3,2.52-3.24,1.738-4.6,1.1-2.267-1.064-3.112-3.392-6.038-3.146-2.172.183-3.313,2.277-5.19,3.146a7.53,7.53,0,0,1-6.3-.076c-2.164-1.081-3.045-3.257-5.836-3.074-2.753.18-4.057,3.534-7.665,3.8-1.345.1-2.7-.558-2.108-2.112.386-1.014,1.145-.791,1.909-.932,2.956-.548,3.815-3.418,7.422-3.754" transform="translate(0 -132.842)" fill="#fff"/>
    <path id="Path_90" data-name="Path 90" d="M61,112.031c1.915-.311,1.978,1.792,1.823,3.154a1.522,1.522,0,0,1-3.029,0c-.115-1.075-.186-2.928,1.206-3.154" transform="translate(-48.403 -90.756)" fill="#fff"/>
    <path id="Path_91" data-name="Path 91" d="M124.868,112.031c1.917-.311,1.976,1.792,1.823,3.154a1.523,1.523,0,0,1-3.029,0c-.115-1.075-.186-2.928,1.206-3.154" transform="translate(-100.161 -90.756)" fill="#fff"/>
  </g>
</svg>
