<svg id="Group_749" data-name="Group 749" xmlns="http://www.w3.org/2000/svg" xmlns:xlink="http://www.w3.org/1999/xlink" width="650.549" height="655.295" viewBox="0 0 650.549 655.295">
  <defs>
    <clipPath id="clip-path">
      <rect id="Rectangle_333" data-name="Rectangle 333" width="650.549" height="655.295" fill="none" stroke="#707070" stroke-width="3"/>
    </clipPath>
  </defs>
  <g id="Group_748" data-name="Group 748" clip-path="url(#clip-path)">
    <path id="Path_1170" data-name="Path 1170" d="M412.681-4.068,419.8,6.637l.453-.2a9.94,9.94,0,0,1,3.556-1.171,2.182,2.182,0,0,1,1.64.679A2.59,2.59,0,0,1,426.1,7.3a36.521,36.521,0,0,0,.3-3.97c.068-1.785.094-2.452.652-3l.771-.758.963.492c1.471.752,7.862,2.37,13,3.67,10.689,2.706,11.735,3.1,12.323,3.889a3.543,3.543,0,0,1,.146,3.9,9.865,9.865,0,0,1-2.19,2.724,20.825,20.825,0,0,1-3.049,2.284,21.622,21.622,0,0,1-2.656,1.414,5.075,5.075,0,0,1,1.358.486,3.224,3.224,0,0,1,1.454,1.958,3.12,3.12,0,0,0,.2.492,1.009,1.009,0,0,0,.289.031,12.506,12.506,0,0,0,4.4-1.379l2.933-1.3-.882,3.086c-.909,3.181-2.747,5.012-4.524,6.784a15,15,0,0,0-4.4,6.471,35.123,35.123,0,0,0-1.78,8.255,9.393,9.393,0,0,0,.612,4.469c.928,2.041,2.806,2.876,4.979,3.842,2.554,1.135,5.448,2.422,6.541,6,1.152,3.773.485,7.361-.1,10.526a19.677,19.677,0,0,0-.523,6.295c.412,2.709,2.289,5.144,4.1,7.5,1.548,2.007,3.009,3.9,3.551,5.952.784,2.965.571,6.16.366,9.25-.189,2.837-.367,5.52.274,7.585.26.347,1.117,1.3,1.88,2.144,3.874,4.3,7.414,8.377,8.171,11.078a19.657,19.657,0,0,1,.362,6.5,15,15,0,0,0,.263,5.2c.078.24.441.931,2.143,2.178,1.284.941,2.88,1.884,4.425,2.8,3.454,2.039,5.273,3.172,5.638,4.646.607,2.45.115,6.317-1.462,11.493a112.908,112.908,0,0,1-6.048,15.128,136.383,136.383,0,0,1-7.9,14.378c-1.99,3.106-4.876,7.186-7.328,8.98-1.5,1.1-12.905,6.806-19.408,10.007-4.715,2.32-9.158,4.465-12.508,6.039-5.957,2.8-6.564,2.909-6.891,2.969a8.412,8.412,0,0,1-1.5.146,6.264,6.264,0,0,1-3.757-1.291,5.008,5.008,0,0,0-1.58-.8,2.189,2.189,0,0,0-.54-.066,4.814,4.814,0,0,0-1.639.394,3.977,3.977,0,0,1-1.382.335,1.812,1.812,0,0,1-1.483-.734c-.532-.726-.449-1.65-.126-3,.177-.739.452-1.71.9-3.165-4.721-.261-7.76-1.354-9.482-3.391a7.642,7.642,0,0,1-1.664-5,31.1,31.1,0,0,1,.564-5.385,25.683,25.683,0,0,0,.471-7.693,33.838,33.838,0,0,0-2.725-8.325c-2.692-6.3-5.476-12.806,2.363-22.083,11.043-13.069,12.588-16.12,20.012-32.268a4.175,4.175,0,0,1,1.974-1.765c.909-.508,1.479-.868,1.734-1.582.273-.764.3-2.335-1.126-5.478a8.812,8.812,0,0,0-3.6-4.292,9.52,9.52,0,0,0-4.793-1.041,43.619,43.619,0,0,0-5.63.518c-1.811.243-3.675.492-5.539.557-.753,1.539-1.526,2.938-2.277,4.3-2.433,4.406-4.535,8.212-4.629,14.524-.014.911.245,1.063,1.459,1.371a2.594,2.594,0,0,1,2.2,1.656c.53,2,.418,3.516-.345,4.634a5,5,0,0,1-2.561,1.745,4.059,4.059,0,0,0-.8.365,50.8,50.8,0,0,1-6.2,9.492,26.968,26.968,0,0,1-5.047,4.379,38.484,38.484,0,0,0-7.344,6.6,81.319,81.319,0,0,0-4.694,7.624c-2.588,4.5-3.093,5.293-3.6,5.694a2.218,2.218,0,0,1-1.4.448,4.592,4.592,0,0,1-1.307-.223c.114.423.237.857.346,1.243a24.936,24.936,0,0,1,1.248,6.234c-.033,1.354-.345,3.706-.706,6.431-.443,3.343-.944,7.133-1.133,10.419-.286,4.97.349,6.054.48,6.221.529.679,2.347,1.481,4.105,2.256a30.815,30.815,0,0,1,7.12,3.944,11.445,11.445,0,0,1,2.858,3.3,9.648,9.648,0,0,1,1.214,4.612c0,.315.009.612-1.078,3.556-.577,1.563-1.373,3.625-2.241,5.805-.856,2.149-1.694,4.194-2.36,5.758-1.217,2.857-1.413,3.077-1.6,3.29-.927,1.043-2.753,1.9-5.654,3.206-2.218,1-5.223,2.355-6.168,3.44a28,28,0,0,0-.291,3.456c-.1,1.964-.175,4.508-.257,7.2-.184,6.051-.371,11.322-.712,15.156l1.874-2.169,2.438,1.723c-.8,1.412-1.8,7.5-2.389,11.131-.779,4.781-.917,5.388-1.344,5.9a3.624,3.624,0,0,1-2.7,1.6,2.67,2.67,0,0,1-2.3-1.475c-.1-.168-.2-.345-.29-.528a5.164,5.164,0,0,1-1.267,2.528,3.886,3.886,0,0,1-2.918,1.107,14.667,14.667,0,0,1-2.652-.342,17.2,17.2,0,0,0-3.2-.4,7,7,0,0,0-2.887.581,6.873,6.873,0,0,0-3.931,4.782,18.976,18.976,0,0,0-.472,5.651c.038,1.287.057,1.932-.463,2.5-.541.589-1.329.693-3.279.693-1.489,0-3.489-.077-5.606-.159s-4.328-.168-5.956-.168a14.706,14.706,0,0,0-1.986.085l-.967.149-.044.213a21.635,21.635,0,0,1-1.367,4.711,3.364,3.364,0,0,1-2.531,1.741c-.144.035-.34.084-.472.129a9.063,9.063,0,0,0,1.2,3.315l.78,1.571-1.673.526c-4.09,1.286-6.036,1.85-7.506,1.85a3.284,3.284,0,0,1-2.991-1.571,11.232,11.232,0,0,1-1.073-3.123c-.108-.43-.229-.909-.371-1.433-.093.191-.2.418-.313.686a9.376,9.376,0,0,1-1.219,2.2A3.818,3.818,0,0,1,305.9,306l-2.1.113.579-2.023c.547-1.911.89-3.257,1.081-4.234.081-.415.125-.723.149-.949l-.156.021a12.533,12.533,0,0,1-1.776.151,7.251,7.251,0,0,1-4.082-1.22c-1.45-.947-1.918-2.664-2.37-4.324a12.581,12.581,0,0,0-.791-2.314,27.668,27.668,0,0,0,.453,6.507,16.812,16.812,0,0,0,3.411,7.8,8.4,8.4,0,0,0,6.615,3.033,12.223,12.223,0,0,0,2.161-.2l2.949-.532-3.874,7.738c2.884-.2,5.575-2.044,8.183-3.827,2.815-1.924,5.725-3.913,8.994-3.914a8.482,8.482,0,0,1,4.572,1.376L332.6,302l1.62,1.354a10.443,10.443,0,0,1,2.966,4.213,6.932,6.932,0,0,1,.3,4.766,3.816,3.816,0,0,1-2.208,2.3c.674.689,1.543,1.532,2.559,2.456a25.031,25.031,0,0,0,4.6,3.614,5.886,5.886,0,0,0,.729.055l.123,0c0-.155-.005-.342-.01-.5a5.437,5.437,0,0,1,1.6-4.608c1.793-1.645,5.184-2.432,8.773-3.265a29.857,29.857,0,0,0,5.9-1.746,60.923,60.923,0,0,0,6.476-4.124,63.073,63.073,0,0,1,7.9-4.932,20.825,20.825,0,0,1,9.325-2.385,18.978,18.978,0,0,1,6.434,1.164l.148.053.134.083a3.58,3.58,0,0,1,1.541,2.978,17.41,17.41,0,0,1-.138,3c-.072.7-.139,1.352-.141,1.9a3.47,3.47,0,0,0,.052.692c.474-.048,1.741-.422,4.753-2.468,2.484-1.687,2.966-4.052,3.391-6.138a6.819,6.819,0,0,1,1.5-3.689,5.405,5.405,0,0,1,2.832-1.132,5.782,5.782,0,0,0,2.848-1.089,12.4,12.4,0,0,0,4.033-8.036,35.283,35.283,0,0,0-.865-9.4c-.719-4.03-1.463-8.2-.934-12.738a40.107,40.107,0,0,1,3.561-11.033,27.444,27.444,0,0,1,3.313-5.4,8.764,8.764,0,0,1,4.4-3.213,5.641,5.641,0,0,1,1.375-.172,7.569,7.569,0,0,1,4.629,1.856,34.879,34.879,0,0,1,3.782,3.633c2.561,2.708,5.21,5.509,8.212,5.509a5.122,5.122,0,0,0,.77-.058c-.118-2.4.028-6.523.182-10.84.09-2.525.175-4.91.2-6.859.021-1.493,0-2.38-.029-2.905-.6.02-1.412.1-2.26.182-1.183.116-2.406.236-3.446.236a4.05,4.05,0,0,1-2.766-.7c-1.152-.992-1.145-3-1-6.2.03-.654.073-1.571.053-2.093-.191-.063-.44-.129-.614-.175a7.588,7.588,0,0,1-1.317-.437,2.205,2.205,0,0,1-1.376-1.735,8.5,8.5,0,0,1,1.573-5.786,19.75,19.75,0,0,1,4.524-4.674,30.528,30.528,0,0,1,11.028-5.421,157.238,157.238,0,0,1,20.89-1.472,49.238,49.238,0,0,1,7,.388,10.017,10.017,0,0,1,2.456.632,2.523,2.523,0,0,1,1.716,1.978,8.618,8.618,0,0,1-1.8,6.354,29.351,29.351,0,0,1-4.216,4.478c-.787.725-1.531,1.409-2.053,2a2.631,2.631,0,0,0-.659.982c.136,1.51,1.708,3.451,3.371,5.506a27.718,27.718,0,0,1,4.343,6.555,9.629,9.629,0,0,1,.777,4.028,8.876,8.876,0,0,1-.922,3.6l12.276,23.148c2.658,1.781,6.155,2.027,9.248,2.027,1.3,0,2.646-.051,3.949-.1s2.629-.1,3.911-.1c3.777,0,8.017.4,10.836,3.365,2.1,2.205,2.587,5.438,3.063,8.564a20.728,20.728,0,0,0,1.853,6.9c.876,1.122,10.056,10.307,12.065,12.094.188-.049.426-.121.619-.179a10.068,10.068,0,0,1,2.88-.55,4.463,4.463,0,0,1,1.456.23,12.668,12.668,0,0,1,5.76,3.584A5.954,5.954,0,0,1,543.88,307a7.691,7.691,0,0,1-3.514,4.99,12.208,12.208,0,0,1-6.748,1.971,13.38,13.38,0,0,1-2-.151c.662,1.835,1.475,4.231,2.315,6.708,1.224,3.608,2.883,8.5,3.421,9.536a1.419,1.419,0,0,0,.8.338c.909,0,2.127-1.662,3.015-2.876a8.619,8.619,0,0,1,2.624-2.743c2.087-1.056,7.557-3.511,13.249-3.511a13.5,13.5,0,0,1,6.807,1.624,10.665,10.665,0,0,1,4.729,5.835c.606,1.675.022,3.6-.447,5.146a11.111,11.111,0,0,0-.431,1.708,4.811,4.811,0,0,0,2.561.416c1.169,0,2.484-.119,3.755-.234,1.173-.106,2.281-.206,3.21-.206a5.476,5.476,0,0,1,2.056.3c3.141,1.278,4.688,4.85,5.93,7.721a24.779,24.779,0,0,0,1.3,2.716,2.674,2.674,0,0,0,.646.81c.71-.034,2.958-.289,6.55-.8,3.481-.5,5.983-.926,6.391-1.049a7.9,7.9,0,0,0,2.878-2.409c1.016-1.142,1.893-2.128,3.107-2.229.077-.006.154-.01.231-.01,1.516,0,2.985,1.212,4.541,2.5a10.708,10.708,0,0,0,3.2,2.124,2.97,2.97,0,0,0,.611.06,9.145,9.145,0,0,0,2.546-.542,9.887,9.887,0,0,1,2.879-.589,4.552,4.552,0,0,1,.457.023c.792.081,2.411.206,4.46.365,3.234.251,7.664.595,11.264.957,2.007.2,3.53.387,4.658.563,1.963.307,2.652.569,3.07,1.167,2.285,3.262,1.5,8.1.867,11.986a25.726,25.726,0,0,0-.474,4.123c.123.054.269.111.383.156a4.054,4.054,0,0,1,2.56,2.088,59.236,59.236,0,0,1,2.765,8.053c.493,2.131.457,3.576-.117,4.688-.839,1.624-2.526,2.029-4.312,2.457a15.062,15.062,0,0,0-6.535,2.935c-2.277,1.833-2.876,5.1-3.357,7.72a10.219,10.219,0,0,1-1.219,3.97c-.405.567-2.28,2.15-10.03,8.465-2.632,2.145-5.118,4.171-6.154,5.065a22.65,22.65,0,0,1-5.177,3.111c-1.995.963-3.878,1.872-5.065,3.406-1.325,1.712-1.74,4.137-1.309,7.632l.292,2.363-5.076-1.7.006.014c.761,1.666,1.624,3.554.649,5.072a2.793,2.793,0,0,1-1.557,1.147,18.824,18.824,0,0,0,3.461,3.474,6.264,6.264,0,0,0,3.691,1.407c2.39,0,4.636-1.926,6.808-3.789s4.391-3.766,6.99-3.949c.06,0,.12-.006.18-.006.7,0,2.027.3,3.074,2.321a10.85,10.85,0,0,1,1.1,4.4,7.567,7.567,0,0,1-1.126,4.6c-1.455,2.063-4.057,2.3-5.887,2.3-.839,0-1.674-.053-2.483-.1-.714-.046-1.389-.089-1.983-.089a4.769,4.769,0,0,0-1.3.127c-.129.327-.3.969-.432,1.46-.465,1.741-1.043,3.909-2.413,5.267a7.906,7.906,0,0,1-4.179,1.848,5.644,5.644,0,0,0-1.582.471,17.033,17.033,0,0,0-1.483,2.626c-1.781,3.527-4.221,8.358-8.121,8.358a5.266,5.266,0,0,1-2.913-.945,11.128,11.128,0,0,1-2.7-2.682,15.957,15.957,0,0,1-2.61-5.9,6.388,6.388,0,0,0-1.266-2.956c-.716-.685-2.108-1.018-4.256-1.018a42.92,42.92,0,0,0-6.256.581l-1.54.234-.176-1.547a11.672,11.672,0,0,1,1.784-8.078,24.608,24.608,0,0,1,5.057-5.111c.468-.389.942-.782,1.409-1.185a49.273,49.273,0,0,0-5.692,1.238,34.021,34.021,0,0,1-8.728,1.451,20.7,20.7,0,0,1-7.041-1.256l-2.226-.792,1.664-1.678c.741-.747.913-1.251.848-1.408-.057-.136-.35-.436-1.091-.7a8.713,8.713,0,0,0-2.849-.431,10.735,10.735,0,0,0-1.427.094c-1.786.24-3.274,1.295-4.683,3.319a37.352,37.352,0,0,0-3.39,6.845c-.678,1.632-1.319,3.174-2.041,4.513a13.061,13.061,0,0,1-3.247,3.561,8.2,8.2,0,0,0-1.886,1.927c-1,2.125-.438,4.214.212,6.632.621,2.309,1.325,4.926.521,7.751-.641,2.254-2.618,3.9-4.531,5.483-1.6,1.329-3.257,2.7-3.69,4.161-.759,2.553-.492,5.911-.235,9.159.288,3.626.559,7.05-.419,9.834a9.706,9.706,0,0,1-1.594,2.849c-.961,1.289-2.156,2.893-3.785,9.241a15.136,15.136,0,0,1-1.81,3.821,12.346,12.346,0,0,0-1.354,2.726c.163.062.349.126.5.176a5.071,5.071,0,0,1,2.792,1.746,61.66,61.66,0,0,1,3.191,5.588c1.349,2.58,2.514,4.808,4.182,6.327,1.774,1.615,4.012,2.335,7.256,2.335a27.768,27.768,0,0,0,3.474-.241l1.505-.192.175,1.507a9.4,9.4,0,0,1-.407,4.534,5.857,5.857,0,0,1-2.409,2.887c-1.9,1.191-4.455,1.5-7.159,1.828-3.275.4-6.661.807-9.3,2.721-2.071,1.506-5.061,5.216-7.953,8.8a76.167,76.167,0,0,1-7.864,8.88l-1.144.987-.979-1.152c-1.743-2.051-2.394-3.854-2.049-5.672a8.626,8.626,0,0,1,1.6-3.308,51.123,51.123,0,0,0-13.817-2.22,25.46,25.46,0,0,0-10.571,2.09,24.012,24.012,0,0,0-7.963,5.871l9.505,4.757L478.047,560l2.717,6.981-3.852-2.434c-.485-.306-.864-.519-1.155-.665a2.393,2.393,0,0,1-.694,2.294,3.447,3.447,0,0,1-5.262-.781,15.906,15.906,0,0,1-1.49-2.482,9.414,9.414,0,0,0-.87-1.486,7.051,7.051,0,0,0-2.52-1.036,8.35,8.35,0,0,1-2.785-1.138,3.612,3.612,0,0,1-1.22-1.539,11.588,11.588,0,0,0,.537,6.008c.829,2.008,2.372,3.467,4.157,5.157a32.963,32.963,0,0,1,4.549,4.991A12.622,12.622,0,0,1,472,579.034a8.655,8.655,0,0,0,.847,2.852c1.129,1.724,3.385,2.122,5.773,2.544a13.77,13.77,0,0,1,5.152,1.612,16.8,16.8,0,0,1,3.515,3.93c1.864,2.505,4.184,5.623,6.8,6.437l14.188,4.412-21.95-2.208-.03,7.162-12.725-1.812a2.668,2.668,0,0,0,.38.84,15.5,15.5,0,0,0,2.546,2.69c1.553,1.415,3.019,2.751,3.094,4.376a2.791,2.791,0,0,1-.77,2.038,4.625,4.625,0,0,1-3.5,1.636,9.558,9.558,0,0,1-4.311-1.452c-.187-.1-.375-.2-.561-.294l.03.052a43.467,43.467,0,0,1,2.3,4.811,48.666,48.666,0,0,1,2.916,9.085,2.466,2.466,0,0,1-.46,2.165l-.544.543-.759-.125a16.931,16.931,0,0,1-6.495-2.381,6.03,6.03,0,0,0-.947-.5,3.419,3.419,0,0,0-.917.811c-.585.639-1.353,1.614-2.568,3.261l-1.915,2.595-.751-3.136a39.61,39.61,0,0,0-1.6-5.4,5.426,5.426,0,0,0-.772-1.444,8.838,8.838,0,0,0-.887.65,7.578,7.578,0,0,1-3.3,1.767,6.163,6.163,0,0,1-1.127.11,4,4,0,0,1-2.893-1.117,5.259,5.259,0,0,1-1.347-2.464,21.908,21.908,0,0,1-.448-5.491c0-.9,0-1.742-.052-2.436a3.187,3.187,0,0,0-.218-1.165,9.2,9.2,0,0,0-2.956-2.444c-2.023-1.29-4.317-2.752-4.425-5.4-.088-2.141,1.352-4.508,4.587-7.445-5.526-.4-8.283-3.662-11.044-9.047l-.579-1.129,1.031-.769a11.3,11.3,0,0,1-5.133-3.4,43.975,43.975,0,0,1-5.046-7.338,36.885,36.885,0,0,0-4.725-6.824,7.442,7.442,0,0,0-2.692-1.281c-2.114-.72-4.746-1.617-5.72-4.557-1.144-3.447-1.019-9.442-.712-13.865a93.549,93.549,0,0,1,1.741-12.862,92.7,92.7,0,0,1-10.465-7.572,86.358,86.358,0,0,0-10.809-7.745,15.826,15.826,0,0,0-4.9-1.51,14.612,14.612,0,0,1-4.692-1.45c-1.28-.751-1.468-2.284-1.634-3.637-.222-1.814-.442-2.951-1.619-3.444a2.3,2.3,0,0,0-.9-.189,5.366,5.366,0,0,0-1.995.569,6.259,6.259,0,0,1-2.442.657c-.056,0-.112,0-.167,0-.5-.025-1.031-.18-3.736-2.043-1.558-1.073-3.539-2.514-5.579-4.058-2.11-1.6-4.108-3.174-5.625-4.44a17.954,17.954,0,0,1-3.389-3.242c-1.158-1.762-2.977-6.491-4.9-11.5-.933-2.425-1.9-4.932-2.711-6.883a22.587,22.587,0,0,0-1.622-3.425,3.94,3.94,0,0,0-1.44-.364c-.327,0-.511.07-.738.484a9.137,9.137,0,0,0-.658,2.28,8.09,8.09,0,0,1-1.147,3.243,4.825,4.825,0,0,1-3.764,2.288,3.931,3.931,0,0,1-2.8-1.275,8.816,8.816,0,0,1-1.725-2.635,20.5,20.5,0,0,1-1.6-7.835,15.587,15.587,0,0,1,.5-4.252l-13.045,2.6c.968,3.537.492,7.644.029,11.635-.446,3.847-.867,7.481.2,9.617a8.651,8.651,0,0,0,2.385,2.29c1.346,1.035,3.028,2.169,4.809,3.369,3.864,2.605,7.859,5.3,9.389,7.663a29.617,29.617,0,0,1,3.41,8.67c1.25,4.58,2.543,9.315,7.805,14.142a27.154,27.154,0,0,0,5.623,4.191,7.471,7.471,0,0,0,3.464.967,10.454,10.454,0,0,0,3.192-.665,14.676,14.676,0,0,1,4.631-.881,11.42,11.42,0,0,1,2.057.189c.6.108,2.417.438,3.1,1.932.7,1.533-.2,3.086-1.083,4.588-.674,1.151-1.438,2.456-1.05,3.079,1,1.607,5.553,3.326,9.955,4.988,4.792,1.81,10.224,3.86,14.866,6.817a26.661,26.661,0,0,1,6.246,5.309,17.129,17.129,0,0,1,3.682,7.321c.695,3.133.654,4.815-.142,5.806a2.112,2.112,0,0,1-1.678.8c-1.124,0-2.361-.8-4.136-2.675-1.206-1.274-2.418-2.794-3.219-3.8-.265-.332-.558-.7-.71-.878a24.85,24.85,0,0,0-4.615-1.607,27.624,27.624,0,0,0-6.419-1.043,3.46,3.46,0,0,0-1.51.21,15.67,15.67,0,0,0-2.936,4.387,5.2,5.2,0,0,0-.365,2.954c.354,1.83,1.893,3.464,3.522,5.193a22.275,22.275,0,0,1,3.859,4.971,10.078,10.078,0,0,1,.8,7.292,3.678,3.678,0,0,1-2.423,2.532,14.284,14.284,0,0,1-2.9.7,9.835,9.835,0,0,0-1.891.433,2.547,2.547,0,0,0-.1.817,18.463,18.463,0,0,0,.144,2.015,12.252,12.252,0,0,1,0,3.963c-.359,1.519-1.76,2.294-3.115,3.043a7.926,7.926,0,0,0-2.343,1.666,12.844,12.844,0,0,0-1.371,4.127c-.27,1.254-.381,1.773-.955,2.175a4.077,4.077,0,0,1-2.386.645,8.816,8.816,0,0,1-3.992-1.044,5.417,5.417,0,0,1-2.887-3.253c-.826-3.194,1.5-7.326,3.757-11.323,1.3-2.3,2.762-4.9,2.806-6.174-.162-.7-1.318-3.973-3.222-8.88-1.858-4.789-3.193-7.948-3.587-8.683a21.152,21.152,0,0,0-3.339-1.237c-3.431-1.09-5.745-1.918-6.611-3.434-.934-1.636-.7-3.9-.522-5.559.015-.147.033-.311.048-.474-.352.017-.756.042-1.174.068-.962.06-2.052.129-3.052.129a10.355,10.355,0,0,1-2.267-.2c-1.346-.312-2.641-1.949-5.273-5.612-.722-1-1.469-2.044-2.112-2.851a6.466,6.466,0,0,0-1.268-1.36,11.311,11.311,0,0,0-4.324-.779,15.724,15.724,0,0,1-7.432-1.793c-.273-.154-.839-.472-5.6-5.092-2.784-2.7-6.312-6.209-9.932-9.87-3.754-3.8-7.237-7.388-9.809-10.114-4.639-4.916-4.988-5.6-5.155-5.927-1.257-2.46-2.193-6.375-3.1-10.161-.932-3.9-2.089-8.739-3.368-10.121-.45-.334-2.832-1.812-6.055-3.715-3.409-2.013-5.656-3.258-6.223-3.508a10.553,10.553,0,0,0-1.445-.107c-2.888,0-4.2,1.471-5.858,3.333a14.981,14.981,0,0,1-4.156,3.588,20.357,20.357,0,0,1-6.7,1.9,17.007,17.007,0,0,0-4.562,1.128,27.557,27.557,0,0,0-5.624,4.07c-3.145,2.67-6.4,5.43-10.232,5.677-.1.007-.206.01-.313.01-2.594,0-6.778-2.068-11.624-4.462-5.209-2.574-11.113-5.491-15.2-5.856-.016,0-.051,0-.108,0a28.037,28.037,0,0,0-6.283,1.538,26.082,26.082,0,0,0-5.361,2.229,4.384,4.384,0,0,0-1.451,3.391,24.644,24.644,0,0,0,.553,5.194,20.51,20.51,0,0,1,.493,5.8,13.107,13.107,0,0,1-3.39,7.3,21.576,21.576,0,0,1-6.674,4.764c-5.066,2.476-11.376,3.958-16.943,5.265a76.694,76.694,0,0,0-10.248,2.858c-2.022,2.963-5.608,6-9.4,9.207a77.876,77.876,0,0,0-9.116,8.557c-2.548,3.039-3.617,5.633-3.267,7.932a4.419,4.419,0,0,0,1.448,3.03,3.334,3.334,0,0,0,1.662.54,1.905,1.905,0,0,1,1.58.825,3.92,3.92,0,0,1,.472,3.2c-.816,2.8-4.667,4.7-8.065,6.372a21.115,21.115,0,0,0-3.336,1.85,21.719,21.719,0,0,0-3.342,4.506c-1.68,2.674-3.417,5.439-5.786,6.479a15.492,15.492,0,0,1-6.379,1l-1.1,0a11.456,11.456,0,0,0-4.9.732c-.867.414-1.611,1.81-2.33,3.159-1.022,1.919-2.181,4.093-4.369,4.754a13.746,13.746,0,0,1-3.959.531c-5.032,0-11.061-2.058-16.892-4.048-4.947-1.689-9.62-3.284-12.94-3.347h-.032c-.811,0-3.6.356-6.793.865a61.96,61.96,0,0,0-6.432,1.242,8.013,8.013,0,0,0-2.722,2.086c-1.348,1.36-2.875,2.9-5.4,2.9a6.862,6.862,0,0,1-1.681-.221,9.774,9.774,0,0,1-6.666-5.7,35.828,35.828,0,0,1-2.339-8.607,40.725,40.725,0,0,0-1.871-7.464,8.991,8.991,0,0,0-3.933-4.858,10.98,10.98,0,0,0-5.684-1.451c-.752,0-1.487.048-2.264.1s-1.592.1-2.424.1a13.921,13.921,0,0,1-3.432-.39,31.129,31.129,0,0,1-5.89-2.385c-2.86-1.383-5.818-2.814-8.824-2.814H.949l-2.823.021L-.311,564.2c1.042-1.567,3.952-6.712,6.488-11.915,3.237-6.641,3.984-9.483,4.139-10.6H10.16c-.9,0-3.641,0-5.365-2.124a6.614,6.614,0,0,1-1.345-3.414,15.9,15.9,0,0,1,.358-5.124c1.14-5.431,4.538-8.038,7.536-10.338a19.661,19.661,0,0,0,4.069-3.752,111.379,111.379,0,0,0,7.9-12.348A75.321,75.321,0,0,0,28.8,492.068a66.085,66.085,0,0,0,2.91-27.563c-.253-2.624.187-4.518,1.344-5.792a5.509,5.509,0,0,1,4.277-1.62,23.715,23.715,0,0,1,5.3.857,16.858,16.858,0,0,0,3.169.585,1.794,1.794,0,0,0,.212-.011,5.809,5.809,0,0,0,.7-1.445c.493-1.262,1.168-2.991,2.907-3.454a12.3,12.3,0,0,1,3.149-.443c3.9,0,6.223,2.259,8.276,4.252a14.036,14.036,0,0,0,3.871,2.992c6.737,3,17.095,6,27.112,8.915,5.8,1.686,11.284,3.278,15.733,4.778,1.487.5,3.561,1.4,5.963,2.436,5.771,2.494,13.674,5.91,18.426,5.91a4.637,4.637,0,0,0,2.419-.513,5,5,0,0,0,1.236-1.783,39.367,39.367,0,0,0,1.85-4.279c1.3-3.44,2.637-7.691,3.93-11.8,1.822-5.8,3.4-10.8,4.64-12.836a6.044,6.044,0,0,1,2.876-2.587c-1-.92-2.11-1.964-2.329-3.292-.279-1.693.771-3.055,1.7-4.257,1.153-1.5,1.829-2.5,1.5-3.849-.259-1.063-1.829-2.632-3.348-4.149-2.21-2.208-4.715-4.71-5.921-7.857a10.027,10.027,0,0,1-.541-5.442,13.182,13.182,0,0,1,2.2-5.056c-2.586-2.444-7.47-5.381-12.209-8.232-5.851-3.519-10.9-6.559-12.623-9.107-.84-1.246-.688-3.29-.5-5.878.17-2.286.381-5.131-.355-6.366l-.515-.864.6-.8c.634-.846,1.963-1.313,4.585-1.614a63.486,63.486,0,0,1,6.737-.313c4.038,0,9.152.277,10.841.885a7.358,7.358,0,0,1,4.056,3.74c.529.915.832,1.4,1.424,1.618a21.783,21.783,0,0,0,5.261.749,35.956,35.956,0,0,1,5.8.72c-.135-2.28-.7-5.972-1.106-8.643-.267-1.753-.52-3.408-.668-4.659-.227-1.922-.254-2.831.439-3.465a3.8,3.8,0,0,1,2.615-1.016c2.51,0,5.309,2.235,8.551,4.823C169,379.3,173.2,382.65,177,382.65a5.865,5.865,0,0,0,2.943-.779l-1.987-5.855,1.711-.311c.785-.143,1.722-.287,2.714-.44,2.182-.337,4.9-.755,7.277-1.36,2.567-.653,4.317-1.412,5.2-2.255,1.261-1.2,1.731-3.292,2.228-5.5.581-2.583,1.182-5.253,3.2-6.936,1.425-1.188,5.914-2.665,9.639-3.651a57.324,57.324,0,0,1,13.417-2.149,15.533,15.533,0,0,1,2.588.191c-.177-.474-.385-.968-.588-1.45a20.017,20.017,0,0,1-.728-1.887,2.468,2.468,0,0,1,.361-2.5,3.017,3.017,0,0,1,2.156-.988c1.6,0,2.653,1.353,3.674,2.661a8.508,8.508,0,0,0,1.826,1.931c-.158-.168-.327-.338-.495-.507-1.066-1.072-2.527-2.54-2.145-4.731.122-.7.694-1.65,6.044-9.339,2.4-3.445,4.876-7.008,5.529-8.193l.463-.84.957.067a1.756,1.756,0,0,1,1.242.646c.762.925.612,2.442.2,5.785-.157,1.274-.32,2.591-.375,3.717a11.615,11.615,0,0,0,0,1.262c.119-.1.257-.223.415-.375,1.352-1.3,1.5-4.193,1.645-6.994a27.162,27.162,0,0,1,.672-5.607,6.539,6.539,0,0,1,3.409-4.5,11.6,11.6,0,0,1,5.191-1.2,21.219,21.219,0,0,1,5.01.753,14.606,14.606,0,0,0,3.1.527,3.824,3.824,0,0,0,.538-.035c.341-.048,1.067-.8,1.6-1.356,1.413-1.471,3.349-3.486,6.614-3.486a8.2,8.2,0,0,1,.922.053,5.7,5.7,0,0,1,3.755,1.811,7.863,7.863,0,0,1,1.416,2.572c.088.23.2.521.291.707.593.107,1.764.276,2.693.378-.018-.2-.039-.4-.057-.578a10.784,10.784,0,0,1,.1-4.1,3.478,3.478,0,0,1,2.493-2.21,2.63,2.63,0,0,0,.829-.389,1.39,1.39,0,0,0,.213-.865c.073-6.523-1.326-13.319-2.679-19.892-.892-4.331-1.814-8.81-2.282-13.1a40,40,0,0,1,.37-12.7c.994-4.666,2.257-7.562,4.094-9.392,1.769-1.762,3.787-2.258,5.924-2.784a19.409,19.409,0,0,0,5.765-2.155,13.285,13.285,0,0,0,1.717-1.817,31.264,31.264,0,0,1,3.527-3.67,10.091,10.091,0,0,1,5.167-2.516l1.022-.135.493.906a10.469,10.469,0,0,1,1.107,6.984,28.263,28.263,0,0,1-2.056,6.168c-1.293,3.072-2.517,5.979-1.8,8.9a11.9,11.9,0,0,0,1.3.169,12.73,12.73,0,0,1,2.243.35,3.6,3.6,0,0,1,2.278,1.631c.659,1.164.529,2.672-.4,4.612-1.029,2.149-3.419,2.744-5.34,3.222-.576.143-1.128.281-1.586.442l-3.432,6.063a13.085,13.085,0,0,1,3.817-.672,5.481,5.481,0,0,1,5.087,2.884q.183.313.345.651a5.827,5.827,0,0,1,.5-3.837,9.582,9.582,0,0,1,4.269-3.936,28.28,28.28,0,0,1,4.882-1.8,12.735,12.735,0,0,0,3.29-1.253c2.445-1.852,3.772-3.448,3.945-4.742s-.726-2.523-2.2-4.44a20.322,20.322,0,0,1-3.4-5.663c-4.255-12.056-5.628-22.518-7.081-33.595-.2-1.5-.4-3.055-.612-4.614-.2-.07-.5-.141-.7-.189a2.835,2.835,0,0,1-2.108-1.238,5.8,5.8,0,0,1-.332-.766q-.05.155-.11.306c-.879,2.232-2.968,3.138-4.987,4.013a13,13,0,0,0-3.36,1.859c-1.368,1.187-2.784,2.622-4.283,4.14-4.886,4.95-10.423,10.56-17.452,10.773-.069,0-.14,0-.211,0a15.3,15.3,0,0,1-6.957-2.3,31.979,31.979,0,0,1-6.816-5.315c-1.908-1.962-5.091-5.826-4.983-9.654.12-4.194,2.369-5.756,4.011-6.9,1.011-.7,1.729-1.2,2.03-2.157l-8.367-1.076,1.78-2.1a19.721,19.721,0,0,0,4.142-9.287,44.585,44.585,0,0,0,.579-10.354c-.127-.034-.262-.067-.372-.094a7.652,7.652,0,0,1-1.488-.477,2.467,2.467,0,0,1-1.49-1.814c-.448-2.515.266-5.767,1.021-9.21.86-3.917,1.749-7.967.886-10.724l-.6-1.931,5.108-.042a21.5,21.5,0,0,1-.895-2.637,4.031,4.031,0,0,1,.2-3.194,3.369,3.369,0,0,1,3.052-1.214c.172,0,.345,0,.527.005s.374.005.566.005a6.116,6.116,0,0,0,3.288-.729,43.474,43.474,0,0,0,3.784-4.4c2.549-3.174,5.184-6.456,7.022-7.7a49.485,49.485,0,0,1,12.374-5.657,1.774,1.774,0,0,1-.47-.4,2,2,0,0,1-.147-2.258,9.52,9.52,0,0,1,1.635-2.211c1.3-1.366,1.861-1.48,2.322-1.48.87,0,1.364.62,1.885,1.277a5.9,5.9,0,0,0,.977,1.05c.109.01.227.015.353.015a13.132,13.132,0,0,0,1.86-.194,12.139,12.139,0,0,1,1.741-.182,3.827,3.827,0,0,1,.568.04,9.137,9.137,0,0,1-.221-3.949,11.619,11.619,0,0,1,2.224-4.978,25.075,25.075,0,0,1,5.67-5.326,12.942,12.942,0,0,1,5.382-1.792l-.034-.1c-.471-1.353-1.057-3.037-.461-4.519a8.29,8.29,0,0,1,2.586-2.9,9.856,9.856,0,0,0,2.534-2.674,148.164,148.164,0,0,0,5.977-14.7c2.014-5.482,3.917-10.661,5.928-14.25a11.3,11.3,0,0,1,5.159-4.353,8.271,8.271,0,0,0,1.338-.778,8.705,8.705,0,0,0,.683-3.151A11.277,11.277,0,0,1,346.2,73.4a3.434,3.434,0,0,1,3.339-2.163,7.642,7.642,0,0,1,2.607.541l0-1.238-3.548.6-.524-2.954a5.592,5.592,0,0,0,2.783-2.039,29.545,29.545,0,0,0,2.512-3.59,6.62,6.62,0,0,1,1.491-1.968,2.379,2.379,0,0,1,1.361-.423,4.461,4.461,0,0,1,2.14.731,4.826,4.826,0,0,0,.9.424,4.132,4.132,0,0,0,.772-1.759,27.884,27.884,0,0,0,.715-4.052L345.72,63.852l-.57-1.717a4.667,4.667,0,0,1,.216-3.855,6.706,6.706,0,0,1,4.136-2.83c-.438-.228-.93-.453-1.408-.671a17.415,17.415,0,0,1-1.764-.88,3.248,3.248,0,0,1-.821-.674,1.8,1.8,0,0,1-.325-1.862c1.555-3.8,4.152-4.6,6.057-4.6a8.71,8.71,0,0,1,2.377.361c-.567-3.314-.831-6.334.82-7.831a4.685,4.685,0,0,1,3-1.524,2.28,2.28,0,0,1,1.788.846c.748.907.955,2.39.69,4.957-.185,1.791-.578,3.816-.866,5.295-.04.207-.083.428-.125.645,1.31.041,2.508.194,3.583.331a20.734,20.734,0,0,0,2.419.224c.954,0,1.15-.225,1.223-.31.259-.3.606-1.184.386-3.806l-4.452,1.486-.658-.708c-1.142-1.229-.476-3.2.125-4.582A25.989,25.989,0,0,1,364.669,37c2.117-2.739,3.267-3.09,4.032-3.09h.015c.83.005,1.477.565,2.549,1.491a20.306,20.306,0,0,0,1.782,1.428,4.973,4.973,0,0,0,.66.386,9.332,9.332,0,0,1,1.828-4.194,5.124,5.124,0,0,1,3.877-1.86,8.185,8.185,0,0,1,1.133.095l.133.018.05-.12a17.757,17.757,0,0,1,.924-1.985c.246-.43.995-1.738,2.329-1.738.674,0,1.609.328,2.231,1.9A9.767,9.767,0,0,1,386.6,30.6a8.481,8.481,0,0,1,1.573-2.552,10.546,10.546,0,0,1,2.892-2.113c.753-.412,1.09-.617,1.156-.852.087-.309.079-1.183-.951-3.571l-.733-1.7,1.813-.367a6.234,6.234,0,0,1,1.244-.115,21.141,21.141,0,0,1,4.391.684,19.193,19.193,0,0,0,3.71.608,2.474,2.474,0,0,0,.88-.123,6.279,6.279,0,0,1-1.66-1.034,3.027,3.027,0,0,1-.792-3.5,7.213,7.213,0,0,1,1.813-2.215c1.675-1.47,2.594-1.47,2.9-1.47a1.964,1.964,0,0,1,.847.186l.7.334.132.768c.071.411.141.753.207,1.037.187-.411.41-.958.669-1.684.548-1.538,1.041-3.271,1.4-4.536.473-1.664.559-1.964.841-2.3a3.457,3.457,0,0,1,2.588-.9c.658-.052,1.759-.14,2.014-.479a1.691,1.691,0,0,0,.024-1.169Zm39.076,13.65a36.078,36.078,0,0,0-3.481-1.068c-2.028-.555-4.552-1.194-7.225-1.871C435.8,5.313,431.8,4.285,429.4,3.5a29.266,29.266,0,0,1-.624,5.731,7.425,7.425,0,0,1-1.245,2.807,3.644,3.644,0,0,1-2.949,1.5h-.017l-1.585-.007.094-1.582c.083-1.386.162-2.716.14-3.5-.481.18-1.14.471-1.747.739-.48.212-1.024.451-1.631.71l-1.146.487L416.341,6.85a5.935,5.935,0,0,1-3.877,1.322c-.154.012-.336.027-.5.043-.085.287-.188.649-.284.987-.408,1.434-1.024,3.6-1.707,5.39-.8,2.108-1.779,4.058-3.454,4.058a2.363,2.363,0,0,1-2.15-1.627,7.432,7.432,0,0,1-.393-1.075l-.124.109a5.942,5.942,0,0,0-.942,1.02.6.6,0,0,0-.028.109,1.373,1.373,0,0,0,.38.3,9.475,9.475,0,0,0,1.108.526,8.926,8.926,0,0,1,1.174.565,2.086,2.086,0,0,1,1.134,1.762c.029,1.407-1.406,2.208-2.754,2.848a5.115,5.115,0,0,1-2.228.439,21.068,21.068,0,0,1-4.37-.681c-.849-.191-1.716-.387-2.5-.5a6.059,6.059,0,0,1,.282,3.458,4.51,4.51,0,0,1-2.6,2.67,7.793,7.793,0,0,0-2.137,1.526,6.446,6.446,0,0,0-1.162,2.055,6.771,6.771,0,0,1-.849,1.635,2.735,2.735,0,0,1-2.227,1.1,3.816,3.816,0,0,1-.914-.118l-.989-.242-.14-1.009c-.108-.779-.217-1.382-.317-1.848-.112.256-.209.489-.272.642-.378.912-.568,1.37-1.108,1.674a2.692,2.692,0,0,1-1.353.332,6.541,6.541,0,0,1-.9-.079,5.53,5.53,0,0,0-.729-.068,2.1,2.1,0,0,0-1.672.894,7.908,7.908,0,0,0-1.177,3.138c-.165.76-.273,1.263-.8,1.641a2.757,2.757,0,0,1-1.632.521c-1.728,0-3.449-1.488-4.832-2.684-.21-.181-.463-.4-.676-.574a16.7,16.7,0,0,0-2.837,3.525,19.165,19.165,0,0,0-1.58,2.946l4.841-1.616.251,1.784c.593,4.2.328,6.595-.886,7.991a4.384,4.384,0,0,1-3.488,1.342c-.3,0-.617-.015-.942-.04a32.941,32.941,0,0,1-1.411,8.384,5.443,5.443,0,0,1-1.264,2.081,2.88,2.88,0,0,1-2.009.824,5,5,0,0,1-2.4-.8c-.132-.073-.3-.167-.449-.24-.162.246-.367.575-.546.861-.553.886-1.243,1.995-2.064,3.069l1.29-.217.013,9.565-2.191-1.131a8.346,8.346,0,0,0-3.422-1.191c-.378,0-.462.076-.6.379a9.509,9.509,0,0,0-.44,2.438,10.616,10.616,0,0,1-1.118,4.427,5.885,5.885,0,0,1-2.512,1.862,8.726,8.726,0,0,0-3.916,3.153c-1.895,3.381-3.757,8.451-5.729,13.818a150.2,150.2,0,0,1-6.113,15.012,12.134,12.134,0,0,1-3.291,3.628,7.7,7.7,0,0,0-1.727,1.716,1.61,1.61,0,0,0,.032.819,12.831,12.831,0,0,0,.479,1.593,12.011,12.011,0,0,1,.4,1.288,2.091,2.091,0,0,1-.443,2.036c-.435.441-.946.518-1.963.672a11.4,11.4,0,0,0-4.431,1.32c-3.988,2.845-6.234,5.654-6.676,8.348-.449,2.738,1.1,4.88,2.023,6.16a9.722,9.722,0,0,1,.614.913,1.746,1.746,0,0,1-.176,2.2,3.813,3.813,0,0,1-2.687,1.352c-.823,0-1.98-.37-2.816-2.13a11.187,11.187,0,0,1-.69-2.041c-.257.028-.558.073-.869.12a15.563,15.563,0,0,1-2.307.227,6.776,6.776,0,0,1-.757-.04l-.08-.01a4.007,4.007,0,0,1-.039,1.785l-.2.927-.925.212a54.976,54.976,0,0,0-7.951,2.526,39.715,39.715,0,0,0-7.289,3.742c-1.465.994-4.183,4.379-6.368,7.1-2.384,2.969-3.67,4.543-4.566,5.086a8.944,8.944,0,0,1-4.845,1.165c-.213,0-.414,0-.608-.006-.171,0-.333,0-.484,0-.206,0-.359.005-.472.013a6.28,6.28,0,0,0,.242,1.079,34.019,34.019,0,0,0,1.5,3.825l.929,2.09-5.8.048c.359,3.141-.44,6.785-1.218,10.329-.654,2.978-1.273,5.8-1.044,7.727.218.079.558.162.784.217a7.089,7.089,0,0,1,1.29.4,2.082,2.082,0,0,1,1.337,1.817,48.647,48.647,0,0,1-.6,11.706,26.836,26.836,0,0,1-1.693,5.612,21.172,21.172,0,0,1-1.54,2.915l5.868.755.021,1.3c.056,3.493-1.9,4.853-3.475,5.945-1.479,1.027-2.647,1.838-2.724,4.517-.056,1.991,1.451,4.716,4.135,7.478a28.9,28.9,0,0,0,6.157,4.8,12.177,12.177,0,0,0,5.465,1.9l.12,0a14.525,14.525,0,0,0,8.022-3.16,61.444,61.444,0,0,0,7.386-6.722c1.541-1.561,3-3.035,4.451-4.3a15.477,15.477,0,0,1,4.133-2.345c1.839-.8,2.987-1.338,3.39-2.361.411-1.044.1-2.769-.929-5.127l-.741-1.7,1.819-.368a9.789,9.789,0,0,1,1.925-.223,3.444,3.444,0,0,1,2.589.939c.964,1,.913,2.362.865,3.679a7.272,7.272,0,0,0,.207,2.607c.1.026.211.052.3.073a6.963,6.963,0,0,1,1.468.471,2.457,2.457,0,0,1,1.469,1.889c.229,1.683.449,3.355.661,4.972,1.432,10.916,2.785,21.227,6.935,32.987a17.689,17.689,0,0,0,2.95,4.83c1.547,2.007,3.147,4.082,2.8,6.669-.291,2.176-1.914,4.317-5.107,6.736a13.724,13.724,0,0,1-4.246,1.737c-2.818.838-6.013,1.788-7.369,4.289-.607,1.119-.1,3.2,1.439,5.87a52.76,52.76,0,0,0,4.882,6.734l.238.291a3.411,3.411,0,0,1,2.389-1.514,4.636,4.636,0,0,0,.56-.161,19.581,19.581,0,0,0,1.12-3.989c.565-2.716,1.15-5.524,3.636-7.663l3.148-2.708-1.272,7.537.423,0c1.686,0,3.916.086,6.072.17,2.088.081,4.06.157,5.49.157.3,0,.545,0,.746-.009l0-.1a21.856,21.856,0,0,1,.581-6.544,9.83,9.83,0,0,1,5.609-6.721,9.939,9.939,0,0,1,4.1-.837,19.83,19.83,0,0,1,3.759.448,12.786,12.786,0,0,0,2.1.29c.571,0,.716-.146.785-.216.294-.3.782-1.277.746-4.492l-.011-.969.878-.408a2.481,2.481,0,0,1,.561-.185l2.2-6.076c.921-2.538,1.223-12.466,1.443-19.715.088-2.907.172-5.652.282-7.707.174-3.236.356-3.971.726-4.483,1.269-1.754,4.423-3.176,7.473-4.551a23.591,23.591,0,0,0,4.587-2.4c.352-.632,1.705-3.779,3.463-8.193,1.828-4.59,2.946-7.666,3.116-8.357a7.085,7.085,0,0,0-2.961-5.514,28.561,28.561,0,0,0-6.438-3.527c-2.384-1.051-4.267-1.881-5.26-3.156-1.02-1.306-1.362-3.847-1.109-8.238.2-3.4.7-7.245,1.154-10.641.349-2.639.651-4.918.68-6.111a24.277,24.277,0,0,0-1.136-5.345c-.819-2.9-1.193-4.224-.539-5.187a1.533,1.533,0,0,1,1.272-.668,3.254,3.254,0,0,1,1.323.4,13.35,13.35,0,0,0,1.484.568c.565-.851,1.74-2.892,2.714-4.584a70.2,70.2,0,0,1,5.041-8.108,41.089,41.089,0,0,1,7.845-7.053,24.186,24.186,0,0,0,4.547-3.926,48.122,48.122,0,0,0,5.822-8.953,4.009,4.009,0,0,1,2.363-1.724,2.659,2.659,0,0,0,1.153-.632,2.472,2.472,0,0,0,.047-1.651l-.164-.042a5.849,5.849,0,0,1-2.283-.986,3.942,3.942,0,0,1-1.439-3.339c.105-7.06,2.484-11.368,5-15.928.863-1.563,1.755-3.179,2.592-4.968l.405-.867,1,0a46.6,46.6,0,0,0,6.046-.547,46.457,46.457,0,0,1,6.028-.545,12.527,12.527,0,0,1,6.26,1.424,11.678,11.678,0,0,1,4.862,5.67c1.5,3.3,1.9,5.829,1.219,7.726a6,6,0,0,1-3.095,3.191,5.555,5.555,0,0,0-.739.457c-3.735,8.125-5.987,12.949-8.725,17.445-2.935,4.819-6.51,9.313-11.694,15.449-3.06,3.621-4.467,6.847-4.427,10.15.036,2.982,1.248,5.817,2.531,8.818A36.166,36.166,0,0,1,408.3,177.7a28.339,28.339,0,0,1-.477,8.61c-.542,3.361-1.01,6.264.429,7.966a5.777,5.777,0,0,0,2.854,1.644,23.609,23.609,0,0,0,6.37.745l2.034.015-.614,1.939c-.327,1.032-.947,2.988-1.315,4.379a6.177,6.177,0,0,1,1.594-.222,5.225,5.225,0,0,1,1.271.156,7.794,7.794,0,0,1,2.5,1.2,3.394,3.394,0,0,0,2.1.794,5.383,5.383,0,0,0,.938-.093c.945-.254,7.719-3.377,18.9-8.88,9.713-4.783,17.753-8.913,18.7-9.608,1.622-1.187,3.956-4.091,6.574-8.178a133.315,133.315,0,0,0,7.713-14.05,109.912,109.912,0,0,0,5.887-14.711c1.807-5.932,1.694-8.668,1.441-9.806a5.981,5.981,0,0,0-1.3-1.052c-.818-.553-1.864-1.17-2.971-1.824-1.607-.949-3.269-1.93-4.673-2.959-1.82-1.334-2.844-2.5-3.223-3.674a17.325,17.325,0,0,1-.4-6.291,17.459,17.459,0,0,0-.255-5.525c-.179-.639-.828-1.947-2.9-4.551-1.5-1.885-3.3-3.875-4.607-5.328-1.957-2.17-2.283-2.555-2.451-3.057-.883-2.643-.682-5.672-.469-8.879.189-2.849.385-5.794-.273-8.284-.387-1.463-1.67-3.126-3.027-4.887-1.953-2.533-4.166-5.4-4.694-8.879a22.121,22.121,0,0,1,.54-7.294c.551-2.965,1.121-6.032.184-9.1-.659-2.157-2.288-2.975-4.89-4.133-2.387-1.061-5.092-2.264-6.491-5.341-1.493-3.283-1.162-8.012,1.042-14.883a17.914,17.914,0,0,1,5.137-7.679,24.006,24.006,0,0,0,2.168-2.356,7.921,7.921,0,0,1-1.974.293,3.237,3.237,0,0,1-2.452-.949,4.183,4.183,0,0,1-.866-1.564c-.041-.115-.1-.277-.143-.371a5.046,5.046,0,0,0-1.834-.26,3.727,3.727,0,0,1-3.05-1.027,3.1,3.1,0,0,1-.511-2.616l.256-1.515,1.508.292a.73.73,0,0,0,.131.009,11.487,11.487,0,0,0,4.729-1.929,11.912,11.912,0,0,0,4.142-3.806A1.32,1.32,0,0,0,451.757,9.581ZM356.5,46.206c.159-.893.307-1.821.406-2.7A12.414,12.414,0,0,0,357,41.066a7.027,7.027,0,0,0-.548.454s-.337.373-.255,2.1A23.119,23.119,0,0,0,356.5,46.206Zm-1.168,4.577a3.653,3.653,0,0,1-1.314-.345,8.1,8.1,0,0,0-2.779-.67,3.081,3.081,0,0,0-2.849,1.839c.307.151.665.315.948.444,1.786.815,3.634,1.658,4.084,3.151a2.268,2.268,0,0,1,.086.89l6.334-3.52c-.514-.04-1.042-.066-1.58-.066-.326,0-.648.009-.958.028l-.918.055-.465-.794a1.8,1.8,0,0,1-.222-1.052A1.687,1.687,0,0,1,355.333,50.783ZM472.774,210.4a9.435,9.435,0,0,0-2.482-.511,53.642,53.642,0,0,0-5.756-.25,156.852,156.852,0,0,0-20.278,1.409,27.7,27.7,0,0,0-9.81,4.861,17.044,17.044,0,0,0-3.845,3.941,6.034,6.034,0,0,0-1.138,3.27c.167.051.364.1.518.144.967.256,2.29.607,2.685,1.88a11.414,11.414,0,0,1,.1,3.426c-.041.876-.083,1.782-.064,2.568a6.866,6.866,0,0,0,.1,1.162,5.915,5.915,0,0,0,.729.037c.893,0,2.042-.112,3.154-.221,1.054-.1,2.05-.2,2.818-.2a2.823,2.823,0,0,1,2.037.593,2.974,2.974,0,0,1,.686,2.14c.041.637.056,1.5.047,2.639-.017,2.072-.111,4.71-.21,7.5-.168,4.711-.358,10.051-.093,11.612l.21,1.24L441,258.06a8.563,8.563,0,0,1-2.883.516c-4.3,0-7.534-3.426-10.392-6.448-2.213-2.34-4.3-4.551-6.23-4.551a2.6,2.6,0,0,0-.643.081c-1.686.425-3.834,3.044-5.748,7.005a36.414,36.414,0,0,0-3.283,10.074c-.477,4.1.227,8.049.908,11.865.632,3.544,1.23,6.891.9,10.222a15.1,15.1,0,0,1-1.385,5.078,16.518,16.518,0,0,1-3.551,4.82,8.344,8.344,0,0,1-4.333,1.869,6.76,6.76,0,0,0-1.35.356,6.521,6.521,0,0,0-.639,2.124,17.3,17.3,0,0,1-1.166,3.939,9.783,9.783,0,0,1-3.479,4.082c-3.046,2.069-5.066,2.992-6.549,2.992a2.723,2.723,0,0,1-2.1-.88c-1.079-1.2-.888-3.058-.685-5.029a18.411,18.411,0,0,0,.144-2.228,2.4,2.4,0,0,0-.133-.854,15.646,15.646,0,0,0-5.144-.891c-5.761,0-10.72,3.447-15.516,6.781a64.034,64.034,0,0,1-6.807,4.324,30.737,30.737,0,0,1-6.6,2.006c-2.912.676-6.212,1.442-7.424,2.554-.658.6-.669,1.265-.635,2.3a3.512,3.512,0,0,1-.73,2.762,3.136,3.136,0,0,1-2.381.839,8.944,8.944,0,0,1-1.2-.091c-.439-.06-1.6-.218-6.227-4.435-1.138-1.038-2.222-2.092-3.053-2.969-1.4-1.473-1.655-2-1.755-2.394l-1.329-1.166a6.5,6.5,0,0,0-4.281-1.9c-2.341,0-4.751,1.647-7.3,3.391-3,2.048-6.392,4.369-10.4,4.369a10.61,10.61,0,0,1-2.118-.215l-1.917-.391,3.212-6.415a11.6,11.6,0,0,1-4.96-1.112,11.753,11.753,0,0,1-3.811-2.962c-3.453-4-4.745-10.251-4.613-15.68l-.026.012.027-.047a28.441,28.441,0,0,1,.291-3.436l.224-1.51,1.505.25a5.358,5.358,0,0,1,.567.125l5.655-9.99.439-.2a14.466,14.466,0,0,1,2.538-.8c1.445-.36,2.94-.731,3.358-1.606.673-1.407.5-1.835.495-1.838s-.083-.109-.484-.223a10.441,10.441,0,0,0-1.709-.25,10.946,10.946,0,0,1-1.895-.286,2.509,2.509,0,0,1-1.912-1.688,11.408,11.408,0,0,1-.06-5.965,33.434,33.434,0,0,1,1.882-5.282,25.689,25.689,0,0,0,1.862-5.5,7.622,7.622,0,0,0-.314-4.026c-2.267.815-4.257,3.142-5.764,4.9a11.913,11.913,0,0,1-2.464,2.446,22.5,22.5,0,0,1-6.581,2.489c-1.942.478-3.345.823-4.524,2-1.381,1.376-2.423,3.883-3.277,7.891-1.6,7.505.109,15.8,1.917,24.577,1.385,6.728,2.818,13.684,2.741,20.531a3.905,3.905,0,0,1-3.036,4.046,3.779,3.779,0,0,0-.632.263,9.184,9.184,0,0,0,.018,2.917,5.794,5.794,0,0,1-.163,3.1,1.664,1.664,0,0,1-1.64.878,27.685,27.685,0,0,1-2.843-.277c-2.194-.3-2.366-.421-2.628-.6a4.3,4.3,0,0,1-1.439-2.224c-.483-1.265-.865-2.264-2.707-2.473a5.188,5.188,0,0,0-.583-.034c-1.987,0-3.239,1.3-4.451,2.565a6.179,6.179,0,0,1-3.34,2.248,6.886,6.886,0,0,1-.958.065,16.613,16.613,0,0,1-3.8-.609,18.57,18.57,0,0,0-4.314-.671,8.667,8.667,0,0,0-3.878.9c-2.06,1-2.225,4.189-2.4,7.561s-.355,6.882-2.563,9a4.539,4.539,0,0,1-3.006,1.62,2.2,2.2,0,0,1-1.665-.753c-1.11-1.256-.941-3.709-.474-7.567-.877,1.278-1.875,2.713-2.9,4.18-2.154,3.1-5.076,7.3-5.565,8.255-.03.551.42,1.071,1.33,1.985a6.2,6.2,0,0,1,2.115,3.375l.129.882-.712.535a4.446,4.446,0,0,1-2.676.989c-2.147,0-3.551-1.8-4.678-3.244-.128-.164-.283-.363-.445-.562l.111.264c.787,1.865,1.6,3.794,1.116,5.357l-.667,2.149-1.727-1.443c-.179-.15-.96-.638-3.486-.638a54.35,54.35,0,0,0-12.65,2.049c-4.872,1.289-7.894,2.562-8.485,3.054-1.235,1.031-1.7,3.1-2.193,5.291-.573,2.55-1.167,5.187-3.085,7.016-1.279,1.22-3.416,2.2-6.532,2.991-2.518.641-5.313,1.072-7.559,1.418l-.915.142,1.574,4.639-.85.655A9.1,9.1,0,0,1,177,385.65c-4.851,0-9.487-3.7-13.578-6.968-1.461-1.166-2.841-2.268-4.059-3.053a5.682,5.682,0,0,0-2.619-1.115,1.023,1.023,0,0,0-.185.016c.074,1.143.466,3.713.765,5.673.849,5.563,1.421,9.641,1.045,11.438L158,393.432l-1.683-.718a22.754,22.754,0,0,0-6.86-1.144,23.492,23.492,0,0,1-6.076-.923,5.768,5.768,0,0,1-3-2.936,4.439,4.439,0,0,0-2.475-2.419c-.949-.342-5.123-.708-9.824-.708-2.287,0-4.352.086-5.971.248a18.162,18.162,0,0,0-2.246.34,21.736,21.736,0,0,1,.155,6.6c-.075,1-.145,1.95-.142,2.724a3.449,3.449,0,0,0,.14,1.265c1.359,2,6.839,5.294,11.674,8.2,5.505,3.311,11.2,6.735,13.754,9.692l.81.937-.766.973a11.151,11.151,0,0,0-2.38,4.791,6.974,6.974,0,0,0,.389,3.835c.978,2.55,3.242,4.812,5.24,6.808,1.977,1.975,3.684,3.68,4.142,5.561.693,2.845-.886,4.894-2.039,6.39-.553.717-1.18,1.531-1.113,1.938a1.648,1.648,0,0,0,.373.555,14.348,14.348,0,0,0,1.069,1.055,11.322,11.322,0,0,1,1.359,1.4,2.308,2.308,0,0,1,.353,2.649,1.588,1.588,0,0,1-1.446.8c-.089,0-.172,0-.259-.009s-.179-.01-.275-.01c-.331,0-1.209,0-2.123,1.491-1.051,1.717-2.721,7.031-4.336,12.169-1.305,4.152-2.655,8.445-3.986,11.964-2.119,5.6-3.364,6.959-4.3,7.545a7.4,7.4,0,0,1-4.009.969,30.877,30.877,0,0,1-9.666-2.133c-3.425-1.2-6.892-2.7-9.95-4.023-2.34-1.012-4.361-1.885-5.731-2.346-4.39-1.479-9.841-3.063-15.612-4.74-10.113-2.938-20.57-5.977-27.493-9.054a16.512,16.512,0,0,1-4.741-3.581c-1.882-1.827-3.507-3.4-6.187-3.4a9.312,9.312,0,0,0-2.376.342c-.271.072-.686,1.136-.886,1.647a10,10,0,0,1-.857,1.822,3.093,3.093,0,0,1-2.126,1.488,4.533,4.533,0,0,1-.728.055,18.238,18.238,0,0,1-3.87-.668,21.629,21.629,0,0,0-4.6-.774,2.676,2.676,0,0,0-2.057.637c-.541.6-.741,1.8-.579,3.488a69.023,69.023,0,0,1-3.048,28.79,78.277,78.277,0,0,1-5.7,13.016,114.341,114.341,0,0,1-8.113,12.68,22.184,22.184,0,0,1-4.668,4.365c-2.836,2.176-5.514,4.231-6.426,8.575-.607,2.891-.476,4.976.381,6.031.569.7,1.506,1.014,3.036,1.014.188,0,.362,0,.531-.008.144,0,.28-.006.407-.006a2.045,2.045,0,0,1,1.513.495,3.321,3.321,0,0,1,.7,2.767,15.709,15.709,0,0,1-.749,3.039,70.417,70.417,0,0,1-3.276,7.773C7.29,556.913,5,561.129,3.47,563.76a30.634,30.634,0,0,1,7.679,2.883,29.059,29.059,0,0,0,5.306,2.174,11.011,11.011,0,0,0,2.709.3c.734,0,1.459-.048,2.227-.1.792-.052,1.61-.106,2.461-.106a13.97,13.97,0,0,1,7.139,1.828,11.972,11.972,0,0,1,5.261,6.363,42.866,42.866,0,0,1,2.037,8.032,33.246,33.246,0,0,0,2.1,7.87,6.854,6.854,0,0,0,4.693,4.079,3.873,3.873,0,0,0,.943.129c1.21,0,2.029-.765,3.266-2.013a10.548,10.548,0,0,1,3.822-2.792,67.729,67.729,0,0,1,6.991-1.387,71.574,71.574,0,0,1,7.266-.9h.09c3.788.073,8.676,1.741,13.851,3.508,5.6,1.911,11.388,3.887,15.922,3.887a10.771,10.771,0,0,0,3.091-.4c.994-.3,1.8-1.822,2.589-3.293.947-1.777,1.927-3.615,3.683-4.455,2.15-1.029,4.421-1.031,6.751-1.024h.55a12.8,12.8,0,0,0,5.174-.747c1.524-.669,3.079-3.144,4.451-5.328a23.483,23.483,0,0,1,3.922-5.18,20.877,20.877,0,0,1,3.971-2.271,41.45,41.45,0,0,0,4.37-2.371c1.633-1.082,2.043-1.811,2.141-2.149a.793.793,0,0,0,.034-.263A5.931,5.931,0,0,1,135.332,569a7.223,7.223,0,0,1-2.649-5c-.486-3.2.8-6.573,3.935-10.31a79.919,79.919,0,0,1,9.476-8.919c3.78-3.2,7.35-6.223,9.067-8.928l.247-.389.422-.183a72.09,72.09,0,0,1,11.16-3.2c5.413-1.271,11.549-2.713,16.312-5.04a18.673,18.673,0,0,0,5.768-4.083,10.028,10.028,0,0,0,2.637-5.655,18.7,18.7,0,0,0-.471-4.913,26.766,26.766,0,0,1-.594-5.867,7.267,7.267,0,0,1,2.53-5.544c1.228-1.02,5.155-2.376,6.33-2.768,1.527-.509,5.288-1.692,7.231-1.692.132,0,.258.005.375.016,4.651.415,10.822,3.464,16.267,6.155,4.131,2.041,8.4,4.151,10.295,4.151.042,0,.082,0,.12,0,2.845-.183,5.712-2.617,8.484-4.97a30,30,0,0,1,6.3-4.5,19.506,19.506,0,0,1,5.365-1.371A17.452,17.452,0,0,0,259.7,494.4a12.251,12.251,0,0,0,3.317-2.931c1.812-2.033,3.865-4.337,8.1-4.337a13.728,13.728,0,0,1,2.021.159c.286.043.532.08,2.772,1.332,1.145.64,2.681,1.526,4.324,2.5,1.57.926,3.089,1.84,4.278,2.573a13.926,13.926,0,0,1,2.423,1.621c1.882,1.912,2.952,6.389,4.191,11.573.862,3.608,1.754,7.339,2.845,9.482a54.465,54.465,0,0,0,4.773,5.352c2.532,2.681,5.946,6.2,9.612,9.909,8.156,8.25,14.084,13.942,14.933,14.516a12.916,12.916,0,0,0,6.107,1.4,13.9,13.9,0,0,1,5.458,1.07c1.167.556,2.414,2.238,4.517,5.164.765,1.064,1.556,2.165,2.25,3.028a7.431,7.431,0,0,0,1.346,1.429,8.256,8.256,0,0,0,1.508.1c.906,0,1.946-.065,2.864-.123.8-.05,1.484-.093,2.021-.093a2.307,2.307,0,0,1,1.942.688c.583.737.484,1.684.333,3.118-.124,1.177-.31,2.954.141,3.753a4.072,4.072,0,0,0,1.58.909c.978.41,2.177.791,3.336,1.159,2.474.786,3.91,1.27,4.667,2.074.211.225.428.456,1.7,3.492.682,1.635,1.55,3.8,2.442,6.1s1.712,4.478,2.317,6.159c1.11,3.085,1.115,3.413,1.12,3.7.033,2.054-1.462,4.707-3.193,7.777-1.777,3.152-3.989,7.076-3.466,9.1.252.976,2.332,2.048,3.974,2.048a2.77,2.77,0,0,0,.314-.017c.031-.142.064-.295.094-.435.34-1.582.854-3.972,1.953-5.359a10.219,10.219,0,0,1,3.242-2.428,13.123,13.123,0,0,0,1.26-.754,1.347,1.347,0,0,0,.389-.364,10.548,10.548,0,0,0-.068-2.948c-.184-1.741-.373-3.542.448-4.833.747-1.175,2.272-1.433,3.888-1.7.97-.164,2.775-.468,2.9-.988a7.105,7.105,0,0,0-.557-5.207,20.053,20.053,0,0,0-3.374-4.285c-1.851-1.964-3.765-4-4.284-6.681a8.094,8.094,0,0,1,.522-4.63,18.367,18.367,0,0,1,3.514-5.309c.709-.8,1.926-1.182,3.721-1.182,4.093,0,10.849,1.986,12.762,3.186.312.2.507.441,1.329,1.473.713.895,1.79,2.247,2.841,3.383a16.3,16.3,0,0,0,1.455,1.419,17.753,17.753,0,0,0-.4-2.414c-.915-4.125-3.732-7.642-8.612-10.749-4.381-2.79-9.659-4.783-14.315-6.541-5.533-2.089-9.9-3.739-11.442-6.208-1.346-2.161.014-4.485,1.007-6.181a9.54,9.54,0,0,0,.9-1.8,3.175,3.175,0,0,0-.87-.255,8.448,8.448,0,0,0-1.522-.141,11.883,11.883,0,0,0-3.727.742,13.1,13.1,0,0,1-4.1.8,10.47,10.47,0,0,1-4.838-1.3,29.985,29.985,0,0,1-6.277-4.648c-5.9-5.412-7.372-10.8-8.671-15.563a26.912,26.912,0,0,0-3.035-7.83c-1.2-1.85-5.1-4.482-8.548-6.805-4.489-3.027-7.287-4.975-8.2-6.807-1.464-2.934-.993-7-.494-11.3.494-4.264,1.006-8.673-.408-11.8l-.777-1.72,23.951-4.771-2.948,3.334c-.861.974-1.343,2.905-1.323,5.3a17.355,17.355,0,0,0,1.335,6.628c.663,1.472,1.395,2.143,1.793,2.143.262,0,.76-.288,1.37-1.1a7.021,7.021,0,0,0,.6-2.04,11.285,11.285,0,0,1,.965-3.114,3.671,3.671,0,0,1,3.37-2.045,7.165,7.165,0,0,1,2.881.718c1.165.517,1.963,2.182,5.693,11.877,1.7,4.422,3.629,9.434,4.61,10.927.324.491,2.695,2.659,7.9,6.62a92.592,92.592,0,0,0,8.228,5.8,6.294,6.294,0,0,0,1.135-.407,7.965,7.965,0,0,1,3.163-.806,5.316,5.316,0,0,1,2.063.422,5.016,5.016,0,0,1,2.765,2.812,11.347,11.347,0,0,1,.672,3.034,7.592,7.592,0,0,0,.265,1.466,13.274,13.274,0,0,0,3.652,1.04,18.393,18.393,0,0,1,5.82,1.849,88.619,88.619,0,0,1,11.193,8.005,83.127,83.127,0,0,0,11.045,7.865l1.011.564-.29,1.121a83.967,83.967,0,0,0-1.921,13.436c-.4,5.786-.195,10.419.566,12.713.472,1.423,1.766,1.955,3.841,2.662a9.478,9.478,0,0,1,3.862,2.015,39.469,39.469,0,0,1,5.167,7.4,41.9,41.9,0,0,0,4.67,6.834c1.75,1.891,3.446,2.772,5.338,2.772a7.054,7.054,0,0,0,1.649-.207l7.123-1.72-8.37,6.241a15.2,15.2,0,0,0,3.471,4.619,8.1,8.1,0,0,0,5.49,1.719,20.962,20.962,0,0,0,3.062-.25l5.778-.853-4.652,3.531a32.816,32.816,0,0,0-5.7,5.2,4.6,4.6,0,0,0-1.253,2.654c.044,1.086,1.5,2.014,3.041,3a11.085,11.085,0,0,1,3.951,3.491c.665,1.171.664,2.986.662,5.087a19.962,19.962,0,0,0,.342,4.7c.375,1.372.936,1.372,1.346,1.372a3.158,3.158,0,0,0,.576-.059,5.154,5.154,0,0,0,1.981-1.168,4.682,4.682,0,0,1,2.835-1.358c1.842,0,2.77,1.875,3.075,2.491a22.794,22.794,0,0,1,1.344,3.7c1.6-1.98,2.667-2.827,4-2.827a4.826,4.826,0,0,1,2.488.923,13.872,13.872,0,0,0,3.5,1.568,54.849,54.849,0,0,0-2.155-6.391c-2.123-5.313-3.548-7.007-3.918-7.211l-2.114-1.145,1.957-1.4a3.752,3.752,0,0,1,2.222-.709,8.806,8.806,0,0,1,3.958,1.356,7.472,7.472,0,0,0,2.91,1.1,1.615,1.615,0,0,0,1.242-.612,3.089,3.089,0,0,0-.5-.69c-.415-.466-.983-.984-1.584-1.532a17.793,17.793,0,0,1-3.053-3.292,4.476,4.476,0,0,1-.312-4.873l.5-.891,11.7,1.665.03-7.022,4.779.481a44.939,44.939,0,0,1-3.242-4.015,16.679,16.679,0,0,0-2.744-3.207,11.615,11.615,0,0,0-4.038-1.172c-2.776-.49-5.922-1.046-7.761-3.854a10.735,10.735,0,0,1-1.285-3.935,10.166,10.166,0,0,0-1.342-4,30.087,30.087,0,0,0-4.16-4.542c-1.951-1.846-3.793-3.59-4.868-6.19-1.18-2.857-1.218-6.286-.118-10.793l.22-.9.907-.2a4.418,4.418,0,0,1,.978-.119,2.518,2.518,0,0,1,2.229,1.186,4.721,4.721,0,0,1,.543,1.617c.123.614.214,1,.447,1.166a6.222,6.222,0,0,0,1.823.68,9.571,9.571,0,0,1,3.582,1.569,7.4,7.4,0,0,1,1.682,2.465,13.576,13.576,0,0,0,1.187,2.012c.392.5.586.522.588.522h.012l-.009-.091a3.351,3.351,0,0,1,.537-2.724,2.165,2.165,0,0,1,1.638-.695l.118,0-1.134-2.914,2.555-.422-4.614-2.309,1.161-1.449a27.663,27.663,0,0,1,10.3-8.157,28.782,28.782,0,0,1,11.793-2.35,57.229,57.229,0,0,1,16.744,2.959l2.037.63-1.282,1.7-.292.388a10.124,10.124,0,0,0-2.044,3.406,2.6,2.6,0,0,0,.454,1.888c1.9-1.915,4.13-4.681,6.3-7.372,3.153-3.913,6.131-7.609,8.525-9.349,3.265-2.372,7.214-2.85,10.7-3.272,2.362-.286,4.594-.556,5.927-1.392a3.3,3.3,0,0,0,1.5-3.049c-.786.064-1.537.1-2.244.1-3.993,0-6.94-.99-9.275-3.116-2.061-1.876-3.4-4.44-4.821-7.155A58.442,58.442,0,0,0,524.3,514a4.459,4.459,0,0,0-1.266-.567,7.622,7.622,0,0,1-1.38-.577,2.213,2.213,0,0,1-1.215-1.971c.017-1.634.947-3.2,1.846-4.721a13.081,13.081,0,0,0,1.485-3.037c1.776-6.921,3.168-8.788,4.286-10.288a6.821,6.821,0,0,0,1.169-2.051c.768-2.185.521-5.3.259-8.6-.279-3.522-.568-7.163.35-10.251.692-2.33,2.7-4,4.649-5.615,1.561-1.3,3.175-2.636,3.562-4,.576-2.027.038-4.031-.533-6.152-.7-2.61-1.5-5.567-.03-8.686a9.582,9.582,0,0,1,2.658-2.936,10.717,10.717,0,0,0,2.55-2.7c.65-1.206,1.263-2.68,1.912-4.24a39.486,39.486,0,0,1,3.7-7.407c1.9-2.725,4.1-4.222,6.745-4.578a13.746,13.746,0,0,1,1.828-.121,11.594,11.594,0,0,1,3.865.609,4.561,4.561,0,0,1,2.845,2.372,3.359,3.359,0,0,1-.116,2.786,17.116,17.116,0,0,0,4.1.5,31.238,31.238,0,0,0,7.973-1.355,36.847,36.847,0,0,1,9.663-1.565c.23,0,.464,0,.693.01l3.089.087L587,431.323a33.535,33.535,0,0,1-4.512,4.254,22.086,22.086,0,0,0-4.471,4.457,8.221,8.221,0,0,0-1.385,4.54,39.988,39.988,0,0,1,5.07-.384c3,0,5.01.588,6.329,1.85a8.621,8.621,0,0,1,2.091,4.349,13.061,13.061,0,0,0,2.112,4.878c1.191,1.588,2.3,2.427,3.214,2.427.805,0,1.716-.666,2.709-1.98a32.048,32.048,0,0,0,2.734-4.731,11.857,11.857,0,0,1,2.235-3.574,6.47,6.47,0,0,1,2.887-1.105,5.5,5.5,0,0,0,2.688-1.043c.793-.786,1.275-2.591,1.626-3.91.406-1.523.7-2.624,1.568-3.161a5.659,5.659,0,0,1,3.063-.652c.689,0,1.41.046,2.174.095s1.549.1,2.292.1c1.874,0,2.933-.318,3.436-1.031a5.988,5.988,0,0,0,.342-4.438,4.355,4.355,0,0,0-1.018-2.148c-1.579.173-3.307,1.656-5.135,3.223-2.466,2.115-5.26,4.512-8.761,4.512a9.251,9.251,0,0,1-5.461-1.984,25.921,25.921,0,0,1-5.8-6.42l-1.9-2.78,3.336.448a8.09,8.09,0,0,0,1.053.081,2.851,2.851,0,0,0,.6-.051,3.2,3.2,0,0,0-.151-.6c-.159-.473-.409-1.02-.651-1.549a14.415,14.415,0,0,1-.774-1.921,2.617,2.617,0,0,1,.371-2.576l.658-.755,4.1,1.374c-.178-7.728,4.264-9.872,8.223-11.783a20.068,20.068,0,0,0,4.521-2.68c1.067-.921,3.569-2.96,6.219-5.119,3.518-2.867,8.812-7.181,9.507-7.918a11.823,11.823,0,0,0,.686-2.733c.541-2.947,1.281-6.983,4.426-9.515a17.877,17.877,0,0,1,7.717-3.516c1.147-.275,2.137-.513,2.346-.917.121-.234.264-.888-.14-2.634a56.61,56.61,0,0,0-2.619-7.592,3.685,3.685,0,0,0-.887-.435,6.268,6.268,0,0,1-1.132-.539,2.276,2.276,0,0,1-1.1-1.664,21.092,21.092,0,0,1,.465-5.347c.52-3.2,1.162-7.148-.164-9.468a52.994,52.994,0,0,0-6.451-.85c-3.427-.334-7.358-.639-10.517-.884-2.07-.16-3.7-.287-4.532-.372-.047,0-.1-.007-.153-.007a7.811,7.811,0,0,0-1.99.454,11.537,11.537,0,0,1-3.434.677,6.01,6.01,0,0,1-1.225-.123c-1.558-.326-3.05-1.557-4.492-2.747-.627-.518-1.22-1.007-1.749-1.361a3.282,3.282,0,0,0-.8-.429,11.119,11.119,0,0,0-1.18,1.212,10.125,10.125,0,0,1-4.222,3.278c-.945.3-5.849,1.01-6.823,1.15-1.378.2-5.967.845-7.152.845a2.117,2.117,0,0,1-.542-.059c-1.95-.5-2.908-2.716-4.017-5.278-1.079-2.493-2.3-5.318-4.308-6.134a3.06,3.06,0,0,0-.925-.081c-.794,0-1.836.094-2.939.194-1.337.121-2.72.246-4.025.246-1.685,0-4.052-.19-5.145-1.832-.768-1.154-.325-2.615.144-4.162.34-1.122.763-2.517.5-3.255a7.648,7.648,0,0,0-3.4-4.254,10.566,10.566,0,0,0-5.311-1.225,28.146,28.146,0,0,0-11.9,3.188,9.308,9.308,0,0,0-1.557,1.838c-1.339,1.828-3.005,4.1-5.436,4.1a4.461,4.461,0,0,1-2.87-1.15c-.624-.521-1.054-1.506-4.193-10.76-1.336-3.938-2.717-8.01-3.305-9.236l-1.647-3.436,3.547,1.392a10.736,10.736,0,0,0,3.932.76,9.181,9.181,0,0,0,5.076-1.462,4.826,4.826,0,0,0,2.226-2.994,3,3,0,0,0-.764-2.47,9.955,9.955,0,0,0-4.426-2.661,1.491,1.491,0,0,0-.479-.067,7.7,7.7,0,0,0-2.015.423,6.28,6.28,0,0,1-1.74.363,2.028,2.028,0,0,1-1.045-.269,17.689,17.689,0,0,1-2.545-2.3c-1.175-1.134-2.694-2.629-4.276-4.209s-3.093-3.111-4.215-4.271a16.47,16.47,0,0,1-2.3-2.566,22.674,22.674,0,0,1-2.243-7.987c-.425-2.791-.826-5.427-2.272-6.948a7.151,7.151,0,0,0-3.551-1.937,20.922,20.922,0,0,0-5.11-.494c-1.226,0-2.475.047-3.8.1s-2.705.1-4.062.1a28.7,28.7,0,0,1-5.872-.5,13.749,13.749,0,0,1-5.413-2.288l-.281-.2-.162-.307-13.214-24.918.428-.724a6.009,6.009,0,0,0,.358-5.726,25.161,25.161,0,0,0-3.9-5.8c-1.969-2.433-3.829-4.73-4.031-7.165-.156-1.9,1.533-3.452,3.672-5.42a27.109,27.109,0,0,0,3.8-4A5.911,5.911,0,0,0,472.774,210.4ZM364.76,275.342c.183-.667.538-2.846.828-4.623.326-2,.635-3.857.941-5.5l-5.034,5.828a2.655,2.655,0,0,1,1.829,1.4,11.8,11.8,0,0,1,.809,1.79c.137.353.337.869.518,1.224C364.685,275.423,364.721,275.385,364.76,275.342ZM309.1,297.692c-.316-1.14-.578-2.226-.819-3.227-1.186-4.926-1.769-6.518-4.134-6.518a15,15,0,0,0-5.322,1.417l.052.084a12.907,12.907,0,0,1,1.235,3.293c.291,1.067.62,2.277,1.116,2.6a4.282,4.282,0,0,0,2.442.732,9.778,9.778,0,0,0,1.364-.123,8.322,8.322,0,0,1,1.131-.106,2.309,2.309,0,0,1,1.951.883,3.081,3.081,0,0,1,.5,2.012,3.665,3.665,0,0,1,.607-.507l-.177-.542Zm6.45,1.446a47.84,47.84,0,0,1-3.992-5.694q-.464-.807-.822-1.55c.155.6.305,1.221.462,1.87.3,1.253.637,2.645,1.069,4.082a14.77,14.77,0,0,1,2.065.787C314.731,298.806,315.155,298.992,315.551,299.138Zm4.143,4.419a11.259,11.259,0,0,1-.673-2.089,3.144,3.144,0,0,1-2.323.949,8.763,8.763,0,0,1-3.359-.947c.079.306.152.594.22.864a10.658,10.658,0,0,0,.715,2.277c.069.112.092.149.439.149A22.616,22.616,0,0,0,319.694,303.557Zm13.719,8.421c1.014,0,1.177-.45,1.256-.666a4.157,4.157,0,0,0-.28-2.665,7.73,7.73,0,0,0-.616-1.247l-1.666,4.414.548.094A4.536,4.536,0,0,0,333.413,311.979Z" transform="translate(0.725 1.081)" fill="#fff"/>
    <path id="Path_1171" data-name="Path 1171" d="M116.487,117.829c2.366,0,6.834.405,9.941.753,1.921.215,3.614.436,4.9.64,2.321.37,2.75.582,3.124.946a4,4,0,0,1,1.345,3.728c-.348,1.826-1.966,3.517-5.093,5.321a61.216,61.216,0,0,1-6.8,3.208c-.256.107-.524.219-.775.326a11.086,11.086,0,0,1,.574,1.049,2.2,2.2,0,0,1,.059,2.128,94.344,94.344,0,0,1,10.408.986c2.6.468,5.728,1.329,6.886,3.853.806,1.756.531,3.925-.867,6.826a61.94,61.94,0,0,1-6.577,9.956c-.442.577-1.335,1.787-2.28,3.067-3.248,4.4-4.02,5.412-4.346,5.7a2.984,2.984,0,0,1-.765.486,10.476,10.476,0,0,1,1.756,1.1,23.5,23.5,0,0,1,4.013,4.355c1.682,2.167,3.271,4.213,5.743,5.408l.732.354.1.807c.231,1.807-.589,3.426-1.457,5.141a15.4,15.4,0,0,0-1.77,4.79,11.225,11.225,0,0,0,1.265,6.625c.329.679.969,1.063,1.987,1.633a7.147,7.147,0,0,1,2.941,2.491c1.5,2.525,2.986,9.8,3.555,12.818.841,4.45,1.744,10.464,1.525,12.765a5.082,5.082,0,0,1-1.8,3.035c-.219.222-.408.418-.567.6a14.081,14.081,0,0,1,4.218-.685,9.4,9.4,0,0,1,8.116,4.181,11.65,11.65,0,0,1,1.825,6.156,18.066,18.066,0,0,1-1.529,7.476c-1.322,3.147-4.944,5.146-8.139,6.91-2.25,1.242-5.047,2.786-4.957,3.913a1.774,1.774,0,0,0,.68.359,15.945,15.945,0,0,0,1.892.487c1.813.393,3.687.8,4.451,2.334a3.244,3.244,0,0,1-.111,2.9c-.842,1.816-3.919,3.691-5.678,4.646-2.169,1.178-5.17,2.477-7.09,2.589-.156.009-.33.014-.532.014-4.9,0-26.239-2.956-31.589-3.877a12.652,12.652,0,0,1-4.4-1.9,8.635,8.635,0,0,0-4.37-1.661h-.094c-2.857,0-4.351,1.657-5.668,3.119-.931,1.032-1.809,2.007-3.073,2.218a3.267,3.267,0,0,1-.535.044c-1.444,0-2.675-.924-3.865-1.817a7.067,7.067,0,0,0-2.934-1.6,4.444,4.444,0,0,0-.5-.027,20.978,20.978,0,0,0-4.792.939,27.591,27.591,0,0,1-6.923,1.234,9.884,9.884,0,0,1-3.067-.448l-.834-.268-.176-.858c-.424-2.062-.353-3.271.245-4.174a3.456,3.456,0,0,1,2.47-1.346,4.624,4.624,0,0,0,1.487-.48c1.215-.707,3.794-2.339,6.524-4.067,7.665-4.852,10.559-6.627,11.532-6.921a8.955,8.955,0,0,1,2.623-.364,22.9,22.9,0,0,1,4.676.652c.266.056.529.111.789.164a8.193,8.193,0,0,1-1.778-1.5c-.749-.732-1.694-1.694-2.7-2.713-1.491-1.517-3.9-3.966-4.768-4.668a10.3,10.3,0,0,0-1.5.443,10.055,10.055,0,0,1-3.209.723,3.991,3.991,0,0,1-3.924-3.029,4.913,4.913,0,0,1,.171-4.271c1.408-2.4,4.913-3,8.623-3.637,3.012-.515,6.426-1.1,7.532-2.655,1.123-1.58,1.679-5.042.683-6.971a1.857,1.857,0,0,0-1.812-1.127,4.209,4.209,0,0,0-1.019.141l-8.278,2.092,7.069-4.788c.7-.476,1.37-.875,1.959-1.226a7.751,7.751,0,0,0,2.5-1.91c.282-.432.612-1.247.231-3.324l-.325-1.774,6.229.013-1.423,2.287a1.226,1.226,0,0,0-.074.135,5.929,5.929,0,0,0,2.57.865,30.3,30.3,0,0,0,5.024.376c1.085,0,1.941-.046,2.464-.094.131-.419.3-1.027.439-1.551a42.21,42.21,0,0,1,1.765-5.435,13.714,13.714,0,0,1,1.193-2.246,7.916,7.916,0,0,1-4.947-4.643,9.752,9.752,0,0,1-.083-6.212,14.7,14.7,0,0,1,1.906-4.034c-.2-.008-.412-.013-.644-.013-1.357,0-2.895.149-4.252.28-1.154.112-2.151.208-2.925.208a4.459,4.459,0,0,1-1.21-.132,3,3,0,0,1-1.937-2.357,4.365,4.365,0,0,0-.209-.6l-.065,0a7.725,7.725,0,0,0-3.1,1.16l-.948.5-.782-.734a2.136,2.136,0,0,1-.488-2.286,7.725,7.725,0,0,1,.779-1.692c.653-1.128,1.626-2.508,2.752-4.106a71.213,71.213,0,0,0,4.8-7.449q.159-.3.3-.589-.136.158-.282.308c-1.641,1.685-4.078,2.456-7.163,3.432l-.983.312-1.43.458-.456-1.431a5.136,5.136,0,0,1,.211-3.589,13.669,13.669,0,0,1,1.523-2.577c.516-.739,1.156-1.657,1.118-2.106a1.664,1.664,0,0,0-.361-.53,12.161,12.161,0,0,0-.968-.942c-.786-.712-1.465-1.327-1.455-2.256.018-1.513,1.57-2.474,3.92-3.928a31.862,31.862,0,0,0,3.333-2.259l-13.051,1.078L90,152.807c5.848-4.115,7.9-9.458,10.072-15.115a50.421,50.421,0,0,1,4.418-9.456,16.245,16.245,0,0,1,1.725-1.918c.855-.9,1.991-2.072,3.115-3.218,4.568-4.655,4.95-4.854,5.2-4.986A4.188,4.188,0,0,1,116.487,117.829Zm16.043,4.673a64.7,64.7,0,0,0-6.965-1c-3.78-.41-7.344-.676-9.078-.676-.3,0-.5.008-.62.016-1.449,1.281-8.193,8.2-8.884,9.054a47.635,47.635,0,0,0-4.115,8.868c-1.766,4.6-3.58,9.322-7.508,13.39l7.736-.639-.117,1.739c-.184,2.733-3.381,4.712-6.2,6.458-.647.4-1.523.943-2.085,1.36l.055.05c.956.866,2.145,1.943,2.3,3.369.166,1.561-.752,2.877-1.64,4.149a12.287,12.287,0,0,0-1.173,1.912c2.182-.7,3.9-1.339,4.863-2.329.733-.753,1.5-2.116.924-6l-.368-2.478,2.358.846A5.34,5.34,0,0,1,105.563,164a7.2,7.2,0,0,1-.043,3.959,18.841,18.841,0,0,1-1.637,4.032,73.411,73.411,0,0,1-5.007,7.783c-.644.913-1.261,1.788-1.775,2.559a5.12,5.12,0,0,1,1.105-.132,2.9,2.9,0,0,1,2.408,1.118,4.762,4.762,0,0,1,.743,1.635c.03.1.069.231.105.34l.165,0c.629,0,1.6-.094,2.636-.194,1.425-.138,3.039-.294,4.541-.294a9.092,9.092,0,0,1,3.973.675l1.795.876-1.341,1.48a12.574,12.574,0,0,0-2.808,4.852,6.8,6.8,0,0,0,0,4.307c.73,1.914,2.593,3.083,5.386,3.38l5.982.636-5.58,2.247c-.381.154-1.159.732-2.081,2.879a39.239,39.239,0,0,0-1.627,5.039c-.569,2.092-.782,2.875-1.468,3.341a3.529,3.529,0,0,1-1.845.431c-.7.055-1.586.085-2.486.085a33.777,33.777,0,0,1-5.669-.444,9.678,9.678,0,0,1-3.348-1.132,5.226,5.226,0,0,1-.7,1.638,6.81,6.81,0,0,1-1.932,1.879,5.134,5.134,0,0,1,1.662,1.924,9.412,9.412,0,0,1,.781,5.236,10.568,10.568,0,0,1-1.685,4.849c-1.824,2.566-5.712,3.231-9.471,3.874a34.3,34.3,0,0,0-4.436.946,3.742,3.742,0,0,0-2.1,1.251,2.287,2.287,0,0,0,.068,1.75c.367,1.033.772,1.033,1.1,1.033a7.894,7.894,0,0,0,2.228-.558,8.467,8.467,0,0,1,2.686-.626c.117,0,.232.006.343.017.62.062,1.1.358,2.885,2.085,1.02.986,2.267,2.255,3.473,3.482,1.273,1.295,2.973,3.024,3.589,3.552a2.531,2.531,0,0,0,.263.013,9.083,9.083,0,0,0,3.014-.849,10.3,10.3,0,0,1,3.725-.981,4.117,4.117,0,0,1,2.855,1.1l.9.818-.614,1.049a10.439,10.439,0,0,1-3.765,3.969,8.473,8.473,0,0,1-4.32,1.078,23.059,23.059,0,0,1-4.718-.657,20.4,20.4,0,0,0-4.057-.588,6.023,6.023,0,0,0-1.743.232,37.342,37.342,0,0,0-3.935,2.274c-2.048,1.26-4.5,2.812-6.872,4.314-2.874,1.819-5.356,3.391-6.62,4.126a7.423,7.423,0,0,1-2.4.828c-.183.037-.418.084-.562.127a3.684,3.684,0,0,0,.036.926,7.912,7.912,0,0,0,1.3.1A25.022,25.022,0,0,0,74.8,262.54a22.769,22.769,0,0,1,5.57-1.041,7.445,7.445,0,0,1,.844.046A9.276,9.276,0,0,1,85.6,263.73a5.791,5.791,0,0,0,2.064,1.216l.039,0a6.18,6.18,0,0,0,1.341-1.268c1.491-1.654,3.75-4.163,8.028-4.109a11.388,11.388,0,0,1,5.873,2.087,10.239,10.239,0,0,0,3.364,1.519c5.133.885,26.423,3.834,31.079,3.834.14,0,.26,0,.357-.009a18.371,18.371,0,0,0,5.833-2.23c2.8-1.519,4.175-2.813,4.388-3.271a1.519,1.519,0,0,0,.114-.319,2.418,2.418,0,0,0-.631-.289,16.933,16.933,0,0,0-1.737-.437,13.971,13.971,0,0,1-2.8-.81,3.241,3.241,0,0,1-2.121-2.659,3.857,3.857,0,0,1,.575-2.413,6.821,6.821,0,0,1,1.584-1.738,30.269,30.269,0,0,1,4.332-2.7c2.768-1.528,5.9-3.259,6.823-5.445a15.1,15.1,0,0,0,1.3-6.233,8.667,8.667,0,0,0-1.325-4.577,6.145,6.145,0,0,0-2.29-2.077,7.114,7.114,0,0,0-3.328-.764,12.843,12.843,0,0,0-5.542,1.439l-1.541.747-.538-1.626a4.457,4.457,0,0,1,.2-3.5,8.239,8.239,0,0,1,1.63-2.08c.411-.418.924-.938.949-1.213.149-1.563-.476-6.578-1.486-11.926-1.09-5.771-2.341-10.419-3.186-11.842a4.709,4.709,0,0,0-1.828-1.405,6.968,6.968,0,0,1-3.22-2.941,14.108,14.108,0,0,1-1.534-8.369,18.309,18.309,0,0,1,2.062-5.71,11.518,11.518,0,0,0,1.125-2.707,21.363,21.363,0,0,1-5.939-5.807,21,21,0,0,0-3.475-3.82,6.983,6.983,0,0,0-4.482-1.5c-.189,0-.385.006-.582.017l-1.337.078-.229-1.32a3.092,3.092,0,0,1,.518-2.652,2.943,2.943,0,0,1,2.322-.914c.382,0,.771.037,1.147.072.349.033.678.064.97.064a1.513,1.513,0,0,0,.521-.061c.476-.558,2.54-3.354,3.925-5.229.995-1.347,1.854-2.511,2.311-3.108a59.346,59.346,0,0,0,6.257-9.436c.953-1.978,1.237-3.415.843-4.272-.44-.959-1.975-1.663-4.692-2.152a116.5,116.5,0,0,0-12.4-1.079l-2.1-.121-1.1-.064-.266-1.072a4.39,4.39,0,0,1-.147-1.368,2.437,2.437,0,0,1,.5-1.358,2.681,2.681,0,0,1,2.2-.918c-.147-.245-.284-.478-.392-.695a2.992,2.992,0,0,1-.224-.565,1.672,1.672,0,0,1,.219-1.417c.36-.517.884-.736,2.834-1.551a58.77,58.77,0,0,0,6.455-3.039c3.061-1.766,3.569-2.885,3.645-3.284C132.868,123.215,132.918,122.952,132.529,122.5ZM98.23,248.99a5.331,5.331,0,0,0,4.338-1.938,13.6,13.6,0,0,0-2,.692,11.338,11.338,0,0,1-4.129,1.064q-.11,0-.219,0A12.635,12.635,0,0,0,98.23,248.99Z" transform="translate(50.833 92.178)" fill="#fff"/>
    <path id="Path_1172" data-name="Path 1172" d="M57.556,7.166,59.448,9.46c3.273,3.971,4.907,7.793,5.144,12.028A31.465,31.465,0,0,1,63,31.958a7.2,7.2,0,0,0,3.5-.938,14.063,14.063,0,0,0,2.975-2.788c.8-.891,1.7-1.9,2.868-2.982l2.5-2.327.038,7.662c2.6-1.7,4.437-2.471,5.794-2.471a2.744,2.744,0,0,1,2.087.854c1.014,1.092.894,2.721.788,4.159a10.656,10.656,0,0,0-.047,1.235,2.763,2.763,0,0,0,.221.2,3.6,3.6,0,0,0,.239-.419c.2-.408.394-.909.578-1.394a9.7,9.7,0,0,1,.88-1.918l1.755-2.6.922,3c.375,1.22,1.778,2.693,3.753,3.938A15.457,15.457,0,0,0,96.9,37.276c.138-.287.3-.713.422-1.027A11.539,11.539,0,0,1,98.611,33.6a3.864,3.864,0,0,1,3.219-1.76,4.6,4.6,0,0,1,1.147.152c1.851.478,2.45,2.394,2.978,4.083.8,2.552,1.334,3.671,3.122,3.671a8.264,8.264,0,0,0,2.767-.609l1.751-.651.257,1.851a3.057,3.057,0,0,1-.964,2.907,5.482,5.482,0,0,1-2.023.967c-1.1.345-1.569.549-1.8,1.19-.688,1.916.332,4.17,1.512,6.781a22.226,22.226,0,0,1,2.25,6.937,10.808,10.808,0,0,1-2.7,8.242c-.163.2-.349.423-2.83,2.075-1.389.925-3.229,2.115-5.048,3.264-1.949,1.231-3.767,2.349-5.117,3.146-2.558,1.51-2.947,1.6-3.371,1.623l-.09,0a1.9,1.9,0,0,1-1.791-1.429,10.946,10.946,0,0,1-.367-1.258c-.061-.245-.156-.623-.25-.918a28.4,28.4,0,0,0-3.805,1.248,27.577,27.577,0,0,1-6.436,1.866l-.277.026c-3.808.359-7.4.7-10.945.7A30.752,30.752,0,0,1,58.165,75.8a21.993,21.993,0,0,1-9.851-7.854,12.722,12.722,0,0,1-1.746-4.691c-.323-1.4-.657-2.852-1.281-3.443a20.505,20.505,0,0,0-3.475-1.375c-4.105-1.4-6.637-2.382-7.17-4.253-.683-2.4-.661-3.833.073-4.805a2.622,2.622,0,0,1,2.214-1,11.584,11.584,0,0,1,3,.607,17.279,17.279,0,0,0,3.557.753c.009-.843.051-1.7.092-2.546.137-2.8.278-5.7-.757-7.8-.664-1.347-1.85-1.7-3.724-2.127a7.189,7.189,0,0,1-3.349-1.377c-1.123-1.008-1.467-2.485-1.049-4.515l.361-1.757,1.665.667a18.334,18.334,0,0,0,7.023,1.393,42.177,42.177,0,0,0,8.638-1.237A3.433,3.433,0,0,0,50.54,27.4a13.973,13.973,0,0,0-5.214-1c-1.763-.12-3.286-.224-4.317-.9-1.387-.9-3.211-2.333-3.045-4.3.187-2.206,2.683-3.288,4.886-4.242a14.967,14.967,0,0,0,1.967-.952,32.951,32.951,0,0,0,3.38-3.088c.5-.491.964-.955,1.329-1.295A2.527,2.527,0,0,1,51.2,10.7h.054a3.2,3.2,0,0,1,3.082,2.419,15.519,15.519,0,0,1,.641,3.467c.023.2.045.406.068.6Zm4.715,27.809c-.435,0-.9-.015-1.378-.044l-1.907-.117.566-1.824c1.4-4.512,2.23-7.981,2.043-11.333a15.8,15.8,0,0,0-2.626-7.777l-2.138,8.548-1.069.09c-.092.008-.184.012-.274.012a3.009,3.009,0,0,1-2.9-2.333A15.551,15.551,0,0,1,52,16.918a19.226,19.226,0,0,0-.348-2.331,3.584,3.584,0,0,0-.211-.637c-.332.316-.759.739-1.132,1.109a32.374,32.374,0,0,1-3.839,3.461,16.575,16.575,0,0,1-2.426,1.2,20.869,20.869,0,0,0-2.236,1.071,2.53,2.53,0,0,0-.843.675c.051.13.326.641,1.684,1.526a10.275,10.275,0,0,0,2.883.417,16.339,16.339,0,0,1,6.406,1.337,6.173,6.173,0,0,1,2.658,2.6,8.2,8.2,0,0,1,.784,4.408L55.3,32.888l-1.114.234-.991.209a45.258,45.258,0,0,1-9.444,1.341,20.8,20.8,0,0,1-5.214-.645c.366.115.8.213,1.224.31,1.86.422,4.406,1,5.751,3.726,1.378,2.8,1.218,6.091,1.062,9.276-.065,1.338-.127,2.6-.066,3.749l.071,1.344-1.328.216a8.358,8.358,0,0,1-1.338.1,17.707,17.707,0,0,1-4.811-.883,14.568,14.568,0,0,0-1.959-.477,8.178,8.178,0,0,0,.361,1.9,5.079,5.079,0,0,0,1.71.994c1.051.459,2.328.894,3.562,1.314,2.41.82,3.809,1.319,4.561,2.027,1.288,1.213,1.727,3.116,2.151,4.957a10.741,10.741,0,0,0,1.252,3.6,19.083,19.083,0,0,0,8.532,6.827A27.9,27.9,0,0,0,69.8,74.707c3.4,0,6.929-.332,10.664-.684L80.738,74A26.309,26.309,0,0,0,86.4,72.308a18.1,18.1,0,0,1,5.32-1.489c.1,0,.2,0,.3.011a2.271,2.271,0,0,1,1.911,1.613,10.855,10.855,0,0,1,.466,1.519c1.251-.7,3.451-2.029,6.362-3.869,3.8-2.4,6.593-4.278,7.106-4.706a7.821,7.821,0,0,0,1.98-5.973,20.008,20.008,0,0,0-2-6c-1.327-2.936-2.7-5.971-1.6-9.03a4.212,4.212,0,0,1,1.255-1.838,5.045,5.045,0,0,1-2.8-1.953,12.018,12.018,0,0,1-1.6-3.625,13.964,13.964,0,0,0-.556-1.575,1.4,1.4,0,0,0-.318-.5,1.6,1.6,0,0,0-.387-.055c-.645,0-1.066.8-1.711,2.481A11.035,11.035,0,0,1,99.373,39a2.384,2.384,0,0,1-2.082,1.343,2.183,2.183,0,0,1-.227-.012,17.394,17.394,0,0,1-6.811-2.623,15.869,15.869,0,0,1-3.348-2.774,8.74,8.74,0,0,1-.55,1.089,2.949,2.949,0,0,1-2.536,1.66,3.671,3.671,0,0,1-2.684-1.461c-.756-.838-.668-2.041-.574-3.314a9.017,9.017,0,0,0,.019-1.788c-.565.049-2.18.537-6.3,3.533l-2.368,1.722-.032-6.333-.173.193a16.372,16.372,0,0,1-3.658,3.354A10.771,10.771,0,0,1,62.272,34.975Z" transform="translate(27.534 8.044)" fill="#fff"/>
    <path id="Path_1173" data-name="Path 1173" d="M89.771,144.651a16.162,16.162,0,0,1,5.716,1.148,2.591,2.591,0,0,1,1.376,1.978c.038.132.093.321.143.468a11.783,11.783,0,0,0,2.376.54c1.923.3,4.1.639,6.066,3.255,1.464,1.948,1.545,4.458,1.623,6.885.083,2.587.162,5.031,1.747,6.828l.477.54-.124.71c-.655,3.751-5.437,5.538-8.6,6.721-.653.244-1.443.539-1.8.724a22.425,22.425,0,0,0-.7,2.957c-.327,1.7-.67,3.771-1.032,5.964a79.874,79.874,0,0,1-2.054,10.258,9.062,9.062,0,0,1-2.5,2.914,22.509,22.509,0,0,0-3.592,3.9,4.862,4.862,0,0,0-.873,4.232l1.353,4.507-3.711-2.893c-1.9-1.483-4.53-2.2-8.033-2.2a67.611,67.611,0,0,0-10.75,1.258,67.769,67.769,0,0,1-10.822,1.262,14.749,14.749,0,0,1-8.073-1.951,10.286,10.286,0,0,1-3.056-3.006A14.387,14.387,0,0,1,43,197.083c-1-4.076-.985-6.357.059-7.872,1.146-1.662,3.168-1.912,5.509-2.2a35.937,35.937,0,0,0,3.752-.607,3.484,3.484,0,0,1-.107-1.657c.284-1.608,1.606-3.056,4.159-4.557a43.452,43.452,0,0,1,4.826-2.343c-.8-.969-1.614-1.814-2.359-2.589-1.934-2.013-3.605-3.752-3.415-6.107.13-1.607,1.117-3.2,3.213-5.086a4.714,4.714,0,0,1-.59-.368,3.119,3.119,0,0,1-1.358-2.787c.146-2.066,2.218-3.774,3.44-4.608a10.81,10.81,0,0,1,5.385-2.024,4.188,4.188,0,0,1,.554.036c1.264.17,2.806,1.2,4.592,2.385a22.315,22.315,0,0,0,4.1,2.358c.35-.359.9-.963,1.588-1.771q.447-.526.78-.94a9.118,9.118,0,0,1-2.294-.869,3.933,3.933,0,0,1-2.134-3.539v-1.314l1.3-.173a18.509,18.509,0,0,0,7.125-2.855C83.63,146.147,86.215,144.651,89.771,144.651Zm4.156,3.774a12.725,12.725,0,0,0-4.156-.774c-2.75,0-4.784,1.177-7.139,2.541a25.347,25.347,0,0,1-6.086,2.8,10.446,10.446,0,0,0,1.968.605,4.556,4.556,0,0,1,1.966.756l0,0a1.571,1.571,0,0,1,.427,1.76c-.073.2-.3.8-2.414,3.277-.538.628-1.059,1.209-1.468,1.636-.687.717-1.155,1.152-1.864,1.152h-.071l-.074-.007c-1.818-.176-3.955-1.6-6.023-2.975a15.671,15.671,0,0,0-3.329-1.909,1.185,1.185,0,0,0-.155-.009,9.193,9.193,0,0,0-5.285,2.882,1.866,1.866,0,0,0-.548.982c.026.039.395.532,2.317.805l3.586.509-2.9,2.176c-2.747,2.064-4.185,3.666-4.273,4.761-.081,1.009,1.1,2.235,2.588,3.787a36.745,36.745,0,0,1,3.79,4.431l1.064,1.512-1.7.73c-.276.118-.577.246-.9.381a46.715,46.715,0,0,0-5.367,2.545c-2.365,1.39-2.683,2.26-2.725,2.493-.045.253.134.569.532.939l1.864,1.733-2.419.791a31.253,31.253,0,0,1-6.208,1.256c-1.691.209-3.026.373-3.407.926-.322.467-.517,1.792.384,5.453a8.888,8.888,0,0,0,3.675,5.754,11.912,11.912,0,0,0,6.466,1.485,64.67,64.67,0,0,0,10.32-1.22,69.72,69.72,0,0,1,11.252-1.3,18.164,18.164,0,0,1,7.3,1.312,9.154,9.154,0,0,1,1.454-3.6,24.834,24.834,0,0,1,4.068-4.466,12.985,12.985,0,0,0,1.729-1.767,86.133,86.133,0,0,0,1.9-9.69c1.064-6.433,1.561-9.154,2.208-10.179.477-.757,1.455-1.123,3.231-1.787a27.775,27.775,0,0,0,4.454-1.977,5.29,5.29,0,0,0,2.048-1.887c-1.769-2.476-1.864-5.411-1.948-8.028-.066-2.051-.128-3.989-1.023-5.179-1.232-1.641-2.385-1.821-4.13-2.093a13.163,13.163,0,0,1-3.456-.894,3.1,3.1,0,0,1-1.483-2.245C93.965,148.554,93.946,148.489,93.927,148.425Z" transform="translate(33.804 112.897)" fill="#fff"/>
    <path id="Path_1174" data-name="Path 1174" d="M223.547,338.766l.293,1.318c.844,3.795-1.124,6.982-2.861,9.794a14.009,14.009,0,0,0-2.154,4.489,19.806,19.806,0,0,0,.359,4.02,34.264,34.264,0,0,1,.527,6.73,7.527,7.527,0,0,1-.787,3.122,4.065,4.065,0,0,1-2.658,2.081,13.043,13.043,0,0,1-3.079.4c-3.614,0-5.676-1.867-7.5-3.515a13.268,13.268,0,0,0-2.85-2.159c-1.75-.877-3.9-1.777-6.183-2.73-4.868-2.035-10.386-4.342-14.436-7.429a16,16,0,0,1-4.887-5.58,10.632,10.632,0,0,1-.709-7.487l.362-1.426,1.433.334a5.635,5.635,0,0,0,1.291.136,19.648,19.648,0,0,0,4.381-.734,19.3,19.3,0,0,1,4.42-.734,6.955,6.955,0,0,1,1.017.071,7.067,7.067,0,0,1,2.926,1.486,6.773,6.773,0,0,0,2.719,1.411,30.874,30.874,0,0,0,3.835.235,63.208,63.208,0,0,0,13.488-1.925,98.391,98.391,0,0,1,9.708-1.757Zm-10.36,28.955a10.058,10.058,0,0,0,2.366-.316c.278-.068,1.017-.249,1.165-2.487a32.231,32.231,0,0,0-.5-6.1,19.307,19.307,0,0,1-.353-4.918,16.157,16.157,0,0,1,2.564-5.594c1.3-2.1,2.537-4.109,2.609-6.208-2.682.384-5.33.957-7.9,1.514A66.443,66.443,0,0,1,199.01,345.6a33.881,33.881,0,0,1-4.209-.258,9.194,9.194,0,0,1-4.085-1.944,6.106,6.106,0,0,0-1.627-.962,3.956,3.956,0,0,0-.576-.039,17.365,17.365,0,0,0-3.711.649,21.8,21.8,0,0,1-5.089.819q-.209,0-.413-.009c-.334,3.168,1.2,5.944,4.742,8.646,3.743,2.854,9.072,5.082,13.774,7.047,2.328.973,4.527,1.892,6.37,2.816a15.755,15.755,0,0,1,3.52,2.618C209.328,366.452,210.729,367.721,213.187,367.721Z" transform="translate(137.309 262.955)" fill="#fff"/>
    <path id="Path_1175" data-name="Path 1175" d="M151.8,353.134a6,6,0,0,1-4.6-1.869c-3.035-3.274-2.515-10.117-1.964-17.361a75.34,75.34,0,0,0,.327-11.007c-.27-3.317-1.089-5.424-2.506-6.442l-2.114-1.519,19.736-8.872.512.134c2.765.722,4.715,3.37,5.794,7.869,1.622,6.762.871,15.828.473,19.413a69.389,69.389,0,0,1-1.413,8.408c-.856,3.509-1.575,4.5-2.106,4.972a13.474,13.474,0,0,1-2.089,1.278c-1.035.587-2.365,1.323-3.649,2.019-5.47,2.965-5.84,2.97-6.269,2.976Zm-5.316-37.4a9.372,9.372,0,0,1,1.057,2.012,17.532,17.532,0,0,1,1.01,4.907,77.343,77.343,0,0,1-.325,11.477,81.847,81.847,0,0,0-.378,9.439c.132,2.821.639,4.671,1.551,5.655a3,3,0,0,0,2.292.907c1.462-.586,9.17-4.822,10.254-5.528a13.124,13.124,0,0,0,1.323-4.023,71.393,71.393,0,0,0,1.319-8.517c.743-7.568.437-14.3-.84-18.47-.713-2.331-1.676-3.785-2.867-4.334Z" transform="translate(111.179 237.649)" fill="#fff"/>
    <path id="Path_1176" data-name="Path 1176" d="M376.439,343.866a7.1,7.1,0,0,1,1.226.108l3.369.593-2.719,2.077a4.794,4.794,0,0,0-1.752,3.24,19.889,19.889,0,0,0-.053,4.411c.115,1.828.2,3.271-.442,4.291-1.362,2.146-4.976,5.127-9.206,7.6a41.038,41.038,0,0,1-6.457,3.086,18.855,18.855,0,0,1-6.3,1.309,7.466,7.466,0,0,1-3.955-.987,6.386,6.386,0,0,1-1.588-9.05,12.543,12.543,0,0,1,3.76-2.775A9.22,9.22,0,0,0,354.5,356.3a6.724,6.724,0,0,0,.1-1.833c-.032-1.153-.06-2.149.677-2.814a4.662,4.662,0,0,1,3.181-.762c.567,0,1.179.021,1.826.044.679.024,1.381.048,2.06.048a10.425,10.425,0,0,0,2.747-.265,11.09,11.09,0,0,0,3.48-2.589C370.719,346.133,373.151,343.866,376.439,343.866ZM373.519,357a11.16,11.16,0,0,0,0-2.521,22.525,22.525,0,0,1,.089-5.1,9.816,9.816,0,0,1,.488-1.842,19.033,19.033,0,0,0-3.472,2.781c-1.531,1.427-2.976,2.775-4.685,3.275a12.969,12.969,0,0,1-3.589.385c-.731,0-1.46-.026-2.165-.05-.621-.022-1.207-.042-1.721-.042-.388,0-.668.013-.869.03,0,.159.007.326.011.463.035,1.252.078,2.809-.79,3.832a10.633,10.633,0,0,1-3.035,2.166,10.242,10.242,0,0,0-2.9,2.053,3.411,3.411,0,0,0,.834,4.594,4.558,4.558,0,0,0,2.387.544c2.807,0,6.907-1.453,11.249-3.986C369.061,361.425,372.412,358.722,373.519,357Z" transform="translate(269.429 266.784)" fill="#fff"/>
    <path id="Path_1177" data-name="Path 1177" d="M315.323,361.875a1.671,1.671,0,0,1,1.317.618c.587.735.512,1.8.387,3.561a14.335,14.335,0,0,0-.053,2.438l.326,1.98-1.992-.248a10.016,10.016,0,0,0-1.234-.075c-2.943,0-5.963,1.262-8.883,2.483-2.823,1.18-5.742,2.4-8.731,2.57-.164.009-.334.014-.506.014-2.328,0-5.119-.865-8.073-1.78-3.3-1.021-7.033-2.179-10.419-2.179a11.3,11.3,0,0,0-3.989.658l-1.91.709-.109-2.035c-.186-3.472.336-5.731,1.644-7.111a4.889,4.889,0,0,1,3.711-1.431,20,20,0,0,1,4.71.82,20.777,20.777,0,0,0,4.734.833l2.645.007c2.021.006,4.11.012,6.211.012,4.464,0,10.287-.024,15.736-.209a8.22,8.22,0,0,0,2.416-.917A4.93,4.93,0,0,1,315.323,361.875Zm-20.213,4.843c-2.1,0-4.2-.006-6.219-.012l-2.644-.007a22.9,22.9,0,0,1-5.463-.924,18.132,18.132,0,0,0-3.973-.729,1.893,1.893,0,0,0-1.533.494,4.674,4.674,0,0,0-.841,3,15.54,15.54,0,0,1,3.028-.281c3.84,0,7.807,1.229,11.307,2.314,2.731.846,5.311,1.646,7.185,1.646.115,0,.228,0,.336-.009,2.476-.141,5.035-1.21,7.744-2.343,3.157-1.319,6.42-2.683,9.919-2.714.018-.428.05-.871.08-1.307.007-.094.014-.194.021-.3a8.243,8.243,0,0,1-3.109.964C305.455,366.694,299.6,366.718,295.11,366.718Z" transform="translate(210.822 280.695)" fill="#fff"/>
    <path id="Path_1178" data-name="Path 1178" d="M155.871,320.788a4.536,4.536,0,0,1-3.317-1.633,12.428,12.428,0,0,1-2.147-3.42,31.956,31.956,0,0,1-2.426-10.16,21.671,21.671,0,0,1,.125-4.852,7.336,7.336,0,0,1,1.527-3.79,8.964,8.964,0,0,1,3.568-1.99,14.228,14.228,0,0,0,3.492-1.716,4.764,4.764,0,0,0,1.917-3.094l.33-1.767,1.679.64c1.771.675,2.878,2.681,3.292,5.961a46.632,46.632,0,0,1-1.073,14.364c-.7,3.264-2.227,8.987-4.571,10.643A4.113,4.113,0,0,1,155.871,320.788Zm4.665-27.389a7.973,7.973,0,0,1-2.037,2.223,16.752,16.752,0,0,1-4.222,2.121,7.858,7.858,0,0,0-2.4,1.185c-.585.657-1.172,2.734-.9,6.428a28.8,28.8,0,0,0,2.171,9.152c1.086,2.421,2.147,3.281,2.726,3.281a1.2,1.2,0,0,0,.664-.263c.7-.494,2.172-3.251,3.369-8.823a44.231,44.231,0,0,0,1.03-13.359A11.4,11.4,0,0,0,160.535,293.4Z" transform="translate(115.411 224.331)" fill="#fff"/>
    <path id="Path_1179" data-name="Path 1179" d="M109.073,313.808a3.475,3.475,0,0,1,2.105.528c2.21,1.6,2.509,5.654,1.852,8.742a10.72,10.72,0,0,1-1.586,3.865,5.579,5.579,0,0,1-3.4,2.4,3.6,3.6,0,0,1-.739.078c-2.033,0-3.245-1.693-4.314-3.187-1.125-1.573-1.949-2.6-3.1-2.6a3.348,3.348,0,0,0-1.287.307l-1.449.619-.547-1.478a4.269,4.269,0,0,1,.6-4.057c1.307-1.877,3.819-3.133,5.7-3.857A18.971,18.971,0,0,1,109.073,313.808Zm.428,3.027a2.679,2.679,0,0,0-.428-.027,16.158,16.158,0,0,0-5.095,1.159,10.078,10.078,0,0,0-4.238,2.669,5.145,5.145,0,0,1,3.642,1.411,14.448,14.448,0,0,1,2.046,2.445c.616.861,1.383,1.933,1.875,1.933a.6.6,0,0,0,.121-.014c1.412-.3,2.306-2.239,2.671-3.956C110.665,319.778,110.147,317.457,109.5,316.835Z" transform="translate(75.575 243.565)" fill="#fff"/>
    <path id="Path_1180" data-name="Path 1180" d="M222.055,137.442a4.023,4.023,0,0,1,2.921,1.281c1.058,1.084,1.294,3.086.7,5.949a27.477,27.477,0,0,1-2.724,7.291c-1.026,1.873-2.669,4.279-4.676,5.1l-.651.267L217,157a6.774,6.774,0,0,1-3.435-4.435,11.473,11.473,0,0,1,.137-5.543C214.853,142.416,218.372,137.442,222.055,137.442Zm.767,3.369a1.015,1.015,0,0,0-.767-.369c-.6,0-1.666.539-2.873,2.053a14.234,14.234,0,0,0-2.566,5.255,8.505,8.505,0,0,0-.141,4.075,3.821,3.821,0,0,0,1.274,2.09,10.569,10.569,0,0,0,2.246-2.818,25.027,25.027,0,0,0,2.447-5.808,14.215,14.215,0,0,0,.55-3.128A2.745,2.745,0,0,0,222.822,140.811Z" transform="translate(165.917 107.328)" fill="#fff"/>
    <path id="Path_1181" data-name="Path 1181" d="M247.786,128.823l.524.465a2.372,2.372,0,0,1,.8,1.8c0,2.307-3.1,5.209-7.818,9.375a34.673,34.673,0,0,0-3.3,3.116l-2.1,3.465-2.658-16.056ZM237.7,139.643c.461-.416.993-.887,1.6-1.426,1.534-1.354,3.273-2.888,4.64-4.294a18.761,18.761,0,0,0,1.511-1.72l-8.771,1.307Z" transform="translate(181.498 100.737)" fill="#fff"/>
    <path id="Path_1182" data-name="Path 1182" d="M91.532,115.909l1.416,0,.1,1.385c.28,3.764-.414,6.555-2.122,8.532-2.432,2.817-6.558,3.454-9.881,3.694l-1.6.115-.011-1.6a12.479,12.479,0,0,1,12.092-12.129ZM82.61,126.356c3.021-.391,4.92-1.18,6.049-2.487a7.294,7.294,0,0,0,1.452-4.829,9.724,9.724,0,0,0-7.5,7.316Z" transform="translate(62.523 90.695)" fill="#fff"/>
  </g>
</svg>
