<svg xmlns="http://www.w3.org/2000/svg" width="20" height="18.571" viewBox="0 0 20 18.571">
  <path id="Icon_ionic-ios-star" data-name="Icon ionic-ios-star" d="M21.491,9.8H14.924l-2-5.955a.723.723,0,0,0-1.357,0l-2,5.955H2.964a.716.716,0,0,0-.714.714.525.525,0,0,0,.013.121.686.686,0,0,0,.3.5l5.4,3.8L5.888,20.969a.716.716,0,0,0,.246.8.691.691,0,0,0,.4.174.875.875,0,0,0,.446-.161l5.268-3.754,5.268,3.754a.837.837,0,0,0,.446.161.641.641,0,0,0,.4-.174.708.708,0,0,0,.246-.8l-2.071-6.022,5.353-3.839L22.018,11a.749.749,0,0,0,.232-.478A.756.756,0,0,0,21.491,9.8Z" transform="translate(-2.25 -3.375)" fill="#1d2335" opacity="0.154"/>
</svg>
