<svg xmlns="http://www.w3.org/2000/svg" width="24" height="28.5" viewBox="0 0 24 28.5">
  <path id="Icon_material-train" data-name="Icon material-train" d="M18,3C12,3,6,3.75,6,9V23.25a5.256,5.256,0,0,0,5.25,5.25L9,30.75v.75h3.345l3-3H21l3,3h3v-.75L24.75,28.5A5.256,5.256,0,0,0,30,23.25V9C30,3.75,24.63,3,18,3ZM11.25,25.5a2.25,2.25,0,1,1,2.25-2.25A2.247,2.247,0,0,1,11.25,25.5ZM16.5,15H9V9h7.5Zm3,0V9H27v6Zm5.25,10.5A2.25,2.25,0,1,1,27,23.25,2.247,2.247,0,0,1,24.75,25.5Z" transform="translate(-6 -3)"/>
</svg>
