<svg id="Group_55" data-name="Group 55" xmlns="http://www.w3.org/2000/svg" xmlns:xlink="http://www.w3.org/1999/xlink" width="38" height="35.094" viewBox="0 0 38 35.094">
  <defs>
    <clipPath id="clip-path">
      <rect id="Rectangle_47" data-name="Rectangle 47" width="38" height="35.094" fill="#fff"/>
    </clipPath>
  </defs>
  <g id="Group_54" data-name="Group 54" clip-path="url(#clip-path)">
    <path id="Path_98" data-name="Path 98" d="M7.782,26.451a1.662,1.662,0,0,1-.389-.351.885.885,0,0,1,.634-1.377h8.881a.879.879,0,0,1,.832.877,24.647,24.647,0,0,1-.816,5.307c-.9,3.439-3.454,7.949-7.343,8.438-.293.037-.954-.1-1.084.149L6.913,45.549,11.19,46.8a.878.878,0,0,1-.531,1.606c-3.13-.971-6.57-1.555-9.657-2.6-.339-.114-.826-.214-.949-.612a.917.917,0,0,1,.827-1.239l4.314,1.153,1.646-6.117c-5.037-2.369-4.5-9.123-2.962-13.57A52.8,52.8,0,0,1,7.616,17a1.887,1.887,0,0,1,1.567-1.069c2.433.727,5.32,1.082,7.682,1.934a1.815,1.815,0,0,1,1.314,1.646,19.189,19.189,0,0,1-.169,2.788.909.909,0,0,1-1.629.323c-.292-.564.173-2.924-.058-3.081L9.487,17.754a.272.272,0,0,0-.308.066c-.127.117-.943,1.871-1.1,2.191C6.038,24.258,3.45,29.873,5.053,34.606c1.122,3.314,4.281,4.105,6.882,1.751s3.723-6.5,3.862-9.905Z" transform="translate(0 -13.31)" fill="#fff"/>
    <path id="Path_99" data-name="Path 99" d="M132.007,6.785c-.872-1.629-1.5-3.413-2.465-4.977l-7.087,1.811c.072,2.373.2,4.822.483,7.18a17.32,17.32,0,0,0,2.431,7.761c1.4,2.135,3.744,4.2,6.418,2.733,2.824-1.547,2.729-6.706,2.058-9.4-.1-.385-.266-1.337-.67-1.385h-8.3a.87.87,0,0,1,.16-1.721c2.8-.316,6.179.239,9.045,0,.833.021,1.028,1.149,1.229,1.813,1.254,4.145,1.263,10.4-3.33,12.458l1.646,6.117,4.316-1.155a.918.918,0,0,1,.857,1.108c-.077.489-.53.6-.919.725-3.061,1.021-6.412,1.581-9.494,2.589-1.251.178-1.643-1.3-.35-1.748,1.2-.415,2.6-.617,3.816-1.018l.028-.358L130.3,23.5c-.115-.153-.814-.059-1.06-.09a7.717,7.717,0,0,1-4.935-3.285c-3.479-4.734-3.2-11.02-3.655-16.628a1.838,1.838,0,0,1,1.118-1.512l7.65-1.971A1.941,1.941,0,0,1,130.705.4a18.7,18.7,0,0,1,2,3.751,11.413,11.413,0,0,1,.829,2.036.9.9,0,0,1-1.529.6" transform="translate(-100.813 0)" fill="#fff"/>
  </g>
</svg>
