<svg xmlns="http://www.w3.org/2000/svg" width="23.781" height="21.139" viewBox="0 0 23.781 21.139">
  <path id="Icon_awesome-hotel" data-name="Icon awesome-hotel" d="M23.12,2.642a.66.66,0,0,0,.661-.661V.661A.66.66,0,0,0,23.12,0H.661A.66.66,0,0,0,0,.661V1.982a.66.66,0,0,0,.661.661h.66V18.5H.661A.66.66,0,0,0,0,19.157v1.321a.66.66,0,0,0,.661.661h9.909v-3.3a.663.663,0,0,1,.661-.661h1.321a.663.663,0,0,1,.661.661v3.3H23.12a.66.66,0,0,0,.661-.661V19.157a.66.66,0,0,0-.661-.661H22.46V2.642ZM10.569,4.492a.568.568,0,0,1,.528-.528h1.585a.568.568,0,0,1,.528.528V6.077a.568.568,0,0,1-.528.528H11.1a.568.568,0,0,1-.528-.528V4.492Zm0,3.964a.568.568,0,0,1,.528-.528h1.585a.568.568,0,0,1,.528.528v1.585a.568.568,0,0,1-.528.528H11.1a.568.568,0,0,1-.528-.528V8.455ZM5.285,4.492a.568.568,0,0,1,.528-.528H7.4a.568.568,0,0,1,.528.528V6.077a.568.568,0,0,1-.528.528H5.813a.568.568,0,0,1-.528-.528ZM7.4,10.569H5.813a.568.568,0,0,1-.528-.528V8.455a.568.568,0,0,1,.528-.528H7.4a.568.568,0,0,1,.528.528v1.585A.568.568,0,0,1,7.4,10.569Zm.528,5.285a3.964,3.964,0,0,1,7.927,0ZM18.5,10.041a.568.568,0,0,1-.528.528H16.382a.568.568,0,0,1-.528-.528V8.455a.568.568,0,0,1,.528-.528h1.585a.568.568,0,0,1,.528.528Zm0-3.964a.568.568,0,0,1-.528.528H16.382a.568.568,0,0,1-.528-.528V4.492a.568.568,0,0,1,.528-.528h1.585a.568.568,0,0,1,.528.528Z" fill="#fff"/>
</svg>
