<?xml version="1.0" encoding="utf-8" ?>
<svg baseProfile="tiny" height="100%" version="1.2" width="100%" xmlns="http://www.w3.org/2000/svg" xmlns:ev="http://www.w3.org/2001/xml-events" xmlns:xlink="http://www.w3.org/1999/xlink"><defs /><path d="M 0,0 L 0,89 L 4,89 L 5,88 L 19,88 L 20,87 L 27,87 L 28,86 L 43,86 L 44,85 L 59,85 L 60,84 L 70,84 L 71,83 L 123,83 L 124,82 L 149,82 L 150,83 L 211,83 L 212,84 L 221,84 L 222,85 L 239,85 L 240,86 L 256,86 L 257,87 L 265,87 L 266,88 L 280,88 L 281,89 L 287,89 L 288,90 L 302,90 L 303,91 L 307,91 L 308,92 L 319,92 L 320,93 L 326,93 L 327,94 L 333,94 L 334,95 L 341,95 L 342,96 L 346,96 L 347,97 L 354,97 L 355,98 L 359,98 L 360,99 L 366,99 L 367,100 L 370,100 L 371,101 L 378,101 L 379,102 L 382,102 L 383,103 L 389,103 L 390,104 L 393,104 L 394,105 L 398,105 L 399,106 L 404,106 L 405,107 L 407,107 L 408,108 L 414,108 L 415,109 L 418,109 L 419,110 L 424,110 L 425,111 L 427,111 L 428,112 L 433,112 L 434,113 L 437,113 L 438,114 L 441,114 L 442,115 L 445,115 L 446,116 L 450,116 L 451,117 L 453,117 L 454,118 L 457,118 L 458,119 L 460,119 L 461,120 L 464,120 L 465,121 L 468,121 L 469,122 L 472,122 L 473,123 L 475,123 L 476,124 L 479,124 L 480,125 L 482,125 L 483,126 L 486,126 L 487,127 L 489,127 L 490,128 L 493,128 L 494,129 L 496,129 L 497,130 L 498,130 L 499,131 L 502,131 L 503,132 L 505,132 L 506,133 L 508,133 L 509,134 L 511,134 L 512,135 L 514,135 L 515,136 L 518,136 L 519,137 L 520,137 L 521,138 L 523,138 L 524,139 L 526,139 L 527,140 L 529,140 L 530,141 L 532,141 L 533,142 L 534,142 L 535,143 L 538,143 L 539,144 L 540,144 L 541,145 L 543,145 L 544,146 L 545,146 L 546,147 L 548,147 L 549,148 L 550,148 L 551,149 L 553,149 L 554,150 L 555,150 L 556,151 L 557,151 L 558,152 L 560,152 L 561,153 L 562,153 L 563,154 L 565,154 L 566,155 L 568,155 L 569,156 L 570,156 L 571,157 L 572,157 L 573,158 L 574,158 L 575,159 L 577,159 L 578,160 L 579,160 L 580,161 L 582,161 L 583,162 L 584,162 L 585,163 L 587,163 L 588,164 L 589,164 L 590,165 L 591,165 L 592,166 L 593,166 L 594,167 L 595,167 L 596,168 L 598,168 L 599,169 L 600,169 L 602,171 L 604,171 L 605,172 L 606,172 L 607,173 L 608,173 L 610,175 L 612,175 L 613,176 L 614,176 L 615,177 L 616,177 L 618,179 L 620,179 L 621,180 L 622,180 L 623,181 L 624,181 L 626,183 L 628,183 L 629,184 L 630,184 L 631,185 L 632,185 L 634,187 L 635,187 L 637,189 L 638,189 L 639,190 L 640,190 L 641,191 L 642,191 L 644,193 L 645,193 L 646,194 L 647,194 L 648,195 L 649,195 L 650,196 L 651,196 L 652,197 L 653,197 L 655,199 L 656,199 L 657,200 L 658,200 L 660,202 L 661,202 L 662,203 L 663,203 L 666,206 L 667,206 L 669,208 L 670,208 L 671,209 L 672,209 L 674,211 L 675,211 L 678,214 L 679,214 L 681,216 L 682,216 L 683,217 L 684,217 L 686,219 L 687,219 L 691,223 L 692,223 L 693,224 L 694,224 L 698,228 L 699,228 L 702,231 L 703,231 L 706,234 L 707,234 L 711,238 L 712,238 L 715,241 L 716,241 L 720,245 L 721,245 L 722,246 L 722,247 L 723,247 L 726,250 L 727,250 L 728,251 L 728,252 L 729,252 L 734,257 L 735,257 L 742,264 L 743,264 L 754,275 L 754,276 L 773,295 L 773,296 L 774,296 L 775,297 L 775,298 L 778,301 L 778,302 L 782,306 L 782,307 L 785,310 L 785,311 L 789,315 L 789,316 L 794,321 L 794,322 L 798,326 L 798,327 L 800,329 L 800,330 L 803,333 L 803,334 L 805,336 L 805,337 L 806,338 L 806,339 L 809,342 L 809,343 L 811,345 L 811,346 L 814,349 L 814,350 L 816,352 L 816,353 L 818,355 L 818,356 L 820,358 L 820,359 L 821,360 L 821,361 L 823,363 L 823,364 L 825,366 L 825,367 L 827,369 L 827,370 L 829,372 L 829,373 L 831,375 L 831,376 L 833,378 L 833,379 L 835,381 L 835,382 L 837,384 L 837,385 L 838,386 L 838,387 L 840,389 L 840,390 L 842,392 L 842,393 L 845,396 L 845,397 L 846,398 L 846,399 L 848,401 L 848,402 L 851,405 L 851,406 L 853,408 L 853,409 L 854,410 L 854,411 L 857,414 L 857,415 L 859,417 L 859,418 L 862,421 L 862,422 L 865,425 L 865,426 L 867,428 L 867,429 L 871,433 L 871,434 L 873,436 L 873,437 L 876,440 L 876,441 L 878,443 L 878,444 L 881,447 L 881,448 L 884,451 L 884,452 L 886,454 L 886,455 L 890,459 L 890,460 L 893,463 L 893,464 L 896,467 L 896,468 L 898,470 L 898,471 L 904,477 L 904,478 L 907,481 L 907,482 L 913,488 L 913,489 L 917,493 L 917,494 L 924,501 L 924,502 L 925,502 L 926,503 L 926,504 L 933,511 L 933,512 L 938,517 L 938,518 L 950,530 L 950,531 L 951,531 L 958,538 L 958,539 L 959,539 L 963,543 L 963,544 L 964,545 L 965,545 L 966,546 L 966,547 L 967,547 L 968,548 L 968,549 L 971,552 L 972,552 L 974,554 L 974,555 L 975,555 L 990,570 L 991,570 L 992,571 L 992,572 L 993,572 L 998,577 L 999,577 L 1004,582 L 1005,582 L 1010,587 L 1011,587 L 1014,590 L 1015,590 L 1021,596 L 1022,596 L 1024,598 L 1025,598 L 1030,603 L 1031,603 L 1034,606 L 1035,606 L 1037,608 L 1038,608 L 1039,609 L 1040,609 L 1042,611 L 1043,611 L 1045,613 L 1046,613 L 1049,616 L 1050,616 L 1051,617 L 1052,617 L 1054,619 L 1055,619 L 1057,621 L 1058,621 L 1061,624 L 1062,624 L 1063,625 L 1064,625 L 1066,627 L 1068,627 L 1069,628 L 1070,628 L 1071,629 L 1072,629 L 1074,631 L 1075,631 L 1076,632 L 1077,632 L 1078,633 L 1079,633 L 1080,634 L 1081,634 L 1082,635 L 1083,635 L 1085,637 L 1086,637 L 1087,638 L 1088,638 L 1089,639 L 1090,639 L 1091,640 L 1092,640 L 1093,641 L 1095,641 L 1096,642 L 1097,642 L 1098,643 L 1099,643 L 1100,644 L 1102,644 L 1103,645 L 1104,645 L 1105,646 L 1106,646 L 1107,647 L 1108,647 L 1109,648 L 1111,648 L 1112,649 L 1114,649 L 1115,650 L 1116,650 L 1117,651 L 1120,651 L 1121,652 L 1123,652 L 1124,653 L 1126,653 L 1127,654 L 1128,654 L 1129,655 L 1132,655 L 1133,656 L 1136,656 L 1137,657 L 1142,657 L 1143,658 L 1146,658 L 1147,659 L 1152,659 L 1153,660 L 1157,660 L 1158,661 L 1172,661 L 1173,662 L 1177,662 L 1178,661 L 1179,662 L 1183,662 L 1183,0 Z" fill="white" stroke="none" /></svg>